<?xml version="1.0" encoding="UTF-8"?>
<svg width="22px" height="18px" viewBox="0 0 22 18" version="1.1" xmlns="http://www.w3.org/2000/svg" xmlns:xlink="http://www.w3.org/1999/xlink">
    <!-- Generator: Sketch 48.1 (47250) - http://www.bohemiancoding.com/sketch -->
    <title>ButtonIcon_Twitter</title>
    <desc>Created with Sketch.</desc>
    <defs></defs>
    <g id="Netduino.Foundation-Web-Site" stroke="none" stroke-width="1" fill="none" fill-rule="evenodd" transform="translate(-529.000000, -526.000000)">
        <g id="About" transform="translate(0.000000, 341.000000)" fill="#524740" fill-rule="nonzero">
            <g id="follow-button" transform="translate(521.000000, 175.000000)">
                <path d="M14.91856,27.8762927 C23.22048,27.8762927 27.76128,20.9982127 27.76128,15.0335727 C27.76128,14.8382127 27.76128,14.6437327 27.74808,14.4501327 C28.6314516,13.8111743 29.3939928,13.0200266 30,12.1137327 C29.1762136,12.4787583 28.3023298,12.718142 27.40752,12.8238927 C28.3497747,12.259797 29.0549887,11.3725721 29.39192,10.3273327 C28.5058986,10.8530934 27.5365686,11.2236233 26.52576,11.4229327 C25.1266328,9.93519971 22.903433,9.57107182 21.1028034,10.5347311 C19.3021737,11.4983903 18.371922,13.5501794 18.83368,15.5395727 C15.2044682,15.3576323 11.8231387,13.6434572 9.5312,10.8236527 C8.33318803,12.8860601 8.94510934,15.5244891 10.92864,16.8490127 C10.2103323,16.8277234 9.50768585,16.6339523 8.88,16.2840527 C8.88,16.3025327 8.88,16.3218927 8.88,16.3412527 C8.88058796,18.4898546 10.3951413,20.3404437 12.5012,20.7658927 C11.8366852,20.94712 11.1394709,20.9736117 10.46312,20.8433327 C11.0544342,22.6820248 12.7489856,23.9416225 14.68008,23.9778927 C13.0817668,25.2340329 11.1073324,25.9159411 9.07448,25.9138927 C8.71535514,25.9132033 8.35657958,25.8914593 8,25.8487727 C10.0641596,27.1734161 12.4659238,27.8760436 14.91856,27.8727727" id="ButtonIcon_Twitter"></path>
            </g>
        </g>
    </g>
</svg>