<?xml version="1.0" encoding="UTF-8"?>
<svg width="522px" height="187px" viewBox="0 0 522 187" version="1.1" xmlns="http://www.w3.org/2000/svg" xmlns:xlink="http://www.w3.org/1999/xlink">
    <!-- Generator: Sketch 48.2 (47327) - http://www.bohemiancoding.com/sketch -->
    <title>Banner_Background</title>
    <desc>Created with Sketch.</desc>
    <defs></defs>
    <g id="SubPageDesign" stroke="none" stroke-width="1" fill="none" fill-rule="evenodd" transform="translate(-918.000000, -126.000000)">
        <g id="Banner" transform="translate(0.000000, 80.000000)">
            <g id="Banner_Background" transform="translate(916.000000, 46.000000)">
                <path d="M13.9453125,162.318359 C14.3457051,162.318359 14.626464,162.391601 14.7875977,162.538086 C14.9487313,162.684571 15.0292969,162.928709 15.0292969,163.270508 L15.0292969,175.194336 C15.0292969,175.536135 14.9560554,175.780273 14.8095703,175.926758 C14.6630852,176.073243 14.399416,176.146484 14.0185547,176.146484 L13.9892578,176.146484 C13.6083965,176.146484 13.3447273,176.073243 13.1982422,175.926758 C13.0517571,175.780273 12.9785156,175.536135 12.9785156,175.194336 L12.9785156,172.806641 C12.3144498,173.832036 11.4697317,174.674313 10.4443359,175.333496 C9.41894019,175.992679 8.38379429,176.322266 7.33886719,176.322266 C5.86425044,176.322266 4.72168374,175.897465 3.91113281,175.047852 C3.10058188,174.198238 2.6953125,173.031257 2.6953125,171.546875 L2.6953125,163.270508 C2.6953125,162.928709 2.7758781,162.684571 2.93701172,162.538086 C3.09814534,162.391601 3.37890425,162.318359 3.77929688,162.318359 L3.80859375,162.318359 C4.20898638,162.318359 4.48974529,162.391601 4.65087891,162.538086 C4.81201252,162.684571 4.89257812,162.928709 4.89257812,163.270508 L4.89257812,171.327148 C4.89257812,172.206059 5.10986111,172.89697 5.54443359,173.399902 C5.97900608,173.902835 6.65038608,174.154297 7.55859375,174.154297 C8.3984417,174.154297 9.22607014,173.888186 10.0415039,173.355957 C10.8569377,172.823728 11.5258763,172.101079 12.0483398,171.187988 C12.5708034,170.274898 12.8320312,169.281255 12.8320312,168.207031 L12.8320312,163.270508 C12.8320312,162.928709 12.9125969,162.684571 13.0737305,162.538086 C13.2348641,162.391601 13.515623,162.318359 13.9160156,162.318359 L13.9453125,162.318359 Z M27.5683594,176.322266 C25.0878782,176.322266 22.9541105,175.833989 21.1669922,174.857422 C20.7861309,174.642577 20.5957031,174.36426 20.5957031,174.022461 C20.5957031,173.836913 20.6542963,173.622072 20.7714844,173.37793 C21.0058605,172.918943 21.2695298,172.689453 21.5625,172.689453 C21.7089851,172.689453 21.8603508,172.733398 22.0166016,172.821289 C22.8173868,173.27051 23.6767532,173.612304 24.5947266,173.84668 C25.5126999,174.081056 26.4550733,174.198242 27.421875,174.198242 C28.6230529,174.198242 29.5336883,173.995607 30.1538086,173.590332 C30.7739289,173.185057 31.0839844,172.635746 31.0839844,171.942383 C31.0839844,171.61035 30.9838877,171.339357 30.7836914,171.129395 C30.5834951,170.919433 30.2880879,170.750977 29.8974609,170.624023 C29.565428,170.516601 29.1748069,170.431153 28.7255859,170.367676 C28.2763649,170.304199 27.7001988,170.238282 26.9970703,170.169922 C26.0400343,170.082031 25.2587921,169.989258 24.6533203,169.891602 C24.0478485,169.793945 23.4863307,169.642579 22.96875,169.4375 C22.2753872,169.164061 21.7358418,168.778323 21.3500977,168.280273 C20.9643535,167.782224 20.7714844,167.132817 20.7714844,166.332031 C20.7714844,165.433589 21.0082984,164.669437 21.4819336,164.039551 C21.9555688,163.409665 22.6049763,162.936037 23.4301758,162.618652 C24.2553752,162.301268 25.1953072,162.142578 26.25,162.142578 C28.4863393,162.142578 30.4492103,162.567379 32.1386719,163.416992 C32.5292988,163.612306 32.7246094,163.890623 32.7246094,164.251953 C32.7246094,164.447267 32.6757817,164.657225 32.578125,164.881836 C32.3535145,165.37012 32.0898453,165.614258 31.7871094,165.614258 C31.6894526,165.614258 31.5429697,165.570313 31.3476562,165.482422 C29.7558514,164.671871 28.0859462,164.266602 26.3378906,164.266602 C25.3027292,164.266602 24.4921904,164.442381 23.90625,164.793945 C23.3203096,165.14551 23.0273437,165.6582 23.0273437,166.332031 C23.0273437,166.634767 23.124999,166.881347 23.3203125,167.071777 C23.515626,167.262208 23.7939435,167.416015 24.1552734,167.533203 C24.4775407,167.640626 24.8388652,167.721191 25.2392578,167.774902 C25.6396504,167.828614 26.206051,167.889648 26.9384766,167.958008 C27.8466842,168.036133 28.6083954,168.121582 29.2236328,168.214355 C29.8388703,168.307129 30.4101536,168.451171 30.9375,168.646484 C31.6894569,168.929689 32.2778299,169.332517 32.7026367,169.85498 C33.1274435,170.377444 33.3398438,171.073238 33.3398438,171.942383 C33.3398438,172.821293 33.1201194,173.590329 32.6806641,174.249512 C32.2412087,174.908695 31.5893598,175.418944 30.7250977,175.780273 C29.8608355,176.141603 28.8086,176.322266 27.5683594,176.322266 Z M45.4980469,162.464844 C45.8300798,162.464844 46.0668938,162.540527 46.2084961,162.691895 C46.3500984,162.843262 46.4208984,163.099608 46.4208984,163.460938 L46.4208984,173.890625 L51.1230469,173.890625 C51.4550798,173.890625 51.6918938,173.971191 51.8334961,174.132324 C51.9750984,174.293458 52.0458984,174.564451 52.0458984,174.945312 C52.0458984,175.326174 51.9750984,175.597167 51.8334961,175.758301 C51.6918938,175.919434 51.4550798,176 51.1230469,176 L39.6386719,176 C39.306639,176 39.0698249,175.919434 38.9282227,175.758301 C38.7866204,175.597167 38.7158203,175.326174 38.7158203,174.945312 C38.7158203,174.564451 38.7866204,174.293458 38.9282227,174.132324 C39.0698249,173.971191 39.306639,173.890625 39.6386719,173.890625 L44.2236328,173.890625 L44.2236328,164.574219 L40.5175781,164.574219 C40.1855452,164.574219 39.9487312,164.493653 39.8071289,164.33252 C39.6655266,164.171386 39.5947266,163.900393 39.5947266,163.519531 C39.5947266,163.13867 39.6655266,162.867677 39.8071289,162.706543 C39.9487312,162.545409 40.1855452,162.464844 40.5175781,162.464844 L45.4980469,162.464844 Z M46.4208984,158.890625 C46.4208984,159.242189 46.3232432,159.488769 46.1279297,159.630371 C45.9326162,159.771973 45.5664089,159.842773 45.0292969,159.842773 C44.4921848,159.842773 44.1259775,159.771973 43.9306641,159.630371 C43.7353506,159.488769 43.6376953,159.242189 43.6376953,158.890625 L43.6376953,156.986328 C43.6376953,156.634764 43.7353506,156.388184 43.9306641,156.246582 C44.1259775,156.10498 44.4921848,156.03418 45.0292969,156.03418 C45.5664089,156.03418 45.9326162,156.10498 46.1279297,156.246582 C46.3232432,156.388184 46.4208984,156.634764 46.4208984,156.986328 L46.4208984,158.890625 Z M64.6142578,162.142578 C66.0888746,162.142578 67.2314413,162.567379 68.0419922,163.416992 C68.8525431,164.266606 69.2578125,165.433586 69.2578125,166.917969 L69.2578125,175.194336 C69.2578125,175.536135 69.1772469,175.780273 69.0161133,175.926758 C68.8549797,176.073243 68.5742208,176.146484 68.1738281,176.146484 L68.1445312,176.146484 C67.7441386,176.146484 67.4633797,176.073243 67.3022461,175.926758 C67.1411125,175.780273 67.0605469,175.536135 67.0605469,175.194336 L67.0605469,167.137695 C67.0605469,166.258785 66.8432639,165.567874 66.4086914,165.064941 C65.9741189,164.562009 65.3027389,164.310547 64.3945312,164.310547 C63.5546833,164.310547 62.7270549,164.576657 61.9116211,165.108887 C61.0961873,165.641116 60.4272487,166.363765 59.9047852,167.276855 C59.3823216,168.189946 59.1210937,169.183588 59.1210937,170.257812 L59.1210937,175.194336 C59.1210937,175.536135 59.0405281,175.780273 58.8793945,175.926758 C58.7182609,176.073243 58.437502,176.146484 58.0371094,176.146484 L58.0078125,176.146484 C57.6074199,176.146484 57.326661,176.073243 57.1655273,175.926758 C57.0043937,175.780273 56.9238281,175.536135 56.9238281,175.194336 L56.9238281,163.270508 C56.9238281,162.928709 56.9970696,162.684571 57.1435547,162.538086 C57.2900398,162.391601 57.553709,162.318359 57.9345703,162.318359 L57.9638672,162.318359 C58.3447285,162.318359 58.6083977,162.391601 58.7548828,162.538086 C58.9013679,162.684571 58.9746094,162.928709 58.9746094,163.270508 L58.9746094,165.658203 C59.6386752,164.632807 60.4833933,163.790531 61.5087891,163.131348 C62.5341848,162.472165 63.5693307,162.142578 64.6142578,162.142578 Z M80.2880859,162.142578 C81.245122,162.142578 82.1289022,162.35742 82.9394531,162.787109 C83.7500041,163.216799 84.4628875,163.832027 85.078125,164.632812 L85.078125,163.270508 C85.078125,162.928709 85.1513665,162.684571 85.2978516,162.538086 C85.4443367,162.391601 85.7080059,162.318359 86.0888672,162.318359 L86.1181641,162.318359 C86.4990253,162.318359 86.7626946,162.391601 86.9091797,162.538086 C87.0556648,162.684571 87.1289062,162.928709 87.1289062,163.270508 L87.1289062,176.439453 C87.1289062,177.601568 86.8823267,178.600093 86.3891602,179.435059 C85.8959936,180.270024 85.1806687,180.907224 84.2431641,181.34668 C83.3056594,181.786135 82.177741,182.005859 80.859375,182.005859 C79.9218703,182.005859 78.9746142,181.925294 78.0175781,181.76416 C77.0605421,181.603027 76.1669963,181.371095 75.3369141,181.068359 C74.9560528,180.93164 74.765625,180.672853 74.765625,180.291992 C74.765625,180.135741 74.8046871,179.940431 74.8828125,179.706055 C75.0585946,179.168943 75.3369122,178.900391 75.7177734,178.900391 C75.8251958,178.900391 75.9326167,178.919922 76.0400391,178.958984 C76.8017616,179.232423 77.6025349,179.447265 78.4423828,179.603516 C79.2822308,179.759766 80.0878868,179.837891 80.859375,179.837891 C82.207038,179.837891 83.2226528,179.51807 83.90625,178.878418 C84.5898472,178.238766 84.9316406,177.36231 84.9316406,176.249023 L84.9316406,173.304688 C83.7206971,174.828133 82.172861,175.589844 80.2880859,175.589844 C79.0771424,175.589844 77.9956102,175.31885 77.043457,174.776855 C76.0913038,174.234861 75.344241,173.45606 74.8022461,172.44043 C74.2602512,171.4248 73.9892578,170.233405 73.9892578,168.866211 C73.9892578,167.499017 74.2602512,166.307622 74.8022461,165.291992 C75.344241,164.276362 76.0913038,163.497561 77.043457,162.955566 C77.9956102,162.413572 79.0771424,162.142578 80.2880859,162.142578 Z M80.4345703,164.310547 C79.5654253,164.310547 78.8159211,164.503416 78.1860352,164.88916 C77.5561492,165.274904 77.075197,165.812008 76.7431641,166.500488 C76.4111312,167.188968 76.2451172,167.977535 76.2451172,168.866211 C76.2451172,169.754887 76.4111312,170.543454 76.7431641,171.231934 C77.075197,171.920414 77.5561492,172.457518 78.1860352,172.843262 C78.8159211,173.229006 79.5654253,173.421875 80.4345703,173.421875 C81.3037153,173.421875 82.0776333,173.241213 82.7563477,172.879883 C83.435062,172.518553 83.9672832,171.993656 84.3530273,171.305176 C84.7387715,170.616696 84.9316406,169.803716 84.9316406,168.866211 C84.9316406,167.928706 84.7387715,167.115726 84.3530273,166.427246 C83.9672832,165.738766 83.435062,165.213869 82.7563477,164.852539 C82.0776333,164.491209 81.3037153,164.310547 80.4345703,164.310547 Z M122.299805,158.46582 C122.690432,158.46582 122.963866,158.539062 123.120117,158.685547 C123.276368,158.832032 123.354492,159.07617 123.354492,159.417969 L123.354492,175.458008 C123.354492,175.721681 123.264161,175.93164 123.083496,176.087891 C122.902831,176.244141 122.626955,176.322266 122.255859,176.322266 C121.992186,176.322266 121.765138,176.253907 121.574707,176.117188 C121.384276,175.980468 121.201173,175.780275 121.025391,175.516602 L112.69043,162.508789 L112.631836,162.508789 L112.631836,175.194336 C112.631836,175.536135 112.553712,175.780273 112.397461,175.926758 C112.24121,176.073243 111.967775,176.146484 111.577148,176.146484 L111.547852,176.146484 C111.157225,176.146484 110.88379,176.073243 110.727539,175.926758 C110.571288,175.780273 110.493164,175.536135 110.493164,175.194336 L110.493164,159.417969 C110.493164,159.07617 110.576171,158.832032 110.742188,158.685547 C110.908204,158.539062 111.191404,158.46582 111.591797,158.46582 L111.987305,158.46582 C112.407229,158.46582 112.70996,158.602538 112.895508,158.875977 L121.157227,171.795898 L121.21582,171.795898 L121.21582,159.417969 C121.21582,159.07617 121.293945,158.832032 121.450195,158.685547 C121.606446,158.539062 121.879881,158.46582 122.270508,158.46582 L122.299805,158.46582 Z M135.043945,162.142578 C136.459968,162.142578 137.666011,162.42822 138.662109,162.999512 C139.658208,163.570804 140.422361,164.35937 140.95459,165.365234 C141.486819,166.371099 141.791992,167.538079 141.870117,168.866211 C141.889649,169.188478 141.823731,169.420409 141.672363,169.562012 C141.520995,169.703614 141.279299,169.774414 140.947266,169.774414 L130.341797,169.774414 C130.410157,171.229499 130.820309,172.330563 131.572266,173.077637 C132.324223,173.824711 133.383782,174.198242 134.750977,174.198242 C135.727544,174.198242 136.682124,174.085939 137.614746,173.861328 C138.547368,173.636718 139.350583,173.329104 140.024414,172.938477 C140.190431,172.850585 140.341796,172.806641 140.478516,172.806641 C140.664063,172.806641 140.832519,172.877441 140.983887,173.019043 C141.135255,173.160645 141.254882,173.36328 141.342773,173.626953 C141.411133,173.802735 141.445312,173.978515 141.445312,174.154297 C141.445312,174.544924 141.230471,174.842772 140.800781,175.047852 C140.009762,175.428713 139.077154,175.736327 138.00293,175.970703 C136.928706,176.205079 135.844732,176.322266 134.750977,176.322266 C133.334954,176.322266 132.128911,176.039065 131.132812,175.472656 C130.136714,174.906247 129.379885,174.090826 128.862305,173.026367 C128.344724,171.961909 128.085938,170.697273 128.085938,169.232422 C128.085938,167.835931 128.381345,166.600591 128.972168,165.526367 C129.562991,164.452143 130.385737,163.619632 131.44043,163.028809 C132.495122,162.437985 133.696282,162.142578 135.043945,162.142578 Z M135.043945,164.266602 C133.833002,164.266602 132.832035,164.571774 132.041016,165.182129 C131.249996,165.792484 130.732423,166.639643 130.488281,167.723633 L139.49707,167.723633 C139.291991,166.610346 138.815922,165.755862 138.068848,165.160156 C137.321774,164.56445 136.313483,164.266602 135.043945,164.266602 Z M159.770508,173.260742 C159.897462,173.51465 159.960938,173.734374 159.960938,173.919922 C159.960938,174.232423 159.799806,174.486327 159.477539,174.681641 C158.715817,175.160159 157.866216,175.553221 156.928711,175.86084 C155.991206,176.168459 155.117192,176.322266 154.306641,176.322266 C152.646476,176.322266 151.433109,175.890141 150.666504,175.025879 C149.899899,174.161617 149.516602,172.870126 149.516602,171.151367 L149.516602,165.746094 L146.542969,165.746094 C146.210936,165.746094 145.974122,165.665528 145.83252,165.504395 C145.690917,165.343261 145.620117,165.072268 145.620117,164.691406 C145.620117,164.310545 145.690917,164.039552 145.83252,163.878418 C145.974122,163.717284 146.210936,163.636719 146.542969,163.636719 L149.516602,163.636719 L149.516602,159.242188 C149.516602,158.900389 149.599609,158.656251 149.765625,158.509766 C149.931641,158.363281 150.214842,158.290039 150.615234,158.290039 C151.015627,158.290039 151.298827,158.363281 151.464844,158.509766 C151.63086,158.656251 151.713867,158.900389 151.713867,159.242188 L151.713867,163.636719 L157.734375,163.636719 C158.066408,163.636719 158.303222,163.717284 158.444824,163.878418 C158.586426,164.039552 158.657227,164.310545 158.657227,164.691406 C158.657227,165.072268 158.586426,165.343261 158.444824,165.504395 C158.303222,165.665528 158.066408,165.746094 157.734375,165.746094 L151.713867,165.746094 L151.713867,170.960938 C151.713867,172.074224 151.909178,172.889646 152.299805,173.407227 C152.690432,173.924807 153.35937,174.183594 154.306641,174.183594 C154.960941,174.183594 155.64941,174.051759 156.37207,173.788086 C157.09473,173.524413 157.792965,173.172854 158.466797,172.733398 C158.603516,172.635742 158.754882,172.586914 158.920898,172.586914 C159.252931,172.586914 159.536132,172.811521 159.770508,173.260742 Z M175.986328,156.634766 C176.386721,156.634766 176.66748,156.708007 176.828613,156.854492 C176.989747,157.000977 177.070312,157.245115 177.070312,157.586914 L177.070312,175.194336 C177.070312,175.536135 176.997071,175.780273 176.850586,175.926758 C176.704101,176.073243 176.440432,176.146484 176.05957,176.146484 L176.030273,176.146484 C175.649412,176.146484 175.385743,176.073243 175.239258,175.926758 C175.092773,175.780273 175.019531,175.536135 175.019531,175.194336 L175.019531,173.832031 C174.404294,174.632817 173.69141,175.248045 172.880859,175.677734 C172.070308,176.107424 171.186528,176.322266 170.229492,176.322266 C169.018549,176.322266 167.937016,176.036624 166.984863,175.465332 C166.03271,174.89404 165.285647,174.073736 164.743652,173.004395 C164.201657,171.935053 163.930664,170.677742 163.930664,169.232422 C163.930664,167.787102 164.201657,166.529791 164.743652,165.460449 C165.285647,164.391108 166.03271,163.570804 166.984863,162.999512 C167.937016,162.42822 169.018549,162.142578 170.229492,162.142578 C172.065439,162.142578 173.613275,162.948234 174.873047,164.55957 L174.873047,157.586914 C174.873047,157.245115 174.953612,157.000977 175.114746,156.854492 C175.27588,156.708007 175.556639,156.634766 175.957031,156.634766 L175.986328,156.634766 Z M170.375977,164.310547 C169.506832,164.310547 168.757327,164.518064 168.127441,164.933105 C167.497555,165.348147 167.016603,165.929195 166.68457,166.67627 C166.352537,167.423344 166.186523,168.275386 166.186523,169.232422 C166.186523,170.189458 166.352537,171.0415 166.68457,171.788574 C167.016603,172.535648 167.497555,173.116697 168.127441,173.531738 C168.757327,173.946779 169.506832,174.154297 170.375977,174.154297 C171.245122,174.154297 172.01904,173.958986 172.697754,173.568359 C173.376468,173.177732 173.908689,172.611332 174.294434,171.869141 C174.680178,171.126949 174.873047,170.248052 174.873047,169.232422 C174.873047,168.216792 174.680178,167.337894 174.294434,166.595703 C173.908689,165.853512 173.376468,165.287111 172.697754,164.896484 C172.01904,164.505857 171.245122,164.310547 170.375977,164.310547 Z M193.828125,162.318359 C194.228518,162.318359 194.509277,162.391601 194.67041,162.538086 C194.831544,162.684571 194.912109,162.928709 194.912109,163.270508 L194.912109,175.194336 C194.912109,175.536135 194.838868,175.780273 194.692383,175.926758 C194.545898,176.073243 194.282228,176.146484 193.901367,176.146484 L193.87207,176.146484 C193.491209,176.146484 193.22754,176.073243 193.081055,175.926758 C192.93457,175.780273 192.861328,175.536135 192.861328,175.194336 L192.861328,172.806641 C192.197262,173.832036 191.352544,174.674313 190.327148,175.333496 C189.301753,175.992679 188.266607,176.322266 187.22168,176.322266 C185.747063,176.322266 184.604496,175.897465 183.793945,175.047852 C182.983394,174.198238 182.578125,173.031257 182.578125,171.546875 L182.578125,163.270508 C182.578125,162.928709 182.658691,162.684571 182.819824,162.538086 C182.980958,162.391601 183.261717,162.318359 183.662109,162.318359 L183.691406,162.318359 C184.091799,162.318359 184.372558,162.391601 184.533691,162.538086 C184.694825,162.684571 184.775391,162.928709 184.775391,163.270508 L184.775391,171.327148 C184.775391,172.206059 184.992674,172.89697 185.427246,173.399902 C185.861819,173.902835 186.533199,174.154297 187.441406,174.154297 C188.281254,174.154297 189.108883,173.888186 189.924316,173.355957 C190.73975,172.823728 191.408689,172.101079 191.931152,171.187988 C192.453616,170.274898 192.714844,169.281255 192.714844,168.207031 L192.714844,163.270508 C192.714844,162.928709 192.795409,162.684571 192.956543,162.538086 C193.117677,162.391601 193.398435,162.318359 193.798828,162.318359 L193.828125,162.318359 Z M207.392578,162.464844 C207.724611,162.464844 207.961425,162.540527 208.103027,162.691895 C208.24463,162.843262 208.31543,163.099608 208.31543,163.460938 L208.31543,173.890625 L213.017578,173.890625 C213.349611,173.890625 213.586425,173.971191 213.728027,174.132324 C213.86963,174.293458 213.94043,174.564451 213.94043,174.945312 C213.94043,175.326174 213.86963,175.597167 213.728027,175.758301 C213.586425,175.919434 213.349611,176 213.017578,176 L201.533203,176 C201.20117,176 200.964356,175.919434 200.822754,175.758301 C200.681152,175.597167 200.610352,175.326174 200.610352,174.945312 C200.610352,174.564451 200.681152,174.293458 200.822754,174.132324 C200.964356,173.971191 201.20117,173.890625 201.533203,173.890625 L206.118164,173.890625 L206.118164,164.574219 L202.412109,164.574219 C202.080076,164.574219 201.843262,164.493653 201.70166,164.33252 C201.560058,164.171386 201.489258,163.900393 201.489258,163.519531 C201.489258,163.13867 201.560058,162.867677 201.70166,162.706543 C201.843262,162.545409 202.080076,162.464844 202.412109,162.464844 L207.392578,162.464844 Z M208.31543,158.890625 C208.31543,159.242189 208.217774,159.488769 208.022461,159.630371 C207.827147,159.771973 207.46094,159.842773 206.923828,159.842773 C206.386716,159.842773 206.020509,159.771973 205.825195,159.630371 C205.629882,159.488769 205.532227,159.242189 205.532227,158.890625 L205.532227,156.986328 C205.532227,156.634764 205.629882,156.388184 205.825195,156.246582 C206.020509,156.10498 206.386716,156.03418 206.923828,156.03418 C207.46094,156.03418 207.827147,156.10498 208.022461,156.246582 C208.217774,156.388184 208.31543,156.634764 208.31543,156.986328 L208.31543,158.890625 Z M226.508789,162.142578 C227.983406,162.142578 229.125973,162.567379 229.936523,163.416992 C230.747074,164.266606 231.152344,165.433586 231.152344,166.917969 L231.152344,175.194336 C231.152344,175.536135 231.071778,175.780273 230.910645,175.926758 C230.749511,176.073243 230.468752,176.146484 230.068359,176.146484 L230.039062,176.146484 C229.63867,176.146484 229.357911,176.073243 229.196777,175.926758 C229.035644,175.780273 228.955078,175.536135 228.955078,175.194336 L228.955078,167.137695 C228.955078,166.258785 228.737795,165.567874 228.303223,165.064941 C227.86865,164.562009 227.19727,164.310547 226.289062,164.310547 C225.449215,164.310547 224.621586,164.576657 223.806152,165.108887 C222.990719,165.641116 222.32178,166.363765 221.799316,167.276855 C221.276853,168.189946 221.015625,169.183588 221.015625,170.257812 L221.015625,175.194336 C221.015625,175.536135 220.935059,175.780273 220.773926,175.926758 C220.612792,176.073243 220.332033,176.146484 219.931641,176.146484 L219.902344,176.146484 C219.501951,176.146484 219.221192,176.073243 219.060059,175.926758 C218.898925,175.780273 218.818359,175.536135 218.818359,175.194336 L218.818359,163.270508 C218.818359,162.928709 218.891601,162.684571 219.038086,162.538086 C219.184571,162.391601 219.44824,162.318359 219.829102,162.318359 L219.858398,162.318359 C220.23926,162.318359 220.502929,162.391601 220.649414,162.538086 C220.795899,162.684571 220.869141,162.928709 220.869141,163.270508 L220.869141,165.658203 C221.533206,164.632807 222.377925,163.790531 223.40332,163.131348 C224.428716,162.472165 225.463862,162.142578 226.508789,162.142578 Z M242.841797,162.142578 C244.169929,162.142578 245.368647,162.445309 246.437988,163.050781 C247.50733,163.656253 248.347165,164.49853 248.95752,165.577637 C249.567874,166.656744 249.873047,167.874993 249.873047,169.232422 C249.873047,170.589851 249.567874,171.8081 248.95752,172.887207 C248.347165,173.966314 247.50733,174.808591 246.437988,175.414062 C245.368647,176.019534 244.169929,176.322266 242.841797,176.322266 C241.513665,176.322266 240.314947,176.019534 239.245605,175.414062 C238.176264,174.808591 237.336429,173.966314 236.726074,172.887207 C236.11572,171.8081 235.810547,170.589851 235.810547,169.232422 C235.810547,167.874993 236.11572,166.656744 236.726074,165.577637 C237.336429,164.49853 238.176264,163.656253 239.245605,163.050781 C240.314947,162.445309 241.513665,162.142578 242.841797,162.142578 Z M242.841797,164.310547 C241.894527,164.310547 241.059574,164.518064 240.336914,164.933105 C239.614254,165.348147 239.055178,165.929195 238.659668,166.67627 C238.264158,167.423344 238.066406,168.275386 238.066406,169.232422 C238.066406,170.189458 238.264158,171.0415 238.659668,171.788574 C239.055178,172.535648 239.614254,173.116697 240.336914,173.531738 C241.059574,173.946779 241.894527,174.154297 242.841797,174.154297 C243.789067,174.154297 244.62402,173.946779 245.34668,173.531738 C246.06934,173.116697 246.628416,172.535648 247.023926,171.788574 C247.419436,171.0415 247.617188,170.189458 247.617188,169.232422 C247.617188,168.275386 247.419436,167.423344 247.023926,166.67627 C246.628416,165.929195 246.06934,165.348147 245.34668,164.933105 C244.62402,164.518064 243.789067,164.310547 242.841797,164.310547 Z M260.830078,171.605469 C261.533207,171.605469 262.038573,171.676269 262.346191,171.817871 C262.65381,171.959473 262.807617,172.196287 262.807617,172.52832 L262.807617,175.223633 C262.807617,175.555666 262.65381,175.79248 262.346191,175.934082 C262.038573,176.075684 261.533207,176.146484 260.830078,176.146484 C260.12695,176.146484 259.621584,176.075684 259.313965,175.934082 C259.006346,175.79248 258.852539,175.555666 258.852539,175.223633 L258.852539,172.52832 C258.852539,172.196287 259.006346,171.959473 259.313965,171.817871 C259.621584,171.676269 260.12695,171.605469 260.830078,171.605469 Z M284.135742,158.612305 C284.467775,158.612305 284.704589,158.69287 284.846191,158.854004 C284.987794,159.015138 285.058594,159.286131 285.058594,159.666992 C285.058594,160.047853 284.987794,160.318847 284.846191,160.47998 C284.704589,160.641114 284.467775,160.72168 284.135742,160.72168 L275.610352,160.72168 L275.610352,166.566406 L282.451172,166.566406 C282.783205,166.566406 283.020019,166.646972 283.161621,166.808105 C283.303223,166.969239 283.374023,167.240232 283.374023,167.621094 C283.374023,168.001955 283.303223,168.272948 283.161621,168.434082 C283.020019,168.595216 282.783205,168.675781 282.451172,168.675781 L275.610352,168.675781 L275.610352,175.194336 C275.610352,175.536135 275.529786,175.780273 275.368652,175.926758 C275.207519,176.073243 274.92676,176.146484 274.526367,176.146484 L274.49707,176.146484 C274.096678,176.146484 273.815919,176.073243 273.654785,175.926758 C273.493652,175.780273 273.413086,175.536135 273.413086,175.194336 L273.413086,159.608398 C273.413086,159.247069 273.488769,158.990723 273.640137,158.839355 C273.791505,158.687988 274.023436,158.612305 274.335937,158.612305 L284.135742,158.612305 Z M296.806641,162.142578 C298.134772,162.142578 299.333491,162.445309 300.402832,163.050781 C301.472173,163.656253 302.312009,164.49853 302.922363,165.577637 C303.532718,166.656744 303.837891,167.874993 303.837891,169.232422 C303.837891,170.589851 303.532718,171.8081 302.922363,172.887207 C302.312009,173.966314 301.472173,174.808591 300.402832,175.414062 C299.333491,176.019534 298.134772,176.322266 296.806641,176.322266 C295.478509,176.322266 294.279791,176.019534 293.210449,175.414062 C292.141108,174.808591 291.301273,173.966314 290.690918,172.887207 C290.080563,171.8081 289.775391,170.589851 289.775391,169.232422 C289.775391,167.874993 290.080563,166.656744 290.690918,165.577637 C291.301273,164.49853 292.141108,163.656253 293.210449,163.050781 C294.279791,162.445309 295.478509,162.142578 296.806641,162.142578 Z M296.806641,164.310547 C295.85937,164.310547 295.024418,164.518064 294.301758,164.933105 C293.579098,165.348147 293.020022,165.929195 292.624512,166.67627 C292.229002,167.423344 292.03125,168.275386 292.03125,169.232422 C292.03125,170.189458 292.229002,171.0415 292.624512,171.788574 C293.020022,172.535648 293.579098,173.116697 294.301758,173.531738 C295.024418,173.946779 295.85937,174.154297 296.806641,174.154297 C297.753911,174.154297 298.588864,173.946779 299.311523,173.531738 C300.034183,173.116697 300.59326,172.535648 300.98877,171.788574 C301.384279,171.0415 301.582031,170.189458 301.582031,169.232422 C301.582031,168.275386 301.384279,167.423344 300.98877,166.67627 C300.59326,165.929195 300.034183,165.348147 299.311523,164.933105 C298.588864,164.518064 297.753911,164.310547 296.806641,164.310547 Z M319.746094,162.318359 C320.146486,162.318359 320.427245,162.391601 320.588379,162.538086 C320.749513,162.684571 320.830078,162.928709 320.830078,163.270508 L320.830078,175.194336 C320.830078,175.536135 320.756837,175.780273 320.610352,175.926758 C320.463866,176.073243 320.200197,176.146484 319.819336,176.146484 L319.790039,176.146484 C319.409178,176.146484 319.145509,176.073243 318.999023,175.926758 C318.852538,175.780273 318.779297,175.536135 318.779297,175.194336 L318.779297,172.806641 C318.115231,173.832036 317.270513,174.674313 316.245117,175.333496 C315.219721,175.992679 314.184576,176.322266 313.139648,176.322266 C311.665032,176.322266 310.522465,175.897465 309.711914,175.047852 C308.901363,174.198238 308.496094,173.031257 308.496094,171.546875 L308.496094,163.270508 C308.496094,162.928709 308.576659,162.684571 308.737793,162.538086 C308.898927,162.391601 309.179685,162.318359 309.580078,162.318359 L309.609375,162.318359 C310.009768,162.318359 310.290527,162.391601 310.45166,162.538086 C310.612794,162.684571 310.693359,162.928709 310.693359,163.270508 L310.693359,171.327148 C310.693359,172.206059 310.910642,172.89697 311.345215,173.399902 C311.779787,173.902835 312.451167,174.154297 313.359375,174.154297 C314.199223,174.154297 315.026851,173.888186 315.842285,173.355957 C316.657719,172.823728 317.326658,172.101079 317.849121,171.187988 C318.371585,170.274898 318.632812,169.281255 318.632812,168.207031 L318.632812,163.270508 C318.632812,162.928709 318.713378,162.684571 318.874512,162.538086 C319.035645,162.391601 319.316404,162.318359 319.716797,162.318359 L319.746094,162.318359 Z M334.438477,162.142578 C335.913093,162.142578 337.05566,162.567379 337.866211,163.416992 C338.676762,164.266606 339.082031,165.433586 339.082031,166.917969 L339.082031,175.194336 C339.082031,175.536135 339.001466,175.780273 338.840332,175.926758 C338.679198,176.073243 338.39844,176.146484 337.998047,176.146484 L337.96875,176.146484 C337.568357,176.146484 337.287598,176.073243 337.126465,175.926758 C336.965331,175.780273 336.884766,175.536135 336.884766,175.194336 L336.884766,167.137695 C336.884766,166.258785 336.667483,165.567874 336.23291,165.064941 C335.798338,164.562009 335.126958,164.310547 334.21875,164.310547 C333.378902,164.310547 332.551274,164.576657 331.73584,165.108887 C330.920406,165.641116 330.251467,166.363765 329.729004,167.276855 C329.20654,168.189946 328.945312,169.183588 328.945312,170.257812 L328.945312,175.194336 C328.945312,175.536135 328.864747,175.780273 328.703613,175.926758 C328.54248,176.073243 328.261721,176.146484 327.861328,176.146484 L327.832031,176.146484 C327.431639,176.146484 327.15088,176.073243 326.989746,175.926758 C326.828612,175.780273 326.748047,175.536135 326.748047,175.194336 L326.748047,163.270508 C326.748047,162.928709 326.821288,162.684571 326.967773,162.538086 C327.114259,162.391601 327.377928,162.318359 327.758789,162.318359 L327.788086,162.318359 C328.168947,162.318359 328.432616,162.391601 328.579102,162.538086 C328.725587,162.684571 328.798828,162.928709 328.798828,163.270508 L328.798828,165.658203 C329.462894,164.632807 330.307612,163.790531 331.333008,163.131348 C332.358404,162.472165 333.393549,162.142578 334.438477,162.142578 Z M355.869141,156.634766 C356.269533,156.634766 356.550292,156.708007 356.711426,156.854492 C356.872559,157.000977 356.953125,157.245115 356.953125,157.586914 L356.953125,175.194336 C356.953125,175.536135 356.879884,175.780273 356.733398,175.926758 C356.586913,176.073243 356.323244,176.146484 355.942383,176.146484 L355.913086,176.146484 C355.532225,176.146484 355.268555,176.073243 355.12207,175.926758 C354.975585,175.780273 354.902344,175.536135 354.902344,175.194336 L354.902344,173.832031 C354.287106,174.632817 353.574223,175.248045 352.763672,175.677734 C351.953121,176.107424 351.069341,176.322266 350.112305,176.322266 C348.901361,176.322266 347.819829,176.036624 346.867676,175.465332 C345.915523,174.89404 345.16846,174.073736 344.626465,173.004395 C344.08447,171.935053 343.813477,170.677742 343.813477,169.232422 C343.813477,167.787102 344.08447,166.529791 344.626465,165.460449 C345.16846,164.391108 345.915523,163.570804 346.867676,162.999512 C347.819829,162.42822 348.901361,162.142578 350.112305,162.142578 C351.948251,162.142578 353.496087,162.948234 354.755859,164.55957 L354.755859,157.586914 C354.755859,157.245115 354.836425,157.000977 354.997559,156.854492 C355.158692,156.708007 355.439451,156.634766 355.839844,156.634766 L355.869141,156.634766 Z M350.258789,164.310547 C349.389644,164.310547 348.64014,164.518064 348.010254,164.933105 C347.380368,165.348147 346.899416,165.929195 346.567383,166.67627 C346.23535,167.423344 346.069336,168.275386 346.069336,169.232422 C346.069336,170.189458 346.23535,171.0415 346.567383,171.788574 C346.899416,172.535648 347.380368,173.116697 348.010254,173.531738 C348.64014,173.946779 349.389644,174.154297 350.258789,174.154297 C351.127934,174.154297 351.901852,173.958986 352.580566,173.568359 C353.259281,173.177732 353.791502,172.611332 354.177246,171.869141 C354.56299,171.126949 354.755859,170.248052 354.755859,169.232422 C354.755859,168.216792 354.56299,167.337894 354.177246,166.595703 C353.791502,165.853512 353.259281,165.287111 352.580566,164.896484 C351.901852,164.505857 351.127934,164.310547 350.258789,164.310547 Z M369.111328,162.142578 C370.947275,162.142578 372.324214,162.55273 373.242188,163.373047 C374.160161,164.193363 374.619141,165.409172 374.619141,167.020508 L374.619141,175.194336 C374.619141,175.536135 374.545899,175.780273 374.399414,175.926758 C374.252929,176.073243 373.98926,176.146484 373.608398,176.146484 L373.579102,176.146484 C373.19824,176.146484 372.934571,176.073243 372.788086,175.926758 C372.641601,175.780273 372.568359,175.536135 372.568359,175.194336 L372.568359,174.198242 C371.77734,174.872074 370.920415,175.394529 369.997559,175.765625 C369.074702,176.136721 368.100591,176.322266 367.075195,176.322266 C366.098628,176.322266 365.234379,176.15381 364.482422,175.816895 C363.730465,175.479979 363.144533,174.989261 362.724609,174.344727 C362.304685,173.700192 362.094727,172.933598 362.094727,172.044922 C362.094727,170.49218 362.639155,169.349613 363.728027,168.617188 C364.8169,167.884762 366.23046,167.518555 367.96875,167.518555 C369.521492,167.518555 371.005852,167.767576 372.421875,168.265625 L372.421875,167.020508 C372.421875,166.073237 372.155764,165.377444 371.623535,164.933105 C371.091306,164.488767 370.234381,164.266602 369.052734,164.266602 C368.320309,164.266602 367.558598,164.36914 366.767578,164.574219 C365.976559,164.779298 365.224613,165.062498 364.511719,165.423828 C364.355468,165.511719 364.204102,165.555664 364.057617,165.555664 C363.745116,165.555664 363.476564,165.321291 363.251953,164.852539 C363.144531,164.618163 363.09082,164.422852 363.09082,164.266602 C363.09082,163.924803 363.271483,163.661134 363.632812,163.475586 C364.453129,163.045896 365.334468,162.71631 366.276855,162.486816 C367.219243,162.257323 368.164058,162.142578 369.111328,162.142578 Z M367.163086,174.256836 C369.106455,174.256836 370.859367,173.45118 372.421875,171.839844 L372.421875,170.243164 C371.757809,170.028319 371.044926,169.864747 370.283203,169.752441 C369.521481,169.640136 368.754887,169.583984 367.983398,169.583984 C366.860346,169.583984 365.974124,169.776854 365.324707,170.162598 C364.67529,170.548342 364.350586,171.161129 364.350586,172.000977 C364.350586,172.713871 364.597166,173.268064 365.090332,173.663574 C365.583499,174.059084 366.27441,174.256836 367.163086,174.256836 Z M393.618164,173.260742 C393.745118,173.51465 393.808594,173.734374 393.808594,173.919922 C393.808594,174.232423 393.647463,174.486327 393.325195,174.681641 C392.563473,175.160159 391.713872,175.553221 390.776367,175.86084 C389.838863,176.168459 388.964848,176.322266 388.154297,176.322266 C386.494132,176.322266 385.280766,175.890141 384.51416,175.025879 C383.747555,174.161617 383.364258,172.870126 383.364258,171.151367 L383.364258,165.746094 L380.390625,165.746094 C380.058592,165.746094 379.821778,165.665528 379.680176,165.504395 C379.538574,165.343261 379.467773,165.072268 379.467773,164.691406 C379.467773,164.310545 379.538574,164.039552 379.680176,163.878418 C379.821778,163.717284 380.058592,163.636719 380.390625,163.636719 L383.364258,163.636719 L383.364258,159.242188 C383.364258,158.900389 383.447265,158.656251 383.613281,158.509766 C383.779298,158.363281 384.062498,158.290039 384.462891,158.290039 C384.863283,158.290039 385.146484,158.363281 385.3125,158.509766 C385.478516,158.656251 385.561523,158.900389 385.561523,159.242188 L385.561523,163.636719 L391.582031,163.636719 C391.914064,163.636719 392.150878,163.717284 392.29248,163.878418 C392.434083,164.039552 392.504883,164.310545 392.504883,164.691406 C392.504883,165.072268 392.434083,165.343261 392.29248,165.504395 C392.150878,165.665528 391.914064,165.746094 391.582031,165.746094 L385.561523,165.746094 L385.561523,170.960938 C385.561523,172.074224 385.756834,172.889646 386.147461,173.407227 C386.538088,173.924807 387.207027,174.183594 388.154297,174.183594 C388.808597,174.183594 389.497067,174.051759 390.219727,173.788086 C390.942386,173.524413 391.640622,173.172854 392.314453,172.733398 C392.451173,172.635742 392.602538,172.586914 392.768555,172.586914 C393.100588,172.586914 393.383788,172.811521 393.618164,173.260742 Z M405.263672,162.464844 C405.595705,162.464844 405.832519,162.540527 405.974121,162.691895 C406.115723,162.843262 406.186523,163.099608 406.186523,163.460938 L406.186523,173.890625 L410.888672,173.890625 C411.220705,173.890625 411.457519,173.971191 411.599121,174.132324 C411.740723,174.293458 411.811523,174.564451 411.811523,174.945312 C411.811523,175.326174 411.740723,175.597167 411.599121,175.758301 C411.457519,175.919434 411.220705,176 410.888672,176 L399.404297,176 C399.072264,176 398.83545,175.919434 398.693848,175.758301 C398.552245,175.597167 398.481445,175.326174 398.481445,174.945312 C398.481445,174.564451 398.552245,174.293458 398.693848,174.132324 C398.83545,173.971191 399.072264,173.890625 399.404297,173.890625 L403.989258,173.890625 L403.989258,164.574219 L400.283203,164.574219 C399.95117,164.574219 399.714356,164.493653 399.572754,164.33252 C399.431152,164.171386 399.360352,163.900393 399.360352,163.519531 C399.360352,163.13867 399.431152,162.867677 399.572754,162.706543 C399.714356,162.545409 399.95117,162.464844 400.283203,162.464844 L405.263672,162.464844 Z M406.186523,158.890625 C406.186523,159.242189 406.088868,159.488769 405.893555,159.630371 C405.698241,159.771973 405.332034,159.842773 404.794922,159.842773 C404.25781,159.842773 403.891603,159.771973 403.696289,159.630371 C403.500976,159.488769 403.40332,159.242189 403.40332,158.890625 L403.40332,156.986328 C403.40332,156.634764 403.500976,156.388184 403.696289,156.246582 C403.891603,156.10498 404.25781,156.03418 404.794922,156.03418 C405.332034,156.03418 405.698241,156.10498 405.893555,156.246582 C406.088868,156.388184 406.186523,156.634764 406.186523,156.986328 L406.186523,158.890625 Z M422.724609,162.142578 C424.052741,162.142578 425.251459,162.445309 426.320801,163.050781 C427.390142,163.656253 428.229977,164.49853 428.840332,165.577637 C429.450687,166.656744 429.755859,167.874993 429.755859,169.232422 C429.755859,170.589851 429.450687,171.8081 428.840332,172.887207 C428.229977,173.966314 427.390142,174.808591 426.320801,175.414062 C425.251459,176.019534 424.052741,176.322266 422.724609,176.322266 C421.396478,176.322266 420.197759,176.019534 419.128418,175.414062 C418.059077,174.808591 417.219241,173.966314 416.608887,172.887207 C415.998532,171.8081 415.693359,170.589851 415.693359,169.232422 C415.693359,167.874993 415.998532,166.656744 416.608887,165.577637 C417.219241,164.49853 418.059077,163.656253 419.128418,163.050781 C420.197759,162.445309 421.396478,162.142578 422.724609,162.142578 Z M422.724609,164.310547 C421.777339,164.310547 420.942386,164.518064 420.219727,164.933105 C419.497067,165.348147 418.93799,165.929195 418.54248,166.67627 C418.146971,167.423344 417.949219,168.275386 417.949219,169.232422 C417.949219,170.189458 418.146971,171.0415 418.54248,171.788574 C418.93799,172.535648 419.497067,173.116697 420.219727,173.531738 C420.942386,173.946779 421.777339,174.154297 422.724609,174.154297 C423.67188,174.154297 424.506832,173.946779 425.229492,173.531738 C425.952152,173.116697 426.511228,172.535648 426.906738,171.788574 C427.302248,171.0415 427.5,170.189458 427.5,169.232422 C427.5,168.275386 427.302248,167.423344 426.906738,166.67627 C426.511228,165.929195 425.952152,165.348147 425.229492,164.933105 C424.506832,164.518064 423.67188,164.310547 422.724609,164.310547 Z M442.368164,162.142578 C443.842781,162.142578 444.985348,162.567379 445.795898,163.416992 C446.606449,164.266606 447.011719,165.433586 447.011719,166.917969 L447.011719,175.194336 C447.011719,175.536135 446.931153,175.780273 446.77002,175.926758 C446.608886,176.073243 446.328127,176.146484 445.927734,176.146484 L445.898438,176.146484 C445.498045,176.146484 445.217286,176.073243 445.056152,175.926758 C444.895019,175.780273 444.814453,175.536135 444.814453,175.194336 L444.814453,167.137695 C444.814453,166.258785 444.59717,165.567874 444.162598,165.064941 C443.728025,164.562009 443.056645,164.310547 442.148438,164.310547 C441.30859,164.310547 440.480961,164.576657 439.665527,165.108887 C438.850094,165.641116 438.181155,166.363765 437.658691,167.276855 C437.136228,168.189946 436.875,169.183588 436.875,170.257812 L436.875,175.194336 C436.875,175.536135 436.794434,175.780273 436.633301,175.926758 C436.472167,176.073243 436.191408,176.146484 435.791016,176.146484 L435.761719,176.146484 C435.361326,176.146484 435.080567,176.073243 434.919434,175.926758 C434.7583,175.780273 434.677734,175.536135 434.677734,175.194336 L434.677734,163.270508 C434.677734,162.928709 434.750976,162.684571 434.897461,162.538086 C435.043946,162.391601 435.307615,162.318359 435.688477,162.318359 L435.717773,162.318359 C436.098635,162.318359 436.362304,162.391601 436.508789,162.538086 C436.655274,162.684571 436.728516,162.928709 436.728516,163.270508 L436.728516,165.658203 C437.392581,164.632807 438.2373,163.790531 439.262695,163.131348 C440.288091,162.472165 441.323237,162.142578 442.368164,162.142578 Z M458.701172,162.318359 C459.4043,162.318359 459.909666,162.389159 460.217285,162.530762 C460.524904,162.672364 460.678711,162.909178 460.678711,163.241211 L460.678711,165.936523 C460.678711,166.268556 460.524904,166.50537 460.217285,166.646973 C459.909666,166.788575 459.4043,166.859375 458.701172,166.859375 C457.998043,166.859375 457.492677,166.788575 457.185059,166.646973 C456.87744,166.50537 456.723633,166.268556 456.723633,165.936523 L456.723633,163.241211 C456.723633,162.909178 456.87744,162.672364 457.185059,162.530762 C457.492677,162.389159 457.998043,162.318359 458.701172,162.318359 Z M460.458984,171.693359 C460.625001,171.693359 460.751953,171.739746 460.839844,171.83252 C460.927735,171.925293 460.97168,172.044921 460.97168,172.191406 C460.97168,172.328126 460.9375,172.469726 460.869141,172.616211 L457.763672,179.706055 C457.58789,180.106447 457.167972,180.306641 456.503906,180.306641 C455.800778,180.306641 455.449219,180.062502 455.449219,179.574219 C455.449219,179.535156 455.458984,179.457032 455.478516,179.339844 L456.855469,172.279297 C456.894531,172.093749 456.97998,171.949708 457.111816,171.847168 C457.243653,171.744628 457.412108,171.693359 457.617188,171.693359 L460.458984,171.693359 Z" id="using-Netduino.Found-Copy" fill="#B09679" opacity="0.508208786"></path>
                <g id="Circiut" opacity="0.43993433" transform="translate(266.000000, 0.000000)" fill="#555555">
                    <path d="M230.188,174.113 C230.094,174.019 229.967,173.966 229.834,173.966 L213.648,173.966 L206.61,166.927 C207.026,166.366 207.28,165.679 207.28,164.928 C207.28,163.066 205.765,161.551 203.902,161.551 C202.04,161.551 200.526,163.066 200.526,164.928 C200.526,166.791 202.04,168.306 203.902,168.306 C204.654,168.306 205.341,168.051 205.904,167.635 L213.087,174.82 C213.181,174.914 213.308,174.966 213.441,174.966 L229.627,174.966 L241.317,186.657 C241.41,186.75 241.537,186.803 241.67,186.803 L284.088,186.803 L284.088,185.803 L241.877,185.803 L230.188,174.113 Z M201.45,164.928 C201.45,163.577 202.55,162.476 203.902,162.476 C205.255,162.476 206.355,163.577 206.355,164.928 C206.355,166.281 205.255,167.381 203.902,167.381 C202.55,167.381 201.45,166.281 201.45,164.928 Z" id="Fill-34"></path>
                    <path d="M225.862,150.005 C225.769,149.912 225.642,149.859 225.509,149.859 L70.563,149.859 L50.58,129.876 C50.486,129.783 50.36,129.73 50.227,129.73 L43.814,129.73 L36.935,122.852 C37.351,122.291 37.606,121.603 37.606,120.853 C37.606,118.991 36.091,117.475 34.229,117.475 C32.366,117.475 30.852,118.991 30.852,120.853 C30.852,122.715 32.366,124.23 34.229,124.23 C34.98,124.23 35.667,123.975 36.228,123.559 L43.253,130.584 C43.347,130.677 43.474,130.73 43.607,130.73 L50.02,130.73 L70.002,150.712 C70.096,150.806 70.223,150.859 70.356,150.859 L225.302,150.859 L240.835,166.392 C240.929,166.486 241.056,166.539 241.189,166.539 L284.088,166.539 L284.088,165.539 L241.396,165.539 L225.862,150.005 Z M31.777,120.853 C31.777,119.501 32.876,118.401 34.229,118.401 C35.581,118.401 36.681,119.501 36.681,120.853 C36.681,122.205 35.581,123.304 34.229,123.304 C32.876,123.304 31.777,122.205 31.777,120.853 Z" id="Fill-37"></path>
                    <path d="M228.043,144.184 C227.95,144.099 227.829,144.052 227.704,144.052 L72.415,144.052 L51.209,122.847 C51.623,122.288 51.876,121.601 51.876,120.853 C51.876,118.991 50.36,117.475 48.499,117.475 C46.636,117.475 45.122,118.991 45.122,120.853 C45.122,122.715 46.636,124.23 48.499,124.23 C49.251,124.23 49.941,123.973 50.503,123.555 L71.855,144.906 C71.948,144.999 72.075,145.052 72.208,145.052 L227.509,145.052 L241.518,157.961 C241.61,158.046 241.732,158.093 241.857,158.093 L284.088,158.093 L284.088,157.093 L242.052,157.093 L228.043,144.184 Z M46.047,120.853 C46.047,119.501 47.147,118.401 48.499,118.401 C49.851,118.401 50.95,119.501 50.95,120.853 C50.95,122.205 49.851,123.304 48.499,123.304 C47.147,123.304 46.047,122.205 46.047,120.853 Z" id="Fill-38"></path>
                    <path d="M208.267,114.813 C208.173,114.719 208.046,114.667 207.913,114.667 L56.856,114.667 L51.506,109.317 C51.412,109.223 51.285,109.17 51.153,109.17 L40.186,109.17 L34.452,103.438 C34.629,103.029 34.729,102.58 34.729,102.106 C34.729,100.245 33.214,98.729 31.352,98.729 C29.49,98.729 27.974,100.245 27.974,102.106 C27.974,103.968 29.49,105.484 31.352,105.484 C32.373,105.484 33.279,105.018 33.9,104.298 L39.625,110.024 C39.719,110.118 39.846,110.17 39.979,110.17 L50.946,110.17 L56.295,115.52 C56.389,115.614 56.516,115.667 56.649,115.667 L207.706,115.667 L240.835,148.796 C240.929,148.89 241.056,148.943 241.189,148.943 L284.088,148.943 L284.088,147.943 L241.396,147.943 L208.267,114.813 Z M31.352,104.558 C29.999,104.558 28.9,103.459 28.9,102.106 C28.9,100.754 29.999,99.655 31.352,99.655 C32.704,99.655 33.804,100.754 33.804,102.106 C33.804,103.459 32.704,104.558 31.352,104.558 Z" id="Fill-39"></path>
                    <path d="M210.643,108.529 C210.549,108.435 210.422,108.382 210.289,108.382 L59.927,108.382 L53.298,101.752 C53.204,101.659 53.077,101.606 52.945,101.606 L48.948,101.606 C48.704,99.982 47.312,98.729 45.622,98.729 C43.76,98.729 42.245,100.245 42.245,102.106 C42.245,103.968 43.76,105.484 45.622,105.484 C47.313,105.484 48.704,104.23 48.948,102.606 L52.738,102.606 L59.366,109.236 C59.46,109.33 59.587,109.382 59.72,109.382 L210.082,109.382 L240.833,140.132 C240.927,140.226 241.054,140.279 241.187,140.279 L284.088,140.279 L284.088,139.279 L241.394,139.279 L210.643,108.529 Z M45.622,104.558 C44.27,104.558 43.17,103.459 43.17,102.106 C43.17,100.754 44.27,99.655 45.622,99.655 C46.974,99.655 48.073,100.754 48.073,102.106 C48.073,103.459 46.974,104.558 45.622,104.558 Z" id="Fill-40"></path>
                    <path d="M69.341,123.73 C69.341,125.42 70.594,126.812 72.218,127.056 L72.218,128.114 C72.218,128.247 72.271,128.373 72.365,128.467 L76.855,132.958 C76.948,133.052 77.075,133.105 77.208,133.105 L90.452,133.105 C90.585,133.105 90.712,133.052 90.806,132.958 L96.31,127.457 L155.008,127.457 C155.122,129.217 156.575,130.619 158.362,130.619 C160.226,130.619 161.74,129.103 161.74,127.24 C161.74,125.378 160.226,123.864 158.362,123.864 C156.772,123.864 155.443,124.973 155.087,126.457 L96.103,126.457 C95.97,126.457 95.843,126.509 95.749,126.603 L90.245,132.105 L77.415,132.105 L73.218,127.907 L73.218,127.056 C74.842,126.812 76.095,125.42 76.095,123.73 C76.095,121.868 74.58,120.353 72.718,120.353 C70.857,120.353 69.341,121.868 69.341,123.73 Z M158.362,124.789 C159.715,124.789 160.816,125.888 160.816,127.24 C160.816,128.592 159.715,129.693 158.362,129.693 C157.011,129.693 155.911,128.592 155.911,127.24 C155.911,125.888 157.011,124.789 158.362,124.789 Z M75.17,123.73 C75.17,125.082 74.069,126.181 72.718,126.181 C71.366,126.181 70.267,125.082 70.267,123.73 C70.267,122.377 71.366,121.278 72.718,121.278 C74.069,121.278 75.17,122.377 75.17,123.73 Z" id="Fill-41"></path>
                    <path d="M204.442,92.291 C204.348,92.197 204.221,92.144 204.088,92.144 L19.188,92.144 C19.055,92.144 18.928,92.197 18.834,92.291 L14.156,96.967 C14.063,97.061 14.01,97.188 14.01,97.321 L14.01,115.01 C14.01,115.143 14.063,115.27 14.156,115.364 L17.48,118.687 C16.984,119.275 16.672,120.025 16.672,120.853 C16.672,122.715 18.187,124.23 20.049,124.23 C21.911,124.23 23.426,122.715 23.426,120.853 C23.426,118.991 21.911,117.475 20.049,117.475 C19.376,117.475 18.753,117.678 18.226,118.019 L15.01,114.803 L15.01,97.528 L19.395,93.144 L203.881,93.144 L240.206,129.468 C240.3,129.562 240.427,129.615 240.56,129.615 L284.088,129.615 L284.088,128.615 L240.767,128.615 L204.442,92.291 Z M22.501,120.853 C22.501,122.205 21.402,123.304 20.049,123.304 C18.697,123.304 17.597,122.205 17.597,120.853 C17.597,119.501 18.697,118.401 20.049,118.401 C21.402,118.401 22.501,119.501 22.501,120.853 Z" id="Fill-42"></path>
                    <path d="M206.596,85.551 C206.502,85.458 206.375,85.405 206.242,85.405 L17.197,85.405 C17.064,85.405 16.937,85.458 16.843,85.551 L8.728,93.667 C8.634,93.761 8.581,93.888 8.581,94.021 L8.581,116.377 L6.575,118.383 C5.972,117.825 5.172,117.475 4.287,117.475 C2.425,117.475 0.91,118.991 0.91,120.853 C0.91,122.715 2.425,124.23 4.287,124.23 C6.15,124.23 7.665,122.715 7.665,120.853 C7.665,120.239 7.487,119.669 7.199,119.172 L9.435,116.938 C9.528,116.844 9.581,116.717 9.581,116.584 L9.581,94.228 L17.403,86.405 L206.035,86.405 L240.835,121.207 C240.929,121.3 241.056,121.353 241.189,121.353 L284.088,121.353 L284.088,120.353 L241.396,120.353 L206.596,85.551 Z M6.74,120.853 C6.74,122.205 5.64,123.304 4.287,123.304 C2.935,123.304 1.835,122.205 1.835,120.853 C1.835,119.501 2.935,118.401 4.287,118.401 C5.64,118.401 6.74,119.501 6.74,120.853 Z" id="Fill-43"></path>
                    <path d="M202.587,0.371 C202.493,0.278 202.367,0.226 202.235,0.226 L43.96,0.226 C43.827,0.226 43.7,0.279 43.607,0.373 L19.251,24.729 C19.157,24.823 19.105,24.95 19.105,25.083 L19.105,29.165 C17.48,29.41 16.227,30.8 16.227,32.492 C16.227,34.353 17.741,35.869 19.605,35.869 C21.466,35.869 22.982,34.353 22.982,32.492 C22.982,30.8 21.728,29.41 20.105,29.165 L20.105,25.29 L44.167,1.226 L202.03,1.226 L240.837,39.59 C240.931,39.683 241.058,39.735 241.189,39.735 L284.088,39.735 L284.088,38.735 L241.395,38.735 L202.587,0.371 Z M22.056,32.492 C22.056,33.843 20.956,34.943 19.605,34.943 C18.252,34.943 17.152,33.843 17.152,32.492 C17.152,31.14 18.252,30.041 19.605,30.041 C20.956,30.041 22.056,31.14 22.056,32.492 Z" id="Fill-44"></path>
                    <path d="M202.432,7.105 C202.338,7.011 202.211,6.958 202.078,6.958 L46.648,6.958 C46.515,6.958 46.388,7.011 46.294,7.105 L27.07,26.329 C26.976,26.422 26.923,26.549 26.923,26.682 L26.923,29.291 C25.565,29.729 24.572,30.99 24.572,32.492 C24.572,34.353 26.087,35.869 27.949,35.869 C29.812,35.869 31.326,34.353 31.326,32.492 C31.326,30.629 29.812,29.115 27.949,29.115 C27.941,29.115 27.932,29.118 27.923,29.118 L27.923,26.889 L46.855,7.959 L201.871,7.959 L240.835,46.922 C240.929,47.016 241.056,47.069 241.189,47.069 L284.088,47.069 L284.088,46.069 L241.396,46.069 L202.432,7.105 Z M30.402,32.492 C30.402,33.843 29.302,34.943 27.949,34.943 C26.597,34.943 25.497,33.843 25.497,32.492 C25.497,31.14 26.597,30.041 27.949,30.041 C29.302,30.041 30.402,31.14 30.402,32.492 Z" id="Fill-45"></path>
                    <path d="M200.366,17.049 C200.273,16.956 200.146,16.903 200.013,16.903 L57.304,16.903 C57.171,16.903 57.044,16.956 56.95,17.049 L45.568,28.434 C45.474,28.528 45.421,28.655 45.421,28.788 L45.421,35.819 L34.413,46.827 C33.853,46.411 33.165,46.156 32.414,46.156 C30.552,46.156 29.036,47.67 29.036,49.533 C29.036,51.395 30.552,52.91 32.414,52.91 C34.277,52.91 35.791,51.395 35.791,49.533 C35.791,48.782 35.536,48.095 35.12,47.534 L46.275,36.379 C46.368,36.286 46.421,36.159 46.421,36.026 L46.421,28.995 L57.511,17.903 L199.806,17.903 L240.573,58.67 C240.666,58.764 240.793,58.817 240.926,58.817 L284.088,58.817 L284.088,57.817 L241.133,57.817 L200.366,17.049 Z M34.866,49.533 C34.866,50.885 33.767,51.985 32.414,51.985 C31.062,51.985 29.962,50.885 29.962,49.533 C29.962,48.181 31.062,47.081 32.414,47.081 C33.767,47.081 34.866,48.181 34.866,49.533 Z" id="Fill-46"></path>
                    <path d="M197.525,22.941 C197.431,22.847 197.304,22.794 197.171,22.794 L61.095,22.794 C60.962,22.794 60.835,22.847 60.741,22.941 L51.79,31.892 C51.697,31.986 51.644,32.113 51.644,32.246 L51.644,39.028 L44.222,46.449 C43.803,46.263 43.343,46.156 42.857,46.156 C40.995,46.156 39.48,47.67 39.48,49.533 C39.48,51.395 40.995,52.91 42.857,52.91 C44.719,52.91 46.234,51.395 46.234,49.533 C46.234,48.524 45.78,47.627 45.077,47.008 L52.497,39.588 C52.591,39.495 52.644,39.368 52.644,39.235 L52.644,32.453 L61.302,23.794 L196.964,23.794 L240.835,67.667 C240.929,67.761 241.056,67.814 241.189,67.814 L284.088,67.814 L284.088,66.814 L241.396,66.814 L197.525,22.941 Z M45.309,49.533 C45.309,50.885 44.208,51.985 42.857,51.985 C41.505,51.985 40.405,50.885 40.405,49.533 C40.405,48.181 41.505,47.081 42.857,47.081 C44.208,47.081 45.309,48.181 45.309,49.533 Z" id="Fill-47"></path>
                    <path d="M207.22,47.975 C207.126,47.881 206.999,47.829 206.866,47.829 L60.817,47.829 C60.684,47.829 60.557,47.881 60.463,47.975 L48.259,60.179 C47.741,59.856 47.136,59.662 46.484,59.662 C44.621,59.662 43.107,61.176 43.107,63.039 C43.107,64.901 44.621,66.416 46.484,66.416 C48.345,66.416 49.86,64.901 49.86,63.039 C49.86,62.192 49.536,61.426 49.019,60.832 L61.024,48.829 L206.659,48.829 L240.484,82.653 C240.577,82.747 240.704,82.799 240.837,82.799 L284.088,82.799 L284.088,81.799 L241.044,81.799 L207.22,47.975 Z M48.935,63.039 C48.935,64.391 47.835,65.491 46.484,65.491 C45.131,65.491 44.031,64.391 44.031,63.039 C44.031,61.687 45.131,60.586 46.484,60.586 C47.835,60.586 48.935,61.687 48.935,63.039 Z" id="Fill-48"></path>
                    <path d="M204.84,53.781 C204.746,53.687 204.619,53.634 204.487,53.634 L63.688,53.634 C63.555,53.634 63.428,53.687 63.334,53.781 L58.743,58.373 C58.646,58.47 58.597,58.598 58.597,58.726 C58.597,58.854 58.646,58.982 58.743,59.08 L60.293,60.629 C59.877,61.191 59.622,61.878 59.622,62.629 C59.622,64.492 61.138,66.006 63,66.006 C64.862,66.006 66.377,64.492 66.377,62.629 C66.377,60.767 64.862,59.252 63,59.252 C62.249,59.252 61.562,59.506 61,59.922 L59.804,58.726 L63.895,54.634 L204.279,54.634 L240.835,91.191 C240.929,91.285 241.056,91.337 241.189,91.337 L284.088,91.337 L284.088,90.337 L241.396,90.337 L204.84,53.781 Z M65.452,62.629 C65.452,63.982 64.353,65.082 63,65.082 C61.648,65.082 60.548,63.982 60.548,62.629 C60.548,61.278 61.648,60.177 63,60.177 C64.353,60.177 65.452,61.278 65.452,62.629 Z" id="Fill-49"></path>
                    <path d="M199.811,60.848 C199.717,60.754 199.59,60.702 199.457,60.702 L77.208,60.702 C77.075,60.702 76.948,60.754 76.855,60.848 L68.296,69.408 L53.685,69.408 C53.552,69.408 53.425,69.46 53.331,69.554 L48.572,74.314 C47.995,73.855 47.276,73.569 46.484,73.569 C44.621,73.569 43.107,75.084 43.107,76.946 C43.107,78.808 44.621,80.323 46.484,80.323 C48.345,80.323 49.86,78.808 49.86,76.946 C49.86,76.237 49.638,75.581 49.264,75.037 L53.892,70.408 L68.503,70.408 C68.636,70.408 68.763,70.355 68.857,70.261 L77.415,61.702 L199.25,61.702 L241.059,103.51 C241.153,103.604 241.279,103.657 241.412,103.657 L284.088,103.657 L284.088,102.657 L241.619,102.657 L199.811,60.848 Z M48.935,76.946 C48.935,78.297 47.835,79.397 46.484,79.397 C45.131,79.397 44.031,78.297 44.031,76.946 C44.031,75.594 45.131,74.494 46.484,74.494 C47.835,74.494 48.935,75.594 48.935,76.946 Z" id="Fill-50"></path>
                    <path d="M196.579,65.562 C196.485,65.468 196.359,65.416 196.226,65.416 L80.359,65.416 C80.226,65.416 80.099,65.468 80.005,65.562 L70.191,75.377 L64.615,75.377 C64.482,75.377 64.355,75.429 64.261,75.523 L63.578,76.205 C63.017,75.789 62.329,75.535 61.578,75.535 C59.716,75.535 58.201,77.049 58.201,78.911 C58.201,80.773 59.716,82.288 61.578,82.288 C63.441,82.288 64.956,80.773 64.956,78.911 C64.956,78.161 64.701,77.473 64.285,76.912 L64.822,76.376 L70.398,76.376 C70.53,76.376 70.657,76.324 70.751,76.23 L80.566,66.416 L196.019,66.416 L240.835,111.233 C240.929,111.327 241.056,111.379 241.189,111.379 L284.088,111.379 L284.088,110.379 L241.396,110.379 L196.579,65.562 Z M64.03,78.911 C64.03,80.263 62.931,81.363 61.578,81.363 C60.226,81.363 59.126,80.263 59.126,78.911 C59.126,77.559 60.226,76.459 61.578,76.459 C62.931,76.459 64.03,77.559 64.03,78.911 Z" id="Fill-51"></path>
                    <path d="M61.238,123.73 C61.238,125.42 62.49,126.812 64.115,127.056 L64.115,129.365 C64.115,129.498 64.167,129.624 64.261,129.718 L73.707,139.165 C73.801,139.258 73.928,139.311 74.061,139.311 L94.435,139.311 C94.568,139.311 94.694,139.258 94.788,139.165 L98.531,135.42 L163.154,135.42 C163.286,135.42 163.413,135.369 163.507,135.275 L169.13,129.652 C169.74,130.248 170.571,130.619 171.488,130.619 C173.351,130.619 174.865,129.103 174.865,127.24 C174.865,125.378 173.351,123.864 171.488,123.864 C169.626,123.864 168.11,125.378 168.11,127.24 C168.11,127.821 168.272,128.359 168.531,128.837 L162.946,134.421 L98.324,134.421 C98.192,134.421 98.065,134.474 97.971,134.568 L94.228,138.311 L74.268,138.311 L65.115,129.158 L65.115,127.056 C66.737,126.812 67.991,125.42 67.991,123.73 C67.991,121.868 66.476,120.353 64.615,120.353 C62.751,120.353 61.238,121.868 61.238,123.73 Z M169.036,127.24 C169.036,125.888 170.136,124.789 171.488,124.789 C172.841,124.789 173.941,125.888 173.941,127.24 C173.941,128.592 172.841,129.693 171.488,129.693 C170.136,129.693 169.036,128.592 169.036,127.24 Z M67.066,123.73 C67.066,125.082 65.966,126.181 64.615,126.181 C63.262,126.181 62.162,125.082 62.162,123.73 C62.162,122.377 63.262,121.278 64.615,121.278 C65.966,121.278 67.066,122.377 67.066,123.73 Z" id="Fill-146"></path>
                    <path d="M88.023,78.911 C88.023,77.049 86.507,75.535 84.646,75.535 C82.783,75.535 81.269,77.049 81.269,78.911 C81.269,80.773 82.783,82.288 84.646,82.288 C86.507,82.288 88.023,80.773 88.023,78.911 Z M82.194,78.911 C82.194,77.559 83.293,76.459 84.646,76.459 C85.997,76.459 87.097,77.559 87.097,78.911 C87.097,80.263 85.997,81.363 84.646,81.363 C83.293,81.363 82.194,80.263 82.194,78.911 Z" id="Fill-147"></path>
                    <path d="M234.077,168.371 C233.984,168.277 233.857,168.224 233.724,168.224 L225.503,168.224 L224.308,167.029 C224.772,166.45 225.062,165.726 225.062,164.928 C225.062,163.066 223.546,161.551 221.685,161.551 C219.821,161.551 218.307,163.066 218.307,164.928 C218.307,166.791 219.821,168.306 221.685,168.306 C222.388,168.306 223.042,168.088 223.583,167.718 L224.943,169.078 C225.036,169.171 225.163,169.224 225.296,169.224 L233.517,169.224 L241.874,177.58 C241.968,177.673 242.095,177.726 242.228,177.726 L284.088,177.726 L284.088,176.726 L242.435,176.726 L234.077,168.371 Z M219.232,164.928 C219.232,163.577 220.332,162.476 221.685,162.476 C223.036,162.476 224.136,163.577 224.136,164.928 C224.136,166.281 223.036,167.381 221.685,167.381 C220.332,167.381 219.232,166.281 219.232,164.928 Z" id="Fill-149"></path>
                    <path d="M66.319,35.369 C66.319,33.506 64.804,31.992 62.941,31.992 C61.079,31.992 59.564,33.506 59.564,35.369 C59.564,37.231 61.079,38.746 62.941,38.746 C64.804,38.746 66.319,37.231 66.319,35.369 Z M60.49,35.369 C60.49,34.016 61.589,32.917 62.941,32.917 C64.293,32.917 65.394,34.016 65.394,35.369 C65.394,36.72 64.293,37.821 62.941,37.821 C61.589,37.821 60.49,36.72 60.49,35.369 Z" id="Fill-150"></path>
                    <path d="M89.543,35.369 C89.543,33.506 88.029,31.992 86.166,31.992 C84.304,31.992 82.79,33.506 82.79,35.369 C82.79,37.231 84.304,38.746 86.166,38.746 C88.029,38.746 89.543,37.231 89.543,35.369 Z M83.715,35.369 C83.715,34.016 84.815,32.917 86.166,32.917 C87.519,32.917 88.618,34.016 88.618,35.369 C88.618,36.72 87.519,37.821 86.166,37.821 C84.815,37.821 83.715,36.72 83.715,35.369 Z" id="Fill-151"></path>
                    <path d="M136.318,35.369 C136.318,33.506 134.803,31.992 132.941,31.992 C131.079,31.992 129.564,33.506 129.564,35.369 C129.564,37.231 131.079,38.746 132.941,38.746 C134.803,38.746 136.318,37.231 136.318,35.369 Z M130.49,35.369 C130.49,34.016 131.589,32.917 132.941,32.917 C134.292,32.917 135.393,34.016 135.393,35.369 C135.393,36.72 134.292,37.821 132.941,37.821 C131.589,37.821 130.49,36.72 130.49,35.369 Z" id="Fill-152"></path>
                    <path d="M254.101,19.918 C252.239,19.918 250.724,21.433 250.724,23.294 C250.724,25.157 252.239,26.672 254.101,26.672 C255.792,26.672 257.185,25.418 257.428,23.794 L284.088,23.794 L284.088,22.794 L257.428,22.794 C257.185,21.17 255.792,19.918 254.101,19.918 Z M254.101,25.747 C252.749,25.747 251.65,24.647 251.65,23.294 C251.65,21.943 252.749,20.843 254.101,20.843 C255.453,20.843 256.554,21.943 256.554,23.294 C256.554,24.647 255.453,25.747 254.101,25.747 Z" id="Fill-240"></path>
                </g>
            </g>
        </g>
    </g>
</svg>