<?xml version="1.0" encoding="UTF-8"?>
<svg width="36px" height="36px" viewBox="0 0 36 36" version="1.1" xmlns="http://www.w3.org/2000/svg" xmlns:xlink="http://www.w3.org/1999/xlink">
    <!-- Generator: Sketch 48.1 (47250) - http://www.bohemiancoding.com/sketch -->
    <title>GitHub_FooterLogo</title>
    <desc>Created with Sketch.</desc>
    <defs></defs>
    <g id="Netduino.Foundation-Web-Site" stroke="none" stroke-width="1" fill="none" fill-rule="evenodd" transform="translate(-1281.000000, -2160.000000)">
        <path d="M1299,2160 C1289.055,2160 1281,2168.055 1281,2178 C1281,2185.965 1286.1525,2192.6925 1293.3075,2195.0775 C1294.2075,2195.235 1294.545,2194.695 1294.545,2194.2225 C1294.545,2193.795 1294.5225,2192.3775 1294.5225,2190.87 C1290,2191.7025 1288.83,2189.7675 1288.47,2188.755 C1288.2675,2188.2375 1287.39,2186.64 1286.625,2186.2125 C1285.995,2185.875 1285.095,2185.0425 1286.6025,2185.02 C1288.02,2184.9975 1289.0325,2186.325 1289.37,2186.865 C1290.99,2189.5875 1293.5775,2188.8225 1294.6125,2188.35 C1294.77,2187.18 1295.2425,2186.3925 1295.76,2185.9425 C1291.755,2185.4925 1287.57,2183.94 1287.57,2177.055 C1287.57,2175.0975 1288.2675,2173.4775 1289.415,2172.2175 C1289.235,2171.7675 1288.605,2169.9225 1289.595,2167.4475 C1289.595,2167.4475 1291.1025,2166.975 1294.545,2169.2925 C1295.985,2168.8875 1297.515,2168.685 1299.045,2168.685 C1300.575,2168.685 1302.105,2168.8875 1303.545,2169.2925 C1306.9875,2166.9525 1308.495,2167.4475 1308.495,2167.4475 C1309.485,2169.9225 1308.855,2171.7675 1308.675,2172.2175 C1309.8225,2173.4775 1310.52,2175.075 1310.52,2177.055 C1310.52,2183.9625 1306.3125,2185.4925 1302.3075,2185.9425 C1302.96,2186.505 1303.5225,2187.585 1303.5225,2189.2725 C1303.5225,2191.68 1303.5,2193.615 1303.5,2194.2225 C1303.5,2194.695 1303.8375,2195.2575 1304.7375,2195.0775 C1311.8475,2192.6925 1317,2185.9425 1317,2178 C1317,2168.055 1308.945,2160 1299,2160 L1299,2160 Z" id="GitHub_FooterLogo" fill="#EEEEEE"></path>
    </g>
</svg>