<?xml version="1.0" encoding="UTF-8"?>
<svg width="15px" height="21px" viewBox="0 0 15 21" version="1.1" xmlns="http://www.w3.org/2000/svg" xmlns:xlink="http://www.w3.org/1999/xlink">
    <!-- Generator: Sketch 48.1 (47250) - http://www.bohemiancoding.com/sketch -->
    <title>ButtonIcon_Fork</title>
    <desc>Created with Sketch.</desc>
    <defs></defs>
    <g id="Netduino.Foundation-Web-Site" stroke="none" stroke-width="1" fill="none" fill-rule="evenodd" transform="translate(-284.000000, -524.000000)">
        <g id="About" transform="translate(0.000000, 341.000000)" fill="#524740">
            <g id="fork-button" transform="translate(271.000000, 175.000000)">
                <path d="M28,15 C28,13.335 26.665,11 25,11 C23.335,11 22,12.335 22,14 C22,15.095 22.615,16.07 23.5,16.58 L23.5,17.03 C23.47,17.81 23.155,18.5 22.555,19.1 C21.955,19.7 21.265,20.015 20.485,20.045 C19.24,20.075 18.265,20.285 17.485,20.72 L17.485,13.58 C18.37,13.07 18.985,12.11 18.985,11 C18.985,9.335 17.65,8 15.985,8 C14.32,8 13,9.335 13,11 C13,12.095 13.615,13.07 14.5,13.58 L14.5,23.42 C13.615,23.945 13,24.905 13,26 C13,27.665 14.335,29 16,29 C17.665,29 19,27.665 19,26 C19,25.205 18.7,24.5 18.205,23.96 C18.34,23.87 18.925,23.345 19.09,23.255 C19.465,23.09 19.93,23 20.5,23 C22.075,22.925 23.425,22.325 24.625,21.125 C25.825,19.925 26.425,18.155 26.5,16.595 C27.385,16.055 28,15.095 28,14 L28,15 Z M17.8,11 C17.8,11.975 16.975,12.8 16,12.8 C15.025,12.8 14.2,11.975 14.2,11 C14.2,10.025 15.025,9.2 16,9.2 C16.99,9.2 17.8,10.025 17.8,11 Z M14.2,26.015 C14.2,25.04 15.025,24.215 16,24.215 C16.975,24.215 17.8,25.04 17.8,26.015 C17.8,26.99 16.975,27.815 16,27.815 C15.01,27.815 14.2,26.99 14.2,26.015 Z M23.2,14.015 C23.2,13.04 24.025,12.215 25,12.215 C25.975,12.215 26.8,13.04 26.8,14.015 C26.8,14.99 25.975,15.815 25,15.815 C24.01,15.815 23.2,14.99 23.2,14.015 Z" id="ButtonIcon_Fork"></path>
            </g>
        </g>
    </g>
</svg>