<?xml version="1.0" encoding="UTF-8"?>
<svg width="214px" height="98px" viewBox="0 0 214 98" version="1.1" xmlns="http://www.w3.org/2000/svg" xmlns:xlink="http://www.w3.org/1999/xlink">
    <!-- Generator: Sketch 48.1 (47250) - http://www.bohemiancoding.com/sketch -->
    <title>ByWLabs_Logo</title>
    <desc>Created with Sketch.</desc>
    <defs></defs>
    <g id="Netduino.Foundation-Web-Site" stroke="none" stroke-width="1" fill="none" fill-rule="evenodd" transform="translate(-1102.000000, -170.000000)">
        <g id="Banner" transform="translate(0.000000, 77.000000)">
            <g id="ByWLabs_Logo" transform="translate(1101.000000, 81.000000)">
                <rect id="Rectangle-3" x="22" y="0" width="205" height="118.08"></rect>
                <g id="MountainLogo-Copy" transform="translate(58.626667, 11.480000)">
                    <g id="MountainTree-Copy-2" transform="translate(-0.000000, -0.000000)">
                        <path d="M92.2993148,46.8753988 L90.5078337,51.3181999 L83.3836165,39.2880632 L62.0340544,34.7636491 L55.8605648,40.0781673 C55.8605648,40.0781673 55.1186743,40.7986369 54.4262988,40.7874259 C53.7339233,40.776215 52.8287402,40.0222461 52.8287402,40.0222461 L47.8198535,36.463374 L39.9221484,51.3201351 L37.8671436,47.1353857 L61.6770394,2.15623698 C61.6770394,2.15623698 62.2830806,0.528515625 63.7016146,0.526380208 C65.1201485,0.524244792 65.7775732,2.17899251 65.7775732,2.17899251 L92.2993148,46.8753988 Z" id="Path-3" fill="#EEEEEE"></path>
                        <path d="M63.7810254,6.33664876 L80.7122103,34.8143319 L61.82118,30.8349495 C61.82118,30.8349495 61.3583952,30.7959115 61.036381,30.8515658 C60.7143669,30.9072201 60.3913184,31.1624023 60.3913184,31.1624023 L54.2857617,36.4280729 L49.614104,33.0530135 L63.7810254,6.33664876 Z" id="Path-4" fill="#EEEEEE"></path>
                        <path d="M42.474672,62.6170898 C42.474672,62.6170898 43.5568945,62.6094157 44.0744661,61.6628589 C44.5920378,60.7163021 44.184707,59.9377091 44.184707,59.9377091 L22.2905802,15.4639868 C22.2905802,15.4639868 21.9203857,14.5188647 20.6163135,14.5188647 C19.3122412,14.5188647 18.9586963,15.4639868 18.9586963,15.4639868 L0.595614421,59.6833944 C0.595614421,59.6833944 0.192554525,60.8293791 0.749297689,61.7014966 C1.30604085,62.5736141 2.28656413,62.612085 2.28656413,62.612085 L20.0504948,62.6078475 L20.0504948,66.8783138 C20.0504948,66.8783138 20.1055819,68.755612 21.9967269,68.7670231 C23.8878719,68.7784342 23.8878719,66.8582609 23.8878719,66.8582609 L23.8878719,62.615188 L42.474672,62.6170898 Z" id="Path-5" fill="#EEEEEE"></path>
                        <polygon id="Path-2" fill="#23ABE3" points="20.7853784 21.0595459 39.3530933 58.7899561 5.10608154 58.7899561"></polygon>
                        <path d="M128.848005,62.6170898 C128.848005,62.6170898 129.930228,62.6094157 130.447799,61.6628589 C130.965371,60.7163021 130.55804,59.9377091 130.55804,59.9377091 L108.663914,15.4639868 C108.663914,15.4639868 108.293719,14.5188647 106.989647,14.5188647 C105.685575,14.5188647 105.33203,15.4639868 105.33203,15.4639868 L86.9689478,59.6833944 C86.9689478,59.6833944 86.5658879,60.8293791 87.122631,61.7014966 C87.6793742,62.5736141 88.6598975,62.612085 88.6598975,62.612085 L106.423828,62.6078475 L106.423828,66.8783138 C106.423828,66.8783138 106.478915,68.755612 108.37006,68.7670231 C110.261205,68.7784342 110.261205,66.8582609 110.261205,66.8582609 L110.261205,62.615188 L128.848005,62.6170898 Z" id="Path-5" fill="#EEEEEE"></path>
                        <polygon id="Path-2" fill="#23ABE3" points="107.158712 21.0595459 125.726427 58.7899561 91.4794149 58.7899561"></polygon>
                    </g>
                </g>
                <path d="M34.588708,86.8175 L37.1640205,86.8175 L38.509333,96.0040625 L38.7271455,97.3621875 C38.829646,98.0967745 38.9065202,98.7672886 38.9577705,99.37375 L39.098708,101.052187 C39.1072497,101.094896 39.1157913,101.17177 39.124333,101.282812 C39.1328747,101.393855 39.145687,101.534791 39.1627705,101.705625 L39.226833,101.065 C39.3293335,99.9460361 39.4382386,98.9167755 39.5535517,97.9771875 C39.6688648,97.0375995 39.7948531,96.170629 39.9315205,95.37625 L41.353708,86.8175 L43.403708,86.8175 L44.736208,95.1328125 C44.9326673,96.3628186 45.0970927,97.5031197 45.2294892,98.55375 C45.3618857,99.6043803 45.4707909,100.608016 45.556208,101.564687 C45.6416251,100.556766 45.7377179,99.5830255 45.8444892,98.6434375 C45.9512606,97.7038495 46.0644365,96.7813587 46.1840205,95.8759375 L46.376208,94.55625 L47.5165205,86.8175 L50.066208,86.8175 L46.5683955,106.6 L44.4927705,106.6 L43.096208,98.0540625 C43.0876663,98.0198957 43.0663123,97.8789596 43.0321455,97.63125 C42.9979786,97.3835404 42.9467291,97.0290648 42.8783955,96.5678125 L42.609333,94.5946875 C42.5922495,94.4409367 42.5644894,94.210314 42.5260517,93.9028125 C42.487614,93.595311 42.4470415,93.206669 42.404333,92.736875 L42.3402705,91.916875 C42.323187,92.1133343 42.3061039,92.2841659 42.2890205,92.429375 C42.271937,92.5745841 42.2591247,92.6941662 42.250583,92.788125 C42.2078744,93.3518778 42.1715727,93.7896339 42.1416767,94.1014062 C42.1117807,94.4131786 42.0925622,94.6032288 42.0840205,94.6715625 L41.814958,96.5678125 C41.755166,97.0034397 41.7081873,97.3451029 41.6740205,97.5928125 C41.6398536,97.8405221 41.6142289,97.9942705 41.5971455,98.0540625 L40.149333,106.6 L38.0096455,106.6 L34.588708,86.8175 Z M53.761333,86.8175 L56.426333,86.8175 L56.426333,106.6 L53.761333,106.6 L53.761333,86.8175 Z M61.6077081,86.8175 L64.2727081,86.8175 L64.2727081,104.345 L68.6289581,104.345 L68.6289581,106.6 L61.6077081,106.6 L61.6077081,86.8175 Z M72.4265831,86.8175 L75.7065831,86.8175 C76.7059631,86.8175 77.5473089,86.9285406 78.2306456,87.150625 C78.8627321,87.3641677 79.4264765,87.7442681 79.9218956,88.2909375 C80.6650243,89.1109416 81.1946024,90.1786393 81.5106456,91.4940625 C81.8266889,92.7667772 81.9847081,94.5904048 81.9847081,96.965 C81.9847081,99.1431359 81.8096057,100.919785 81.4593956,102.295 C81.1177272,103.610423 80.5539829,104.614059 79.7681456,105.305937 C78.8029325,106.16865 77.0732623,106.6 74.5790831,106.6 L72.4265831,106.6 L72.4265831,86.8175 Z M75.0915831,104.268125 C76.7145079,104.268125 77.7992887,103.776984 78.3459581,102.794687 C78.9097109,101.812391 79.1915831,99.9033475 79.1915831,97.0675 C79.1915831,94.0181098 78.9225233,91.9211516 78.3843956,90.7765625 C77.8462679,89.6319734 76.8597153,89.0596875 75.4247081,89.0596875 L75.0915831,89.0596875 L75.0915831,104.268125 Z M86.7688957,86.8175 L93.8542082,86.8175 L93.8542082,89.0725 L89.4338957,89.0725 L89.4338957,95.3378125 L93.3545207,95.3378125 L93.3545207,97.5928125 L89.4338957,97.5928125 L89.4338957,104.345 L93.8542082,104.345 L93.8542082,106.6 L86.7688957,106.6 L86.7688957,86.8175 Z M98.4333957,86.8175 L101.944021,86.8175 C103.396111,86.8175 104.476621,87.163434 105.185583,87.8553125 C106.082463,88.752192 106.530896,90.1231158 106.530896,91.968125 C106.530896,93.3860488 106.293867,94.5242145 105.819802,95.3826562 C105.345737,96.241098 104.668817,96.7728115 103.789021,96.9778125 L107.427771,106.6 L104.724333,106.6 L101.098396,96.91375 L101.098396,106.6 L98.4333957,106.6 L98.4333957,86.8175 Z M101.098396,95.58125 C102.131943,95.58125 102.862248,95.3420857 103.289333,94.86375 C103.716419,94.3854143 103.929958,93.5782348 103.929958,92.4421875 C103.929958,91.8271844 103.885115,91.3018772 103.795427,90.86625 C103.705739,90.4306228 103.564803,90.0761472 103.372614,89.8028125 C103.180426,89.5294778 102.93272,89.3287506 102.629489,89.200625 C102.326259,89.0724994 101.965377,89.0084375 101.546833,89.0084375 L101.098396,89.0084375 L101.098396,95.58125 Z M111.622583,86.8175 L114.108208,86.8175 L116.760396,94.71 C117.52915,96.9393861 118.208205,99.3182165 118.797583,101.846562 C118.584041,100.317597 118.426021,98.9338604 118.323521,97.6953125 C118.22102,96.4567646 118.169771,95.2908388 118.169771,94.1975 L118.169771,86.8175 L120.847583,86.8175 L120.847583,106.6 L118.349146,106.6 L115.363833,97.6953125 C115.090499,96.8667667 114.832116,96.0168794 114.588677,95.145625 C114.345238,94.2743706 114.121022,93.3604214 113.916021,92.40375 C113.898937,92.2841661 113.871177,92.1389592 113.83274,91.968125 C113.794302,91.7972908 113.749459,91.6008344 113.698208,91.37875 C113.723833,91.6008344 113.745187,91.7908846 113.762271,91.9489062 C113.779354,92.1069279 113.792167,92.2414578 113.800708,92.3525 L113.941646,94.3640625 L114.082583,96.81125 C114.091125,96.9479173 114.097531,97.1144782 114.101802,97.3109375 C114.106073,97.5073968 114.108208,97.7294779 114.108208,97.9771875 L114.249146,106.6 L111.622583,106.6 L111.622583,86.8175 Z M126.028958,86.8175 L133.114271,86.8175 L133.114271,89.0725 L128.693958,89.0725 L128.693958,95.3378125 L132.614583,95.3378125 L132.614583,97.5928125 L128.693958,97.5928125 L128.693958,104.345 L133.114271,104.345 L133.114271,106.6 L126.028958,106.6 L126.028958,86.8175 Z M144.291896,87.2275 L144.291896,89.8284375 C143.480433,89.2476013 142.750128,88.9571875 142.100958,88.9571875 C141.400538,88.9571875 140.828252,89.2048934 140.384083,89.7003125 C139.939914,90.1701065 139.717833,90.7979127 139.717833,91.58375 C139.717833,92.2756285 139.875853,92.8692684 140.191896,93.3646875 C140.354188,93.6294805 140.621113,93.9711437 140.992677,94.3896875 C141.364241,94.8082313 141.844705,95.3121846 142.434083,95.9015625 C143.51888,97.003443 144.257727,97.9558293 144.650646,98.75875 C145.043565,99.5360456 145.240021,100.488432 145.240021,101.615937 C145.240021,103.144903 144.808671,104.404787 143.945958,105.395625 C143.083246,106.360838 141.977111,106.843437 140.627521,106.843437 C139.491474,106.843437 138.522004,106.53167 137.719083,105.908125 L137.719083,103.26875 C138.667213,103.960628 139.529913,104.306562 140.307208,104.306562 C141.033254,104.306562 141.601269,104.065263 142.011271,103.582656 C142.421273,103.10005 142.626271,102.444483 142.626271,101.615937 C142.626271,100.898434 142.468252,100.253545 142.152208,99.68125 C141.989916,99.4079153 141.763564,99.0940122 141.473146,98.7395312 C141.182728,98.3850503 140.819711,97.9900022 140.384083,97.554375 C139.709288,96.8881217 139.149815,96.2987526 138.705646,95.78625 C138.261477,95.2737474 137.932626,94.8253144 137.719083,94.4409375 C137.309081,93.6892671 137.104083,92.7411516 137.104083,91.5965625 C137.104083,90.0505131 137.505538,88.8247962 138.308458,87.919375 C139.119921,87.0054121 140.208972,86.5484375 141.575646,86.5484375 C142.523776,86.5484375 143.429183,86.7747894 144.291896,87.2275 Z M156.212646,87.2275 L156.212646,89.8284375 C155.401184,89.2476013 154.670878,88.9571875 154.021708,88.9571875 C153.321288,88.9571875 152.749002,89.2048934 152.304833,89.7003125 C151.860665,90.1701065 151.638583,90.7979127 151.638583,91.58375 C151.638583,92.2756285 151.796603,92.8692684 152.112646,93.3646875 C152.274938,93.6294805 152.541863,93.9711437 152.913427,94.3896875 C153.284992,94.8082313 153.765455,95.3121846 154.354833,95.9015625 C155.439631,97.003443 156.178477,97.9558293 156.571396,98.75875 C156.964315,99.5360456 157.160771,100.488432 157.160771,101.615937 C157.160771,103.144903 156.729421,104.404787 155.866708,105.395625 C155.003996,106.360838 153.897861,106.843437 152.548271,106.843437 C151.412224,106.843437 150.442754,106.53167 149.639833,105.908125 L149.639833,103.26875 C150.587963,103.960628 151.450663,104.306562 152.227958,104.306562 C152.954004,104.306562 153.522019,104.065263 153.932021,103.582656 C154.342023,103.10005 154.547021,102.444483 154.547021,101.615937 C154.547021,100.898434 154.389002,100.253545 154.072958,99.68125 C153.910666,99.4079153 153.684314,99.0940122 153.393896,98.7395312 C153.103478,98.3850503 152.740461,97.9900022 152.304833,97.554375 C151.630038,96.8881217 151.070565,96.2987526 150.626396,95.78625 C150.182227,95.2737474 149.853376,94.8253144 149.639833,94.4409375 C149.229831,93.6892671 149.024833,92.7411516 149.024833,91.5965625 C149.024833,90.0505131 149.426288,88.8247962 150.229208,87.919375 C151.040671,87.0054121 152.129722,86.5484375 153.496396,86.5484375 C154.444526,86.5484375 155.349933,86.7747894 156.212646,87.2275 Z M169.099459,86.8175 L171.764459,86.8175 L171.764459,104.345 L176.120709,104.345 L176.120709,106.6 L169.099459,106.6 L169.099459,86.8175 Z M183.787709,86.8175 L185.863334,86.8175 L190.104271,106.6 L187.464896,106.6 L186.721771,102.743437 L182.801146,102.743437 L182.045209,106.6 L179.482709,106.6 L183.787709,86.8175 Z M186.337396,100.680625 L185.748021,97.52875 C185.355102,95.3847809 185.034793,93.0956372 184.787084,90.66125 C184.6675,91.8485476 184.513751,93.0507752 184.325834,94.2679687 C184.137916,95.4851623 183.915835,96.7770765 183.659584,98.14375 L183.172709,100.680625 L186.337396,100.680625 Z M193.799396,86.8175 L197.412521,86.8175 C200.239827,86.8175 201.653459,88.5727949 201.653459,92.0834375 C201.653459,93.4244859 201.469815,94.4195801 201.102521,95.06875 C200.735228,95.7179199 200.086067,96.2090608 199.155021,96.5421875 C200.222735,96.969273 200.95304,97.5159342 201.345959,98.1821875 C201.747419,98.8398991 201.948146,99.8307225 201.948146,101.154687 C201.948146,104.784914 200.393578,106.6 197.284396,106.6 L193.799396,106.6 L193.799396,86.8175 Z M196.310646,95.53 C197.344193,95.53 198.061686,95.2908357 198.463146,94.8125 C198.864606,94.3085391 199.065334,93.4244855 199.065334,92.1603125 C199.065334,90.0248852 198.296591,88.9571875 196.759084,88.9571875 L196.438771,88.9571875 C196.370437,88.9571875 196.32773,88.9614583 196.310646,88.97 L196.310646,95.53 Z M196.310646,104.319375 C197.403985,104.319375 198.159915,104.084482 198.578459,103.614687 C198.997002,103.144893 199.206271,102.295006 199.206271,101.065 C199.206271,99.800827 198.988461,98.9167734 198.552834,98.4128125 C198.125748,97.9003099 197.37836,97.6440625 196.310646,97.6440625 L196.310646,104.319375 Z M213.330771,87.2275 L213.330771,89.8284375 C212.519309,89.2476013 211.789004,88.9571875 211.139834,88.9571875 C210.439414,88.9571875 209.867128,89.2048934 209.422959,89.7003125 C208.97879,90.1701065 208.756709,90.7979127 208.756709,91.58375 C208.756709,92.2756285 208.914728,92.8692684 209.230771,93.3646875 C209.393064,93.6294805 209.659988,93.9711437 210.031552,94.3896875 C210.403117,94.8082313 210.883581,95.3121846 211.472959,95.9015625 C212.557756,97.003443 213.296603,97.9558293 213.689521,98.75875 C214.08244,99.5360456 214.278896,100.488432 214.278896,101.615937 C214.278896,103.144903 213.847546,104.404787 212.984834,105.395625 C212.122121,106.360838 211.015986,106.843437 209.666396,106.843437 C208.530349,106.843437 207.560879,106.53167 206.757959,105.908125 L206.757959,103.26875 C207.706088,103.960628 208.568788,104.306562 209.346084,104.306562 C210.072129,104.306562 210.640144,104.065263 211.050146,103.582656 C211.460148,103.10005 211.665146,102.444483 211.665146,101.615937 C211.665146,100.898434 211.507127,100.253545 211.191084,99.68125 C211.028791,99.4079153 210.802439,99.0940122 210.512021,98.7395312 C210.221603,98.3850503 209.858586,97.9900022 209.422959,97.554375 C208.748164,96.8881217 208.18869,96.2987526 207.744521,95.78625 C207.300352,95.2737474 206.971501,94.8253144 206.757959,94.4409375 C206.347957,93.6892671 206.142959,92.7411516 206.142959,91.5965625 C206.142959,90.0505131 206.544413,88.8247962 207.347334,87.919375 C208.158796,87.0054121 209.247848,86.5484375 210.614521,86.5484375 C211.562651,86.5484375 212.468059,86.7747894 213.330771,87.2275 Z" id="WILDERNESS-LABS" fill="#EEEEEE"></path>
                <text id="by:" font-family="HelveticaNeue-Light, Helvetica Neue" font-size="20" font-weight="300" fill="#EEEEEE">
                    <tspan x="0.5" y="106">by:</tspan>
                </text>
            </g>
        </g>
    </g>
</svg>