<?xml version="1.0" encoding="UTF-8"?>
<svg width="37px" height="31px" viewBox="0 0 37 31" version="1.1" xmlns="http://www.w3.org/2000/svg" xmlns:xlink="http://www.w3.org/1999/xlink">
    <!-- Generator: Sketch 48.1 (47250) - http://www.bohemiancoding.com/sketch -->
    <title>Twitter_FooterLogo</title>
    <desc>Created with Sketch.</desc>
    <defs></defs>
    <g id="Netduino.Foundation-Web-Site" stroke="none" stroke-width="1" fill="none" fill-rule="evenodd" transform="translate(-1220.000000, -2163.000000)">
        <path d="M1231.63576,2193.06467 C1245.59808,2193.06467 1253.23488,2181.49699 1253.23488,2171.46555 C1253.23488,2171.13699 1253.23488,2170.80991 1253.21268,2170.48431 C1254.69835,2169.4097 1255.98081,2168.07914 1257,2166.55491 C1255.61454,2167.16882 1254.14483,2167.57142 1252.63992,2167.74927 C1254.22462,2166.80057 1255.41066,2165.30842 1255.97732,2163.55051 C1254.48719,2164.43475 1252.85696,2165.05791 1251.15696,2165.39311 C1248.80388,2162.89102 1245.06486,2162.27862 1242.03653,2163.89932 C1239.0082,2165.52002 1237.44369,2168.97076 1238.22028,2172.31655 C1232.11661,2172.01056 1226.42982,2169.12763 1222.5752,2164.38523 C1220.56036,2167.85383 1221.5895,2172.29119 1224.92544,2174.51879 C1223.71738,2174.48299 1222.53565,2174.1571 1221.48,2173.56863 C1221.48,2173.59971 1221.48,2173.63227 1221.48,2173.66483 C1221.48099,2177.27839 1224.02819,2180.39075 1227.5702,2181.10627 C1226.45261,2181.41107 1225.28002,2181.45562 1224.14252,2181.23651 C1225.137,2184.32886 1227.98693,2186.44727 1231.23468,2186.50827 C1228.54661,2188.62087 1225.22597,2189.76772 1221.80708,2189.76427 C1221.2031,2189.76311 1220.5997,2189.72655 1220,2189.65475 C1223.47154,2191.88256 1227.51087,2193.06426 1231.63576,2193.05875" id="Twitter_FooterLogo" fill="#EEEEEE" fill-rule="nonzero"></path>
    </g>
</svg>