<?xml version='1.0' encoding='UTF-8' standalone='no'?>
<!-- Created with Fritzing (http://www.fritzing.org/) -->
<svg xmlns:svg='http://www.w3.org/2000/svg' xmlns='http://www.w3.org/2000/svg' version='1.2' baseProfile='tiny' x='0in' y='0in' width='2.84527in' height='2.82876in' viewBox='0 0 204.859 203.671' >
<g partID='69580'><g transform='translate(151.234,0)' ><g transform='matrix(0,1,-1,0,0,0)'  ><g transform="matrix(1, 0, 0, 1, 2.35569, -2.2e-05)">
 <g  id="breadboardbreadboard">
  <path  id="path5990-7" fill="#1C1C1C" d="M6.833,0l0,151.234l187.254,0l0,-7.006l7.229,-7.292L201.316,43.274l-7.229,-6.576L194.087,3.772L190.008,0L6.837,0L6.833,0zM49.783,2.823c0.074,-0.004,0.146,0,0.221,0c2.41,0,4.361,1.952,4.361,4.361c0,2.409,-1.951,4.361,-4.361,4.361c-2.409,0,-4.361,-1.952,-4.361,-4.361C45.643,4.85,47.479,2.94,49.783,2.823L49.783,2.823zM194.117,45.901c2.408,0,4.359,1.952,4.359,4.361s-1.949,4.361,-4.359,4.361s-4.361,-1.952,-4.361,-4.361S191.707,45.901,194.117,45.901zM194.041,125.279c2.41,0,4.361,1.957,4.361,4.366c0,2.41,-1.951,4.36,-4.361,4.36c-2.409,0,-4.36,-1.95,-4.36,-4.36C189.679,127.237,191.631,125.279,194.041,125.279z"/>
  <g  id="g3733">
   <path  id="path10810" fill="#F7BD13" d="M172.605,65.324c-1.483,0,-2.689,1.201,-2.689,2.683c0,1.484,1.207,2.69,2.689,2.69s2.684,-1.206,2.684,-2.69C175.289,66.525,174.087,65.324,172.605,65.324zM172.605,66.679c0.736,0,1.329,0.593,1.329,1.329c0,0.736,-0.593,1.336,-1.329,1.336s-1.336,-0.6,-1.336,-1.336C171.269,67.272,171.87,66.679,172.605,66.679z"/>
   <path  id="path10812" fill="#F7BD13" d="M172.605,78.007c-1.483,0,-2.689,1.202,-2.689,2.683c0,1.482,1.207,2.69,2.689,2.69s2.684,-1.208,2.684,-2.69C175.289,79.209,174.087,78.007,172.605,78.007zM172.605,79.362c0.736,0,1.329,0.594,1.329,1.329s-0.593,1.335,-1.329,1.335s-1.336,-0.6,-1.336,-1.335S171.87,79.362,172.605,79.362z"/>
   <path  id="path10814" fill="#F7BD13" d="M154.171,65.324c-1.483,0,-2.689,1.201,-2.689,2.683c0,1.484,1.207,2.69,2.689,2.69s2.684,-1.206,2.684,-2.69C156.855,66.525,155.654,65.324,154.171,65.324zM154.171,66.679c0.736,0,1.328,0.593,1.328,1.329c0,0.736,-0.592,1.336,-1.328,1.336s-1.336,-0.6,-1.336,-1.336C152.835,67.272,153.435,66.679,154.171,66.679z"/>
   <path  id="path10816" fill="#F7BD13" d="M154.171,78.007c-1.483,0,-2.689,1.202,-2.689,2.683c0,1.482,1.207,2.69,2.689,2.69s2.684,-1.208,2.684,-2.69C156.855,79.209,155.654,78.007,154.171,78.007zM154.171,79.362c0.736,0,1.328,0.594,1.328,1.329s-0.592,1.335,-1.328,1.335s-1.336,-0.6,-1.336,-1.335S153.435,79.362,154.171,79.362z"/>
   <path  id="path10793" fill="#F7BD13" d="M194.42,62.143c-1.483,0,-2.69,1.2,-2.69,2.684c0,1.484,1.208,2.69,2.69,2.69c1.483,0,2.683,-1.208,2.683,-2.69C197.103,63.344,195.904,62.143,194.42,62.143zM194.42,63.497c0.735,0,1.329,0.594,1.329,1.329s-0.594,1.335,-1.329,1.335s-1.336,-0.6,-1.336,-1.335S193.685,63.497,194.42,63.497z"/>
   <path  id="rect10807" fill="#F7BD13" d="M184.838,62.282l0,4.976l4.976,0l0,-4.976L184.838,62.282zM187.326,63.433c0.736,0,1.336,0.6,1.336,1.335s-0.6,1.329,-1.336,1.329c-0.735,0,-1.329,-0.594,-1.329,-1.329S186.59,63.433,187.326,63.433z"/>
   <path  id="path10799" fill="#F7BD13" d="M194.42,69.434c-1.483,0,-2.69,1.201,-2.69,2.684c0,1.482,1.208,2.689,2.69,2.689c1.483,0,2.683,-1.207,2.683,-2.689C197.103,70.635,195.904,69.434,194.42,69.434zM194.42,70.788c0.735,0,1.329,0.594,1.329,1.33s-0.594,1.335,-1.329,1.335s-1.336,-0.6,-1.336,-1.335S193.685,70.788,194.42,70.788z"/>
   <path  id="path10801" fill="#F7BD13" d="M194.42,76.607c-1.483,0,-2.69,1.2,-2.69,2.683c0,1.483,1.208,2.69,2.69,2.69c1.483,0,2.683,-1.207,2.683,-2.69C197.103,77.807,195.904,76.607,194.42,76.607zM194.42,77.962c0.735,0,1.329,0.593,1.329,1.328c0,0.736,-0.594,1.336,-1.329,1.336s-1.336,-0.6,-1.336,-1.336C193.084,78.555,193.685,77.962,194.42,77.962z"/>
   <path  id="path10803" fill="#F7BD13" d="M187.418,76.607c-1.483,0,-2.689,1.2,-2.689,2.683c0,1.483,1.207,2.69,2.689,2.69c1.483,0,2.684,-1.207,2.684,-2.69C190.102,77.807,188.902,76.607,187.418,76.607zM187.418,77.962c0.736,0,1.329,0.593,1.329,1.328c0,0.736,-0.593,1.336,-1.329,1.336c-0.735,0,-1.335,-0.6,-1.335,-1.336C186.083,78.555,186.683,77.962,187.418,77.962z"/>
   <path  id="path10805" fill="#F7BD13" d="M187.418,69.434c-1.483,0,-2.689,1.201,-2.689,2.684c0,1.482,1.207,2.689,2.689,2.689c1.483,0,2.684,-1.207,2.684,-2.689C190.102,70.635,188.902,69.434,187.418,69.434zM187.418,70.788c0.736,0,1.329,0.594,1.329,1.33s-0.593,1.335,-1.329,1.335c-0.735,0,-1.335,-0.6,-1.335,-1.335S186.683,70.788,187.418,70.788z"/>
   <path  id="path10698-4" fill="#F7BD13" d="M66.437,4.411c0,0.735,-0.596,1.333,-1.332,1.333c-0.735,0,-1.332,-0.597,-1.332,-1.333s0.596,-1.332,1.332,-1.332C65.84,3.079,66.437,3.675,66.437,4.411z"/>
   <path  id="path10698-0-1" fill="#F7BD13" d="M102.222,112.709c0,0.736,-0.596,1.332,-1.333,1.332c-0.735,0,-1.331,-0.596,-1.331,-1.332s0.595,-1.332,1.331,-1.332C101.626,111.377,102.222,111.973,102.222,112.709z"/>
   <rect  id="rect10751-9" fill="#F7BD13" width="2.152" height="2.152" x="187.929" y="19.638"/>
   <path  id="path10698-2-9" fill="#F7BD13" d="M13.229,146.225c0,0.736,-0.597,1.332,-1.332,1.332c-0.736,0,-1.333,-0.596,-1.333,-1.332s0.596,-1.332,1.333,-1.332C12.632,144.893,13.229,145.488,13.229,146.225z"/>
   <path  id="path10698-6-3-7" fill="#F7BD13" d="M197.437,114.982c0,0.736,-0.598,1.332,-1.333,1.332s-1.332,-0.596,-1.332,-1.332s0.597,-1.331,1.332,-1.331C196.84,113.651,197.437,114.246,197.437,114.982z"/>
   <path  id="path4360" fill="#F7BD13" d="M31.312,14.198c-1.987,0,-3.605,1.609,-3.605,3.597s1.618,3.605,3.605,3.605c1.987,0,3.596,-1.618,3.596,-3.605C34.908,15.808,33.299,14.198,31.312,14.198zM31.312,16.013c0.985,0,1.781,0.795,1.781,1.781c0,0.986,-0.796,1.791,-1.781,1.791c-0.986,0,-1.79,-0.804,-1.79,-1.791C29.522,16.808,30.326,16.013,31.312,16.013z"/>
   <path  id="path4362" fill="#F7BD13" d="M31.312,56.66c-1.987,0,-3.605,1.609,-3.605,3.597c0,1.987,1.618,3.604,3.605,3.604c1.987,0,3.596,-1.618,3.596,-3.604C34.908,58.27,33.299,56.66,31.312,56.66zM31.312,58.475c0.985,0,1.781,0.795,1.781,1.781s-0.796,1.79,-1.781,1.79c-0.986,0,-1.79,-0.803,-1.79,-1.79C29.522,59.271,30.326,58.475,31.312,58.475z"/>
   <path  id="path4368" fill="#F7BD13" d="M147.328,67.227c0,0.735,-0.598,1.332,-1.332,1.332c-0.736,0,-1.333,-0.597,-1.333,-1.332s0.597,-1.333,1.333,-1.333C146.731,65.895,147.328,66.492,147.328,67.227z"/>
   <path  id="path5356" fill="#F7BD13" d="M36.612,124.248c-1.987,0,-3.605,1.609,-3.605,3.596s1.618,3.605,3.605,3.605c1.987,0,3.596,-1.617,3.596,-3.605C40.208,125.856,38.599,124.248,36.612,124.248zM36.612,126.064c0.985,0,1.782,0.795,1.782,1.782c0,0.984,-0.795,1.789,-1.782,1.789c-0.985,0,-1.79,-0.805,-1.79,-1.789C34.822,126.858,35.626,126.064,36.612,126.064z"/>
   <path  id="path5358" fill="#F7BD13" d="M28.261,137.648c-1.83,0,-3.318,1.482,-3.318,3.313c0,1.828,1.488,3.318,3.318,3.318c1.83,0,3.311,-1.49,3.311,-3.318C31.572,139.131,30.091,137.648,28.261,137.648zM28.261,139.32c0.907,0,1.64,0.732,1.64,1.64s-0.732,1.647,-1.64,1.647c-0.908,0,-1.648,-0.74,-1.648,-1.647S27.354,139.32,28.261,139.32z"/>
   <rect  id="rect8764" fill="#2E2E2E" width="8.506" height="8.506" x="157.982" y="19.782"/>
   <rect  id="rect8820" fill="#2E2E2E" width="4.536" height="2.268" x="17.676" y="6.58"/>
   <rect  id="rect8828" fill="#2E2E2E" width="6.166" height="3.913" x="46.922" y="94.266"/>
   <rect  id="rect8832" fill="#2E2E2E" width="4.981" height="9.723" x="64.39" y="10.961"/>
   <rect  id="rect8834" fill="#2E2E2E" width="9.604" height="4.744" x="37.762" y="61.818"/>
   <rect  id="rect8836" fill="#2E2E2E" width="2.846" height="5.692" x="25.809" y="81.83"/>
   <path  id="rect8838" fill="#2E2E2E" d="M53.258,73.179l-3.323,0l0,-4.507L39.144,68.672l0,1.811l-4.285,0l0,2.133l4.285,0l0,4.349l-4.285,0l0,2.131l4.285,0l0,4.229l-4.285,0l0,2.139l4.285,0l0,2.298l10.791,0L49.935,82.78l3.322,0L53.258,73.179L53.258,73.179z"/>
   <rect  id="rect8840" fill="#2E2E2E" width="17.075" height="9.842" x="128.064" y="119.147"/>
   <rect  id="rect8842" fill="#2E2E2E" width="9.012" height="5.217" x="63.28" y="67.562"/>
   <rect  id="rect8844" fill="#2E2E2E" width="15.178" height="8.419" x="12.141" y="104.163"/>
   <rect  id="rect8850" fill="#2E2E2E" width="17.012" height="9.924" x="103.04" y="19.987"/>
   <rect  id="rect8854" fill="#2E2E2E" width="9.685" height="5.104" x="87.632" y="19.383"/>
   <rect  id="rect8856" fill="#2E2E2E" width="19.849" height="19.848" x="102.955" y="38.101"/>
   <rect  id="rect8858" fill="#2E2E2E" width="39.723" height="39.723" x="103.326" y="70.16"/>
   <path  id="rect8860" fill="#2E2E2E" d="M89.926,76.757l-2.951,0l0,-2.253L70.141,74.504l0,0.95l-7.252,0l0,2.841l7.252,0l0,10.121l-7.252,0l0,2.842l7.252,0l0,1.627l16.836,0l0,-2.849l2.951,0L89.926,76.757L89.926,76.757z"/>
   <path  id="path8870" fill="#2E2E2E" d="M197.251,94.12L194.3,94.12l0,-2.253l-16.836,0l0,0.949l-7.252,0l0,2.842l7.252,0l0,10.119l-7.252,0l0,2.844l7.252,0l0,1.625L194.3,110.246l0,-2.848l2.951,0L197.251,94.12L197.251,94.12z"/>
   <rect  id="rect4372" fill="#2E2E2E" width="9.447" height="4.784" x="73.202" y="67.562"/>
   <rect  id="rect4374" fill="#2E2E2E" width="9.073" height="5.104" x="85.895" y="67.675"/>
   <rect  id="rect4376" fill="#2E2E2E" width="9.604" height="4.744" x="10.929" y="62.573"/>
   <rect  id="rect4378" fill="#2E2E2E" width="4.744" height="9.605" x="24.306" y="65.426"/>
   <rect  id="rect4380" fill="#2E2E2E" width="4.744" height="9.605" x="37.702" y="97.887"/>
   <rect  id="rect4382" fill="#2E2E2E" width="4.536" height="2.269" x="17.83" y="12.251"/>
   <rect  id="rect4384" fill="#2E2E2E" width="4.536" height="2.268" x="29.021" y="6.58"/>
   <rect  id="rect4386" fill="#2E2E2E" width="4.536" height="2.268" x="58.304" y="18.231"/>
   <rect  id="rect4388" fill="#2E2E2E" width="4.536" height="2.268" x="58.304" y="21.125"/>
   <rect  id="rect4390" fill="#2E2E2E" width="4.537" height="2.269" x="73.327" y="24.498"/>
   <rect  id="rect4392" fill="#2E2E2E" width="4.536" height="2.268" x="80.229" y="24.345"/>
   <rect  id="rect4394" fill="#2E2E2E" width="4.537" height="2.268" x="90.501" y="25.724"/>
   <rect  id="rect4396" fill="#2E2E2E" width="2.268" height="4.536" x="89.029" y="32.255"/>
   <rect  id="rect4398" fill="#2E2E2E" width="2.269" height="4.536" x="95.31" y="31.335"/>
   <rect  id="rect4400" fill="#2E2E2E" width="2.269" height="4.536" x="99.601" y="24.59"/>
   <rect  id="rect4402" fill="#2E2E2E" width="2.268" height="4.536" x="89.029" y="38.657"/>
   <rect  id="rect4404" fill="#2E2E2E" width="2.268" height="4.536" x="89.029" y="50.012"/>
   <rect  id="rect4406" fill="#2E2E2E" width="2.268" height="4.536" x="89.029" y="56.941"/>
   <rect  id="rect4408" fill="#2E2E2E" width="4.537" height="2.269" x="93.097" y="57.726"/>
   <rect  id="rect4410" fill="#2E2E2E" width="2.268" height="4.536" x="92.229" y="61.308"/>
   <rect  id="rect4412" fill="#2E2E2E" width="2.269" height="4.536" x="95.32" y="61.308"/>
   <rect  id="rect4414" fill="#2E2E2E" width="4.536" height="2.268" x="51.518" y="61.634"/>
   <rect  id="rect4416" fill="#2E2E2E" width="4.536" height="2.269" x="51.518" y="65.052"/>
   <rect  id="rect4418" fill="#2E2E2E" width="4.537" height="2.268" x="57.479" y="66.761"/>
   <rect  id="rect4420" fill="#2E2E2E" width="4.537" height="2.268" x="57.479" y="70.504"/>
   <rect  id="rect4422" fill="#2E2E2E" width="4.536" height="2.27" x="19.267" y="100.881"/>
   <rect  id="rect4424" fill="#2E2E2E" width="4.537" height="2.27" x="40.985" y="108.264"/>
   <rect  id="rect4426" fill="#2E2E2E" width="4.537" height="2.269" x="40.985" y="111.031"/>
   <rect  id="rect4428" fill="#2E2E2E" width="4.536" height="2.269" x="35.339" y="111.031"/>
   <rect  id="rect4430" fill="#2E2E2E" width="2.269" height="4.537" x="26.155" y="96.164"/>
   <rect  id="rect4432" fill="#2E2E2E" width="2.268" height="4.536" x="39.074" y="92.582"/>
   <rect  id="rect4434" fill="#2E2E2E" width="2.269" height="4.536" x="43.005" y="92.582"/>
   <rect  id="rect4436" fill="#2E2E2E" width="2.269" height="4.537" x="48.136" y="101.206"/>
   <rect  id="rect4438" fill="#2E2E2E" width="2.269" height="4.537" x="48.136" y="108.042"/>
   <rect  id="rect4440" fill="#2E2E2E" width="21.265" height="36.859" x="61.99" y="28.338"/>
   <rect  id="rect4442" fill="#2E2E2E" width="9.687" height="5.104" x="124.66" y="24.703"/>
   <rect  id="rect4444" fill="#2E2E2E" width="2.269" height="4.537" x="121.206" y="24.264"/>
   <rect  id="rect4446" fill="#2E2E2E" width="4.537" height="2.268" x="129.685" y="32.427"/>
   <rect  id="rect4448" fill="#2E2E2E" width="4.537" height="2.269" x="129.685" y="35.793"/>
   <rect  id="rect4450" fill="#2E2E2E" width="2.268" height="4.536" x="131.088" y="41.636"/>
   <rect  id="rect4452" fill="#2E2E2E" width="2.268" height="4.536" x="131.088" y="48.255"/>
   <rect  id="rect4454" fill="#2E2E2E" width="2.269" height="4.537" x="135.559" y="52.404"/>
   <rect  id="rect4456" fill="#2E2E2E" width="4.537" height="2.269" x="129.465" y="60.776"/>
   <rect  id="rect4458" fill="#2E2E2E" width="4.535" height="2.268" x="146.73" y="30.149"/>
   <rect  id="rect4460" fill="#2E2E2E" width="4.537" height="2.268" x="153.46" y="30.149"/>
   <rect  id="rect4462" fill="#2E2E2E" width="4.537" height="2.268" x="159.863" y="30.149"/>
   <rect  id="rect4464" fill="#2E2E2E" width="4.537" height="2.268" x="166.263" y="30.149"/>
   <rect  id="rect4466" fill="#2E2E2E" width="4.537" height="2.268" x="180.227" y="25.781"/>
   <rect  id="rect4468" fill="#2E2E2E" width="4.535" height="2.269" x="181.638" y="20.763"/>
   <rect  id="rect4470" fill="#2E2E2E" width="2.268" height="4.536" x="188.202" y="23.825"/>
   <rect  id="rect4472" fill="#2E2E2E" width="2.268" height="4.536" x="188.202" y="30.226"/>
   <rect  id="rect4474" fill="#2E2E2E" width="2.268" height="4.536" x="181.91" y="30.77"/>
   <rect  id="rect4476" fill="#2E2E2E" width="2.268" height="4.535" x="151.523" y="84.868"/>
   <rect  id="rect4478" fill="#2E2E2E" width="2.269" height="4.535" x="155.164" y="84.868"/>
   <rect  id="rect4480" fill="#2E2E2E" width="2.269" height="4.537" x="152.393" y="93.709"/>
   <rect  id="rect4482" fill="#2E2E2E" width="2.269" height="4.537" x="152.613" y="101.386"/>
   <rect  id="rect4484" fill="#2E2E2E" width="4.535" height="2.268" x="155.732" y="101.435"/>
   <rect  id="rect4486" fill="#2E2E2E" width="4.535" height="2.268" x="155.732" y="103.983"/>
   <rect  id="rect4488" fill="#2E2E2E" width="4.536" height="2.268" x="157.142" y="106.859"/>
   <rect  id="rect4490" fill="#2E2E2E" width="4.537" height="2.268" x="151.4" y="106.859"/>
   <rect  id="rect4492" fill="#2E2E2E" width="4.536" height="2.268" x="154.431" y="109.625"/>
   <rect  id="rect4494" fill="#2E2E2E" width="9.072" height="5.104" x="161.033" y="84.635"/>
   <rect  id="rect4496" fill="#2E2E2E" width="9.072" height="5.103" x="178.406" y="84.527"/>
   <rect  id="rect4498" fill="#2E2E2E" width="9.073" height="5.104" x="189.148" y="84.309"/>
   <rect  id="rect4500" fill="#2E2E2E" width="5.104" height="9.072" x="155.199" y="91.337"/>
   <rect  id="rect4502" fill="#2E2E2E" width="2.268" height="4.535" x="159.455" y="120.713"/>
   <rect  id="rect4504" fill="#2E2E2E" width="4.537" height="2.268" x="162.573" y="120.217"/>
   <rect  id="rect4506" fill="#2E2E2E" width="4.537" height="2.269" x="162.573" y="123.31"/>
   <rect  id="rect4508" fill="#2E2E2E" width="2.268" height="4.537" x="169.658" y="120.82"/>
   <rect  id="rect4510" fill="#2E2E2E" width="2.268" height="4.537" x="175.949" y="120.82"/>
   <rect  id="rect4512" fill="#2E2E2E" width="2.269" height="4.537" x="180.509" y="120.82"/>
   <rect  id="rect4514" fill="#2E2E2E" width="2.268" height="4.536" x="146.091" y="121.581"/>
   <rect  id="rect4516" fill="#2E2E2E" width="2.27" height="4.535" x="124.816" y="121.689"/>
   <rect  id="rect4518" fill="#2E2E2E" width="4.537" height="2.268" x="117.413" y="114.572"/>
   <rect  id="rect4520" fill="#2E2E2E" width="4.537" height="2.269" x="108.4" y="115.982"/>
   <rect  id="rect4522" fill="#2E2E2E" width="9.073" height="5.104" x="106.199" y="118.836"/>
   <rect  id="rect5332" fill="#2E2E2E" width="2.268" height="4.535" x="151.523" y="84.868"/>
   <rect  id="rect5334" fill="#2E2E2E" width="2.269" height="4.537" x="96.2" y="82.765"/>
   <rect  id="rect5336" fill="#2E2E2E" width="2.268" height="4.536" x="94.43" y="90.591"/>
   <g transform="matrix(0.253118, 0, 0, 0.253118, 55.7897, 78.6691)">
    <g  id="g9883">
     <rect  id="rect9671" fill="#55ADF7" width="226.793" height="27.825" x="106.114" y="243.868"/>
    </g>
   </g>
   <g transform="matrix(0.253118, 0, 0, 0.253118, 106.008, 78.6691)">
    <g  id="g9958">
     <rect  id="rect9960" fill="#55ADF7" width="170.603" height="27.825" x="162.35" y="243.868"/>
    </g>
   </g>
   <g transform="matrix(0.253118, 0, 0, 0.253118, 58.282, 78.6691)">
    <g  id="g10237">
     <rect  id="rect10038" fill="#55ADF7" width="226.056" height="27.825" x="295.443" y="-295.946"/>
    </g>
   </g>
   <g transform="matrix(0.253118, 0, 0, 0.253118, -3.45271, 78.6691)">
    <g  id="g10334">
     <rect  id="rect10336" fill="#55ADF7" width="283.582" height="27.825" x="237.86" y="-295.946"/>
    </g>
   </g>
   <g transform="matrix(0.253118, 0, 0, 0.253118, 58.282, 78.6691)">
    <g  id="g14243">
     <rect  id="rect8764-5" fill="#505050" width="15.456" height="24.358" x="460.649" y="-200.334"/>
     <rect  id="rect6106-7" fill="#0000F7" width="15.471" height="14.725" x="460.649" y="-195.513"/>
    </g>
   </g>
   <g transform="matrix(0.253118, 0, 0, 0.253118, 52.495, 77.4373)">
    <g  id="g14302">
     <rect  id="rect8764-5-5" fill="#505050" width="15.461" height="24.362" x="-90.476" y="69.353"/>
     <rect  id="rect6106-7-6" fill="#E6E6E6" width="15.473" height="14.723" x="-90.482" y="74.17"/>
    </g>
   </g>
   <g transform="matrix(1, 0, 0, 1, -63.9709, 87.725)">
    <g  id="g4265">
     <path  id="path6010-1" fill="#666666" d="M223.693,-19.762c0,-0.591,-0.473,-1.078,-1.092,-1.167l0,-0.018l-4.412,0c-0.714,0,-1.295,0.53,-1.295,1.186s0.58,1.186,1.295,1.186l4.412,0l0,-0.019C223.22,-18.684,223.693,-19.172,223.693,-19.762L223.693,-19.762z"/>
     <path  id="path14215" fill="#666666" d="M223.693,-7.05c0,-0.592,-0.473,-1.078,-1.092,-1.167l0,-0.019l-4.412,0c-0.714,0,-1.295,0.531,-1.295,1.186s0.58,1.187,1.295,1.187l4.412,0l0,-0.019C223.22,-5.973,223.693,-6.459,223.693,-7.05L223.693,-7.05z"/>
     <path  id="path14217" fill="#666666" d="M237.767,-19.762c0,-0.591,-0.473,-1.078,-1.092,-1.167l0,-0.018l-4.412,0c-0.715,0,-1.296,0.53,-1.296,1.186s0.58,1.186,1.296,1.186l4.412,0l0,-0.019C237.293,-18.684,237.767,-19.172,237.767,-19.762L237.767,-19.762z"/>
     <path  id="path14219" fill="#666666" d="M237.767,-7.05c0,-0.592,-0.473,-1.078,-1.092,-1.167l0,-0.019l-4.412,0c-0.715,0,-1.296,0.531,-1.296,1.186s0.58,1.187,1.296,1.187l4.412,0l0,-0.019C237.293,-5.973,237.767,-6.459,237.767,-7.05L237.767,-7.05z"/>
     <rect  id="rect6112-4" fill="#8C8C8C" width="16.976" height="17.359" x="218.782" y="-21.829"/>
     <path  id="path6114-6" fill="#404040" d="M235.377,-19.389c0,0.854,-0.691,1.546,-1.547,1.546c-0.852,0,-1.545,-0.689,-1.545,-1.546c0,-0.851,0.689,-1.545,1.545,-1.545C234.685,-20.931,235.377,-20.238,235.377,-19.389z"/>
     <path  id="path6116-8" fill="#404040" d="M222.392,-19.389c0,0.854,-0.691,1.546,-1.545,1.546c-0.855,0,-1.547,-0.689,-1.547,-1.546c0,-0.851,0.69,-1.545,1.547,-1.545C221.703,-20.931,222.392,-20.238,222.392,-19.389z"/>
     <circle  id="circle6118-9" fill="#404040" cx="220.847" cy="-6.398" r="1.544"/>
     <circle  id="circle6120-8" fill="#404040" cx="233.834" cy="-6.398" r="1.544"/>
     <circle  id="circle6122-3" fill="#404040" cx="227.264" cy="-13.15" r="5.015"/>
    </g>
   </g>
   <g transform="matrix(1, 0, 0, 1, 0, 10.634)">
    <g  id="g4353">
     <rect  id="MicroUSB" fill="#999999" width="14.638" height="22.734" x="4.968" y="64.405"/>
     <g transform="matrix(0, -0.590994, 0.590994, 0, -2.21304, 86.4396)">
      <g  id="g5520">
       <path  id="path5522" fill="#4D4D4D" d="M30.043,24.499l-2.641,-1.524l0,1.134L13.433,24.109c0.516,-0.416,1.008,-0.965,1.495,-1.506c0.801,-0.894,1.628,-1.819,2.337,-1.819l2.275,0c0.142,0.521,0.598,0.914,1.164,0.914c0.677,0,1.225,-0.549,1.225,-1.226c0,-0.677,-0.549,-1.225,-1.225,-1.225c-0.566,0,-1.022,0.391,-1.164,0.913l-2.275,0c-0.987,0,-1.87,0.984,-2.803,2.028c-0.745,0.83,-1.51,1.676,-2.256,1.923l-1.822,0c-0.184,-1.021,-1.072,-1.793,-2.145,-1.793c-1.206,0,-2.184,0.976,-2.184,2.184s0.978,2.185,2.184,2.185c1.073,0,1.961,-0.775,2.145,-1.794l5.198,0c0.746,0.247,1.51,1.093,2.253,1.923c0.936,1.043,1.818,2.025,2.803,2.025l2.142,0l0,0.986l2.597,0l0,-2.596l-2.597,0l0,0.985l-2.142,0c-0.706,0,-1.536,-0.924,-2.337,-1.818c-0.484,-0.541,-0.979,-1.091,-1.493,-1.506l10.595,0l0,1.134L30.043,24.499z"/>
      </g>
     </g>
    </g>
   </g>
   <rect  id="rect4358" width="57.273" height="41.338" x="-0.519" y="18.268"/>
   <rect  id="rect4370" fill="#999999" width="39.268" height="45.224" x="40.985" y="100.043"/>
   <g transform="matrix(1, 0, 0, 1, 0, 1.90179e-05)">
    <g  id="g3447">
     <rect  id="rect4526" fill="#505050" width="3.262" height="6.166" x="12.499" y="6.938"/>
     <rect  id="rect4528" fill="#008000" width="3.264" height="3.728" x="12.497" y="8.158"/>
    </g>
   </g>
   <g transform="matrix(1, 0, 0, 1, 22.7256, 1.90179e-05)">
    <g  id="g5326">
     <rect  id="rect5328" fill="#505050" width="3.262" height="6.166" x="12.504" y="6.938"/>
     <rect  id="rect5330" fill="#FFA700" width="3.265" height="3.728" x="12.502" y="8.158"/>
    </g>
   </g>
   <g transform="matrix(1, 0, 0, 1, 0, 1.90179e-05)">
    <g  id="g3431">
     <rect  id="rect3429" fill="#666666" width="4.536" height="2.275" x="25.909" y="139.383"/>
     <g transform="matrix(0.989748, 0, 0, 0.953964, -0.285822, 5.91456)">
      <g  id="g9337">
       <rect  id="rect6264-2" width="34.397" height="25.705" x="5.04" y="114.7"/>
       <rect  id="rect6266-3" width="7.889" height="26.748" x="1.856" y="114.18"/>
      </g>
     </g>
    </g>
   </g>
   <g transform="matrix(1, 0, 0, 1, 11.4144, 1.90179e-05)">
    <g  id="use3451">
     <g transform="matrix(1, 0, 0, 1, 0, 1.90179e-05)">
      <g  id="g3447_1_">
       <rect  id="rect4526_1_" fill="#505050" width="3.263" height="6.166" x="21.634" y="6.938"/>
       <rect  id="rect4528_1_" fill="#008000" width="3.265" height="3.728" x="21.633" y="8.158"/>
      </g>
     </g>
    </g>
   </g>
   <g  id="text3151">
    <g transform="matrix(1, 0, 0, 1, 120.687, 22.7256)">
     <text  id="tspan3153" fill="#FFFFFF" font-family="'DroidSans'" font-size="5.6013">Digital I/O</text>
    </g>
   </g>
   <g  id="text3161">
    <g transform="matrix(1, 0, 0, 1, 172.169, 24.2739)">
     <text  id="tspan3163" fill="#FFFFFF" font-family="'DroidSans'" font-size="4.8011">LED</text>
    </g>
   </g>
   <g transform="scale(0.93172948,1.0732729)">
    <g  id="text3165">
     <g transform="matrix(0.9317, 0, 0, 0.9317, 29.2787, 86.0767)">
      <text  id="tspan3167" fill="#FFFFFF" font-family="'DroidSans'" font-size="4.4645">PWR</text>
     </g>
    </g>
   </g>
   <g  id="text3169">
    <g transform="matrix(1, 0, 0, 1, 108.424, 128.34)">
     <text  id="tspan3171" fill="#FFFFFF" font-family="'DroidSans'" font-size="5.6013">Power</text>
    </g>
   </g>
   <g  id="text3173">
    <g transform="matrix(1, 0, 0, 1, 157.142, 130.853)">
     <text  id="tspan3175" fill="#FFFFFF" font-family="'DroidSans'" font-size="5.6013">Analog In</text>
    </g>
   </g>
   <g transform="scale(1.0689727,0.93547758)">
    <g  id="text3177">
     <g transform="matrix(1.069, 0, 0, 1.069, 115.554, 126.304)">
      <text  id="tspan3179" fill="#FFFFFF" font-family="'DroidSansMono'" font-size="6.1642">www.netduino.com</text>
     </g>
    </g>
   </g>
   <g  id="text3265">
    <g transform="matrix(1, 0, 0, 1, 16.1622, 147.955)">
     <text  id="tspan3267" fill="#FFFFFF" font-family="'DroidSans'" font-size="4.8011">7.5-12V</text>
    </g>
   </g>
   <g  id="text3269">
    <g transform="matrix(1, 0, 0, 1, 173.42, 75.7617)">
     <text  id="tspan3271" fill="#FFFFFF" font-family="'DroidSans'" font-size="4.8011">SW1</text>
    </g>
   </g>
   <g  id="g10385">
    <g transform="matrix(0,-1,1,0,0,0)">
     <g  id="text10006">
      <g transform="matrix(1, 0, 0, 1, -18.2295, 62.3361)">
       <text  id="tspan10008" fill="#FFFFFF" font-family="'DroidSans'" font-size="5.6013">SC</text>
      </g>
     </g>
    </g>
    <g transform="matrix(0,-1,1,0,0,0)">
     <g  id="text10006_1_">
      <g transform="matrix(1, 0, 0, 1, -18.2295, 69.4723)">
       <text  id="tspan10008_1_" fill="#FFFFFF" font-family="'DroidSans'" font-size="5.6013">SD</text>
      </g>
     </g>
    </g>
    <g transform="matrix(0,-1,1,0,0,0)">
     <g  id="text10010">
      <g transform="matrix(1, 0, 0, 1, -21.7422, 83.6183)">
       <text  id="tspan10012" fill="#FFFFFF" font-family="'DroidSans'" font-size="5.6013">Gnd</text>
      </g>
     </g>
    </g>
    <g transform="matrix(0,-1,1,0,0,0)">
     <g  id="text10014">
      <g transform="matrix(1, 0, 0, 1, -17.4785, 90.9215)">
       <text  id="tspan10016" fill="#FFFFFF" font-family="'DroidSans'" font-size="5.6013">13</text>
      </g>
     </g>
    </g>
    <g transform="matrix(0,-1,1,0,0,0)">
     <g  id="text10018">
      <g transform="matrix(1, 0, 0, 1, -17.4756, 98.1891)">
       <text  id="tspan10020" fill="#FFFFFF" font-family="'DroidSans'" font-size="5.6013">12</text>
      </g>
     </g>
    </g>
    <g transform="matrix(0,-1,1,0,0,0)">
     <g  id="text10022">
      <g transform="matrix(1, 0, 0, 1, -17.46, 105.457)">
       <text  id="tspan10024" fill="#FFFFFF" font-family="'DroidSans'" font-size="5.6013">11</text>
      </g>
     </g>
    </g>
    <g transform="matrix(0,-1,1,0,0,0)">
     <g  id="text10026">
      <g transform="matrix(1, 0, 0, 1, -17.4619, 112.646)">
       <text  id="tspan10028" fill="#FFFFFF" font-family="'DroidSans'" font-size="5.6013">10</text>
      </g>
     </g>
    </g>
    <g transform="matrix(0,-1,1,0,0,0)">
     <g  id="text10030">
      <g transform="matrix(1, 0, 0, 1, -14.3731, 119.926)">
       <text  id="tspan10032" fill="#FFFFFF" font-family="'DroidSans'" font-size="5.6013">9</text>
      </g>
     </g>
    </g>
    <g transform="matrix(0,-1,1,0,0,0)">
     <g  id="text10034">
      <g transform="matrix(1, 0, 0, 1, -14.3887, 127.217)">
       <text  id="tspan10036" fill="#FFFFFF" font-family="'DroidSans'" font-size="5.6013">8</text>
      </g>
     </g>
    </g>
   </g>
   <g  id="g10403">
    <g transform="matrix(0,-1,1,0,0,0)">
     <g  id="text10038">
      <g transform="matrix(1, 0, 0, 1, -14.4981, 138.429)">
       <text  id="tspan10040" fill="#FFFFFF" font-family="'DroidSans'" font-size="5.6013">7</text>
      </g>
     </g>
    </g>
    <g transform="matrix(0,-1,1,0,0,0)">
     <g  id="text10042">
      <g transform="matrix(1, 0, 0, 1, -14.4893, 145.769)">
       <text  id="tspan10044" fill="#FFFFFF" font-family="'DroidSans'" font-size="5.6013">6</text>
      </g>
     </g>
    </g>
    <g transform="matrix(0,-1,1,0,0,0)">
     <g  id="text10046">
      <g transform="matrix(1, 0, 0, 1, -14.5127, 152.876)">
       <text  id="tspan10048" fill="#FFFFFF" font-family="'DroidSans'" font-size="5.6013">5</text>
      </g>
     </g>
    </g>
    <g transform="matrix(0,-1,1,0,0,0)">
     <g  id="text10050">
      <g transform="matrix(1, 0, 0, 1, -14.4981, 160.062)">
       <text  id="tspan10052" fill="#FFFFFF" font-family="'DroidSans'" font-size="5.6013">4</text>
      </g>
     </g>
    </g>
    <g transform="matrix(0,-1,1,0,0,0)">
     <g  id="text10054">
      <g transform="matrix(1, 0, 0, 1, -14.5059, 167.345)">
       <text  id="tspan10056" fill="#FFFFFF" font-family="'DroidSans'" font-size="5.6013">3</text>
      </g>
     </g>
    </g>
    <g transform="matrix(0,-1,1,0,0,0)">
     <g  id="text10058">
      <g transform="matrix(1, 0, 0, 1, -14.5049, 174.368)">
       <text  id="tspan10060" fill="#FFFFFF" font-family="'DroidSans'" font-size="5.6013">2</text>
      </g>
     </g>
    </g>
    <g transform="matrix(0,-1,1,0,0,0)">
     <g  id="text10062">
      <g transform="matrix(1, 0, 0, 1, -14.4942, 181.693)">
       <text  id="tspan10064" fill="#FFFFFF" font-family="'DroidSans'" font-size="5.6013">1</text>
      </g>
     </g>
    </g>
    <g transform="matrix(0,-1,1,0,0,0)">
     <g  id="text10066">
      <g transform="matrix(1, 0, 0, 1, -14.5, 188.978)">
       <text  id="tspan10068" fill="#FFFFFF" font-family="'DroidSans'" font-size="5.6013">0</text>
      </g>
     </g>
    </g>
   </g>
   <g  id="g10433">
    <g transform="matrix(0,-1,1,0,0,0)">
     <g  id="text10082">
      <g transform="matrix(1, 0, 0, 1, -139.615, 102.499)">
       <text  id="tspan10084" fill="#FFFFFF" font-family="'DroidSans'" font-size="5.6013">/RESET</text>
      </g>
     </g>
    </g>
    <g transform="matrix(0,-1,1,0,0,0)">
     <g  id="text10082_2_">
      <g transform="matrix(1, 0, 0, 1, -139.615, 95.3658)">
       <text  fill="#FFFFFF" font-family="'DroidSans'" font-size="5.6013">I</text>
      </g>
      <g transform="matrix(1, 0, 0, 1, -137.773, 95.3658)">
       <text  fill="#FFFFFF" font-family="'DroidSans'" font-size="5.6013">O</text>
      </g>
      <g transform="matrix(1, 0, 0, 1, -133.615, 95.3658)">
       <text  fill="#FFFFFF" font-family="'DroidSans'" font-size="5.6013">R</text>
      </g>
      <g transform="matrix(1, 0, 0, 1, -130.312, 95.3658)">
       <text  fill="#FFFFFF" font-family="'DroidSans'" font-size="5.6013">E</text>
      </g>
      <g transform="matrix(1, 0, 0, 1, -127.355, 95.3658)">
       <text  fill="#FFFFFF" font-family="'DroidSans'" font-size="5.6013">F</text>
      </g>
     </g>
    </g>
    <g transform="matrix(0,-1,1,0,0,0)">
     <g  id="text10086">
      <g transform="matrix(1, 0, 0, 1, -139.635, 109.732)">
       <text  id="tspan10088" fill="#FFFFFF" font-family="'DroidSans'" font-size="5.6013">3V3</text>
      </g>
     </g>
    </g>
    <g transform="matrix(0,-1,1,0,0,0)">
     <g  id="text10090">
      <g transform="matrix(1, 0, 0, 1, -139.629, 117.116)">
       <text  id="tspan10092" fill="#FFFFFF" font-family="'DroidSans'" font-size="5.6013">5V</text>
      </g>
     </g>
    </g>
    <g transform="matrix(0,-1,1,0,0,0)">
     <g  id="text10094">
      <g transform="matrix(1, 0, 0, 1, -139.626, 138.693)">
       <text  id="tspan10096" fill="#FFFFFF" font-family="'DroidSans'" font-size="5.6013">Vin</text>
      </g>
     </g>
    </g>
    <g transform="matrix(0,-1,1,0,0,0)">
     <g  id="text10010-4">
      <g transform="matrix(1, 0, 0, 1, -139.619, 124.122)">
       <text  id="tspan10012-0" fill="#FFFFFF" font-family="'DroidSans'" font-size="5.6013">Gnd</text>
      </g>
     </g>
    </g>
    <g transform="matrix(0,-1,1,0,0,0)">
     <g  id="text10170">
      <g transform="matrix(1, 0, 0, 1, -139.619, 131.466)">
       <text  id="tspan10172" fill="#FFFFFF" font-family="'DroidSans'" font-size="5.6013">Gnd</text>
      </g>
     </g>
    </g>
   </g>
   <g  id="g10279">
    <g transform="matrix(0,-1,1,0,0,0)">
     <g  id="text10046-9">
      <g transform="matrix(1, 0, 0, 1, -139.629, 189.054)">
       <text  id="tspan10048-4" fill="#FFFFFF" font-family="'DroidSans'" font-size="5.6013">5</text>
      </g>
     </g>
    </g>
    <g transform="matrix(0,-1,1,0,0,0)">
     <g  id="text10050-8">
      <g transform="matrix(1, 0, 0, 1, -139.619, 181.766)">
       <text  id="tspan10052-8" fill="#FFFFFF" font-family="'DroidSans'" font-size="5.6013">4</text>
      </g>
     </g>
    </g>
    <g transform="matrix(0,-1,1,0,0,0)">
     <g  id="text10054-2">
      <g transform="matrix(1, 0, 0, 1, -139.629, 174.488)">
       <text  id="tspan10056-4" fill="#FFFFFF" font-family="'DroidSans'" font-size="5.6013">3</text>
      </g>
     </g>
    </g>
    <g transform="matrix(0,-1,1,0,0,0)">
     <g  id="text10058-5">
      <g transform="matrix(1, 0, 0, 1, -139.623, 167.203)">
       <text  id="tspan10060-5" fill="#FFFFFF" font-family="'DroidSans'" font-size="5.6013">2</text>
      </g>
     </g>
    </g>
    <g transform="matrix(0,-1,1,0,0,0)">
     <g  id="text10062-1">
      <g transform="matrix(1, 0, 0, 1, -139.616, 159.918)">
       <text  id="tspan10064-7" fill="#FFFFFF" font-family="'DroidSans'" font-size="5.6013">1</text>
      </g>
     </g>
    </g>
    <g transform="matrix(0,-1,1,0,0,0)">
     <g  id="text10066-1">
      <g transform="matrix(1, 0, 0, 1, -139.623, 152.634)">
       <text  id="tspan10068-1" fill="#FFFFFF" font-family="'DroidSans'" font-size="5.6013">0</text>
      </g>
     </g>
    </g>
   </g>
   <g  id="g4334">
    <g transform="matrix(0.272462, 0, 0, 0.272462, 89.9083, -5.09264)">
     <g  id="g4512">
      <path  id="path4514" fill="#FFFFFF" d="M348.27,204.052l0,-7.577l-2.832,0l0,-1.014l6.81,0l0,1.014l-2.839,0l0,7.577L348.27,204.052z"/>
      <path  id="path4516" fill="#FFFFFF" d="M353.374,204.052l0,-8.591l1.713,0l2.029,6.082c0.186,0.566,0.326,0.991,0.412,1.271c0.097,-0.312,0.247,-0.769,0.455,-1.376l2.057,-5.979l1.534,0l0,8.593l-1.1,0l0,-7.192l-2.498,7.192l-1.025,0l-2.48,-7.315l0,7.315L353.374,204.052L353.374,204.052z"/>
     </g>
    </g>
    <g  id="g4306">
     <path  id="path4225" fill="#FFFFFF" d="M140.099,45.971l0,-3.646c0,-1.641,1.146,-2.734,2.67,-2.734c1.521,0,2.668,1.094,2.668,2.734l0,3.646l-1.146,0l0,-3.646c0,-0.964,-0.703,-1.641,-1.521,-1.641c-0.82,0,-1.523,0.677,-1.523,1.641l0,3.646L140.099,45.971L140.099,45.971z"/>
     <path  id="path4227" fill="#FFFFFF" d="M148.461,43.914l-0.469,-0.911l3.086,-1.719c-0.391,-0.391,-0.717,-0.599,-1.42,-0.599c-1.184,0,-2.043,0.885,-2.043,2.161s0.859,2.162,2.043,2.162c1.355,0,1.861,-0.808,2.096,-1.953l1.16,0.143c-0.131,1.653,-1.459,2.903,-3.256,2.903c-1.73,0,-3.24,-1.328,-3.24,-3.254c0,-1.926,1.51,-3.254,3.24,-3.254c1.459,0,2.436,0.768,3.021,1.979L148.461,43.914L148.461,43.914z"/>
     <path  id="path4229" fill="#FFFFFF" d="M157.414,40.815l-2.24,0l0,3.281c0,0.586,0.273,0.781,0.858,0.781l1.381,0l0,1.094l-1.536,0c-1.172,0,-1.85,-0.781,-1.85,-2.018L154.027,38.16l1.146,0l0,1.562l2.239,0L157.414,40.815L157.414,40.815z"/>
     <path  id="path4231" fill="#FFFFFF" d="M164.315,36.859l0,5.806c0,2.058,-1.315,3.437,-3.151,3.437c-2.031,0,-3.229,-1.563,-3.229,-3.411c0,-1.745,1.406,-3.099,3.008,-3.099c0.623,0,1.223,0.13,1.77,0.442l0,1.198c-0.417,-0.286,-1.054,-0.546,-1.574,-0.546c-1.238,0,-2.058,0.859,-2.058,2.147c0,1.277,0.86,2.175,2.083,2.175c1.094,0,2.005,-0.833,2.005,-2.551L163.169,36.86L164.315,36.859L164.315,36.859z"/>
     <path  id="path4233" fill="#FFFFFF" d="M170.756,39.722l0,3.646c0,1.641,-1.146,2.734,-2.669,2.734s-2.67,-1.093,-2.67,-2.734l0,-3.645l1.146,0l0,3.646c0,0.963,0.703,1.641,1.523,1.641s1.523,-0.677,1.523,-1.641l0,-3.645L170.756,39.722L170.756,39.722z"/>
     <path  id="path4235" fill="#FFFFFF" d="M173.157,37.64c0.442,0,0.69,0.338,0.69,0.689s-0.249,0.69,-0.69,0.69c-0.443,0,-0.69,-0.339,-0.69,-0.69S172.714,37.64,173.157,37.64zM172.584,45.972l0,-6.249l1.146,0l0,6.249L172.584,45.972z"/>
     <path  id="path4237" fill="#FFFFFF" d="M175.547,45.971l0,-3.646c0,-1.641,1.146,-2.734,2.67,-2.734c1.521,0,2.668,1.094,2.668,2.734l0,3.646l-1.148,0l0,-3.645c0,-0.963,-0.703,-1.64,-1.522,-1.64c-0.821,0,-1.522,0.677,-1.522,1.64l0,3.645l-1.146,0L175.547,45.971z"/>
     <path  id="path4239" fill="#FFFFFF" d="M185.089,39.592c1.731,0,3.242,1.328,3.242,3.254s-1.511,3.254,-3.242,3.254c-1.732,0,-3.242,-1.328,-3.242,-3.254C181.847,40.92,183.357,39.592,185.089,39.592zM185.089,45.008c1.184,0,2.044,-0.885,2.044,-2.162s-0.859,-2.161,-2.044,-2.161c-1.186,0,-2.043,0.885,-2.043,2.161S183.904,45.008,185.089,45.008z"/>
    </g>
    <g transform="matrix(1, 0, 0, 1, 0.188679, -3.58491)">
     <g  id="g4316">
      <path  id="path4241" fill="#FFFFFF" d="M153.422,64.403l0,-5.754c0,-2.056,1.314,-3.437,3.15,-3.437c2.031,0,3.229,1.563,3.229,3.412c0,1.744,-1.405,3.098,-3.006,3.098c-0.625,0,-1.225,-0.13,-1.771,-0.442l0,-1.198c0.417,0.286,1.054,0.547,1.576,0.547c1.236,0,2.055,-0.86,2.055,-2.148c0,-1.275,-0.857,-2.174,-2.082,-2.174c-1.094,0,-2.005,0.833,-2.005,2.551l0,5.546L153.422,64.403L153.422,64.403z"/>
      <path  id="path4243" fill="#FFFFFF" d="M161.014,61.59l0,-9.112l1.146,0l0,9.112L161.014,61.59z"/>
      <path  id="path4245" fill="#FFFFFF" d="M168.956,55.342l0,3.645c0,1.641,-1.146,2.734,-2.668,2.734c-1.523,0,-2.67,-1.093,-2.67,-2.734l0,-3.645l1.146,0l0,3.645c0,0.963,0.704,1.641,1.523,1.641c0.82,0,1.522,-0.677,1.522,-1.641l0,-3.645L168.956,55.342L168.956,55.342z"/>
      <path  id="path4247" fill="#FFFFFF" d="M169.906,60.498l3.203,0c0.534,0,0.741,-0.208,0.741,-0.6c0,-1.146,-3.944,-0.703,-3.944,-2.864c0,-1.106,0.769,-1.692,2.136,-1.692l2.694,0l0,1.094l-2.89,0c-0.561,0,-0.729,0.156,-0.742,0.546c-0.014,1.081,3.944,0.625,3.944,2.865c0,1.185,-0.833,1.745,-1.939,1.745l-3.202,0L169.906,60.498L169.906,60.498z"/>
     </g>
    </g>
    <path  fill="#FFFFFF" d="M179.013,51.937c0,0,0.037,-2,2.025,-2s1.98,2.112,1.966,2.125s-0.078,0.863,-0.753,1.414c-0.674,0.55,-3.73,2.882,-4.037,3.188c-0.306,0.306,-0.426,1.325,0.424,1.325l5.389,0l0,-1.013l-4.521,0.018c0,0,3.501,-2.788,3.958,-3.245c0.455,-0.457,0.887,-2.501,0,-3.588c-0.888,-1.087,-1.852,-1.251,-2.514,-1.251s-2.967,0.5,-2.967,3.025C178.263,51.937,179.013,51.937,179.013,51.937z"/>
   </g>
   <g transform="matrix(1, 0, 0, 1, 0, 1.90179e-05)">
    <g  id="text3453">
     <g transform="matrix(1, 0, 0, 1, 11.1989, 4.8594)">
      <text  fill="#FFFFFF" font-family="'DroidSans'" font-size="3.2007">A</text>
     </g>
     <g transform="matrix(1, 0, 0, 1, 13.1139, 4.8594)">
      <text  fill="#FFFFFF" font-family="'DroidSans'" font-size="3.2007">C</text>
     </g>
     <g transform="matrix(1, 0, 0, 1, 15.0436, 4.8594)">
      <text  fill="#FFFFFF" font-family="'DroidSans'" font-size="3.2007">T</text>
     </g>
    </g>
   </g>
   <g transform="matrix(1, 0, 0, 1, 0, 1.90179e-05)">
    <g  id="text3457">
     <g transform="matrix(1, 0, 0, 1, 22.858, 4.8594)">
      <text  id="tspan3459" fill="#FFFFFF" font-family="'DroidSans'" font-size="3.2007">100</text>
     </g>
    </g>
   </g>
   <g transform="matrix(1, 0, 0, 1, 0, 1.90179e-05)">
    <g  id="text3461">
     <g transform="matrix(1, 0, 0, 1, 33.8185, 4.8594)">
      <text  fill="#FFFFFF" font-family="'DroidSans'" font-size="3.2007">F</text>
     </g>
     <g transform="matrix(1, 0, 0, 1, 35.3912, 4.8594)">
      <text  fill="#FFFFFF" font-family="'DroidSans'" font-size="3.2007">D</text>
     </g>
     <g transform="matrix(1, 0, 0, 1, 37.5494, 4.8594)">
      <text  fill="#FFFFFF" font-family="'DroidSans'" font-size="3.2007">X</text>
     </g>
    </g>
   </g>
   <g  id="text3471">
    <g transform="matrix(1, 0, 0, 1, 53.0875, 149.06)">
     <text  id="tspan3473" fill="#FFFFFF" font-family="'DroidSans'" font-size="4.0009">MicroSD</text>
    </g>
   </g>
  </g>
 </g>
</g>
</g></g></g><path stroke='#8c8c8c' stroke-width='2.15136' stroke-linecap='round' stroke-linejoin='round' fill='none' d='M175.652,91.5884L151.036,91.5884' />
<path stroke='#8c8c8c' stroke-width='2.15136' stroke-linecap='round' stroke-linejoin='round' fill='none' d='M175.652,98.7906L151.036,98.7906' />
<g partID='69610'><g transform='translate(204.859,87.0618)' ><g transform='matrix(0,1,-1,0,0,0)'  ><g xmlns="http://www.w3.org/2000/svg" id="breadboard">
 <rect xmlns="http://www.w3.org/2000/svg" id="connector0pin" fill="none" width="2.15208" height="0.72" x="3.45096" y="25.421"/>
 <rect xmlns="http://www.w3.org/2000/svg" id="connector1pin" fill="none" width="2.15424" height="0.72" x="10.651" y="25.421"/>
 <g xmlns="http://www.w3.org/2000/svg" id="connector0leg" fill="none" y1="40.565" y2="74.754" x1="6.287" x2="6.287" stroke="#8C8C8C" stroke-width="2.15136" stroke-linecap="round"/>
 <g xmlns="http://www.w3.org/2000/svg" id="connector1leg" fill="none" y1="40.565" y2="74.754" x1="16.29" x2="16.29" stroke="#8C8C8C" stroke-width="2.15136" stroke-linecap="round"/>
 <rect xmlns="http://www.w3.org/2000/svg" fill="#8C8C8C" width="2.15136" height="9.82728" x="3.45096" y="19.3795"/>
 <path xmlns="http://www.w3.org/2000/svg" fill="#8C8C8C" d="M12.8045,29.2068c0,-1.1736,-1.06488,-2.1024,-2.088,-2.9916c-0.41616,-0.3672,-1.19952,-1.00152,-1.19952,-1.42488l0,-5.47056l-2.16144,0l0,5.78016c0,1.0584,0.94752,1.87848,1.94616,2.74824c0.44424,0.37584,1.34856,1.24992,1.34856,1.76976"/>
 <g xmlns="http://www.w3.org/2000/svg" id="g12">
  <path xmlns="http://www.w3.org/2000/svg" opacity="0.3" id="color_path14" fill="#17ff8b" d="M14.1732,13.001L14.1732,7.0884C14.1732,3.1752,11.0052,0,7.08768,0C3.1752,0,0,3.16944,0,7.0884l0,13.649c1.47384,1.65096,4.0968,2.75256,7.08768,2.75256c4.61952,0,8.36856,-2.61792,8.36856,-5.85936l0,-1.52352C15.4555,14.9645,14.9818,13.9032,14.1732,13.001z"/>
  <path xmlns="http://www.w3.org/2000/svg" opacity="0.5" id="path16" fill="#E6E6E6" d="M14.1732,13.001L14.1732,7.0884C14.1732,3.1752,11.0052,0,7.08768,0C3.1752,0,0,3.16944,0,7.0884l0,13.649c1.47384,1.65096,4.0968,2.75256,7.08768,2.75256c4.61952,0,8.36856,-2.61792,8.36856,-5.85936l0,-1.52352C15.4555,14.9645,14.9818,13.9032,14.1732,13.001z"/>
  <path xmlns="http://www.w3.org/2000/svg" opacity="0.9" id="path18" fill="#D1D1D1" d="M14.1732,13.001l0,3.10536c0,2.73888,-3.16584,4.96512,-7.08552,4.96512C3.1752,21.0715,0,18.8525,0,16.1064l0,3.10536L0,20.736c1.47384,1.65168,4.0968,2.75256,7.08768,2.75256c4.61952,0,8.36856,-2.61792,8.36856,-5.85864L15.4562,16.1064C15.4555,14.9645,14.9818,13.9032,14.1732,13.001z"/>
  <path xmlns="http://www.w3.org/2000/svg" opacity="0.7" id="color_path20" fill="#17ff8b" d="M14.1732,13.001l0,3.10536c0,2.73888,-3.16584,4.96512,-7.08552,4.96512C3.1752,21.0715,0,18.8525,0,16.1064l0,3.10536L0,20.736c1.47384,1.65168,4.0968,2.75256,7.08768,2.75256c4.61952,0,8.36856,-2.61792,8.36856,-5.85864L15.4562,16.1064C15.4555,14.9645,14.9818,13.9032,14.1732,13.001z"/>
  <path xmlns="http://www.w3.org/2000/svg" opacity="0.25" id="color_path22" fill="#17ff8b" d="M14.1732,13.001l0,3.10536c0,2.73888,-3.16584,4.96512,-7.08552,4.96512C3.1752,21.0715,0,18.8525,0,16.1064l0,3.10536c1.47384,1.65024,4.0968,2.75256,7.08768,2.75256c4.61952,0,8.36856,-2.61792,8.36856,-5.85864C15.4555,14.9645,14.9818,13.9032,14.1732,13.001z"/>
  <ellipse xmlns="http://www.w3.org/2000/svg" opacity="0.25" id="ellipse24" fill="#E6E6E6" cx="7.08768" cy="16.1064" rx="7.08696" ry="4.9608"/>
  <ellipse xmlns="http://www.w3.org/2000/svg" opacity="0.25" id="color_ellipse26" fill="#17ff8b" cx="7.08768" cy="16.1064" rx="7.08696" ry="4.9608"/>
  <polygon xmlns="http://www.w3.org/2000/svg" id="polygon28" fill="#666666" points="2.2032,9.648,2.2032,16.1071,3.19608,16.1071,3.19608,13.0946,6.0156,13.0946,10.0123,8.80488,3.40704,8.80488"/>
  <polygon xmlns="http://www.w3.org/2000/svg" id="polygon30" fill="#666666" points="10.7784,8.52408,11.2147,9.03384,7.41168,13.0946,11.0599,13.0946,11.0599,16.1071,11.9736,16.1071,11.9736,8.52408"/>
  <path xmlns="http://www.w3.org/2000/svg" opacity="0.65" id="color_path32" fill="#17ff8b" d="M14.1732,13.001L14.1732,7.0884C14.1732,3.1752,11.0052,0,7.08768,0C3.1752,0,0,3.16944,0,7.0884l0,13.649c1.47384,1.65096,4.0968,2.75256,7.08768,2.75256c4.61952,0,8.36856,-2.61792,8.36856,-5.85936l0,-1.52352C15.4555,14.9645,14.9818,13.9032,14.1732,13.001z"/>
  <path xmlns="http://www.w3.org/2000/svg" opacity="0.5" id="path34" fill="#FFFFFF" d="M10.3882,3.75408l1.4364,-0.2736c-0.84168,-1.13184,-2.08224,-1.95768,-3.54168,-2.23848l0.25416,1.08072C9.30096,2.59344,9.94392,3.1032,10.3882,3.75408z"/>
  <path xmlns="http://www.w3.org/2000/svg" opacity="0.5" id="path36" fill="#FFFFFF" d="M0.76824,19.926l0,1.51992c0.64872,0.5292,1.43352,0.97632,2.3076,1.31688l0,-1.52496C2.19744,20.9016,1.41912,20.4559,0.76824,19.926z"/>
  <path xmlns="http://www.w3.org/2000/svg" opacity="0.5" id="path38" fill="#FFFFFF" d="M11.0729,20.2097c-0.2556,0.1224,-0.52992,0.22968,-0.80568,0.32976c-0.05832,0.01944,-0.11736,0.04032,-0.17784,0.05832c-0.56376,0.17928,-1.16136,0.31896,-1.79496,0.39456c-0.07488,0.00936,-0.1512,0.01872,-0.22464,0.01944c-0.3204,0.03024,-0.64368,0.05832,-0.97056,0.05832c-0.14832,0,-0.30744,-0.01512,-0.4716,-0.02376c-1.20024,-0.05688,-2.33064,-0.31464,-3.2976,-0.73944L3.33,11.9174L3.33,7.092c0,-1.47096,0.84816,-2.72952,2.0736,-3.34944L5.38128,3.68928l-1.24776,-1.512c-1.66968,1.00296,-2.79,2.8224,-2.79,4.91184l0,11.9052c-0.04968,-0.04968,-0.30816,-0.30888,-0.48024,-0.52992l-0.30744,0.6876c1.40112,1.48176,3.8088,2.46168,6.54264,2.46168c1.67976,0,3.23712,-0.37368,4.51152,-1.00224l-0.52704,-0.40896C11.0729,20.2097,11.0729,20.2097,11.0729,20.2097z"/>
 </g>
</g>
</g></g></g><g partID='70180'><line stroke-linecap='round' stroke='#000000' x1='143.842' y1='84.4776' x2='151.036' y2='91.5884' stroke-width='3.2' /><line stroke-linecap='round' stroke='#404040' x1='143.842' y1='84.4776' x2='151.036' y2='91.5884' stroke-width='1.6' /></g><g partID='70190'><line stroke-linecap='round' stroke='#000000' x1='7.22599' y1='124.401' x2='143.842' y2='84.4776' stroke-width='3.2' /><line stroke-linecap='round' stroke='#404040' x1='7.22599' y1='124.401' x2='143.842' y2='84.4776' stroke-width='1.6' /></g><g partID='70260'><line stroke-linecap='round' stroke='#8c0000' x1='143.842' y1='106.101' x2='143.836' y2='105.906' stroke-width='3.2' /><line stroke-linecap='round' stroke='#cc1414' x1='143.842' y1='106.101' x2='143.836' y2='105.906' stroke-width='1.6' /></g><g partID='70270'><line stroke-linecap='round' stroke='#8c0000' x1='151.036' y1='98.7906' x2='143.842' y2='106.101' stroke-width='3.2' /><line stroke-linecap='round' stroke='#cc1414' x1='151.036' y1='98.7906' x2='143.842' y2='106.101' stroke-width='1.6' /></g></svg>