<?xml version="1.0" encoding="UTF-8"?>
<svg width="17px" height="31px" viewBox="0 0 17 31" version="1.1" xmlns="http://www.w3.org/2000/svg" xmlns:xlink="http://www.w3.org/1999/xlink">
    <!-- Generator: Sketch 48.2 (47327) - http://www.bohemiancoding.com/sketch -->
    <title>Above_Colors</title>
    <desc>Created with Sketch.</desc>
    <defs></defs>
    <g id="Page-1" stroke="none" stroke-width="1" fill="none" fill-rule="evenodd" opacity="0.5">
        <g id="Originals-Copy" transform="translate(-127.000000, -1.000000)" fill="#FFFFFF" fill-rule="nonzero">
            <g id="Above_Colors" transform="translate(127.000000, 1.000000)">
                <path d="M14.428,4.214 L16.423,3.834 C15.254,2.262 13.531,1.115 11.504,0.725 L11.857,2.226 C12.918,2.602 13.811,3.31 14.428,4.214 Z" id="path34"></path>
                <path d="M1.067,26.675 L1.067,28.786 C1.968,29.521 3.058,30.142 4.272,30.615 L4.272,28.497 C3.052,28.03 1.971,27.411 1.067,26.675 Z" id="path36"></path>
                <path d="M15.379,27.069 C15.024,27.239 14.643,27.388 14.26,27.527 C14.179,27.554 14.097,27.583 14.013,27.608 C13.23,27.857 12.4,28.051 11.52,28.156 C11.416,28.169 11.31,28.182 11.208,28.183 C10.763,28.225 10.314,28.264 9.86,28.264 C9.654,28.264 9.433,28.243 9.205,28.231 C7.538,28.152 5.968,27.794 4.625,27.204 L4.625,15.552 L4.625,8.85 C4.625,6.807 5.803,5.059 7.505,4.198 L7.474,4.124 L5.741,2.024 C3.422,3.417 1.866,5.944 1.866,8.846 L1.866,25.381 C1.797,25.312 1.438,24.952 1.199,24.645 L0.772,25.6 C2.718,27.658 6.062,29.019 9.859,29.019 C12.192,29.019 14.355,28.5 16.125,27.627 L15.393,27.059 C15.379,27.069 15.379,27.069 15.379,27.069 Z" id="path38"></path>
            </g>
        </g>
    </g>
</svg>