<?xml version="1.0" encoding="UTF-8"?>
<svg width="522px" height="187px" viewBox="0 0 522 187" version="1.1" xmlns="http://www.w3.org/2000/svg" xmlns:xlink="http://www.w3.org/1999/xlink">
    <!-- Generator: Sketch 48.1 (47250) - http://www.bohemiancoding.com/sketch -->
    <title>Banner_Background</title>
    <desc>Created with Sketch.</desc>
    <defs></defs>
    <g id="SubPageDesign" stroke="none" stroke-width="1" fill="none" fill-rule="evenodd" transform="translate(-918.000000, -136.000000)">
        <g id="Banner" transform="translate(0.000000, 78.000000)">
            <g id="Banner_Background" transform="translate(916.000000, 58.000000)">
                <text id="using-Netduino.Found" opacity="0.508208786" font-family="CourierPrimeCode-Regular, Courier Prime Code" font-size="30" font-weight="normal" fill="#B09679">
                    <tspan x="0" y="176">using Netduino.Foundation;</tspan>
                </text>
                <g id="Circiut" opacity="0.43993433" transform="translate(266.000000, 0.000000)" fill="#555555">
                    <path d="M230.188,174.113 C230.094,174.019 229.967,173.966 229.834,173.966 L213.648,173.966 L206.61,166.927 C207.026,166.366 207.28,165.679 207.28,164.928 C207.28,163.066 205.765,161.551 203.902,161.551 C202.04,161.551 200.526,163.066 200.526,164.928 C200.526,166.791 202.04,168.306 203.902,168.306 C204.654,168.306 205.341,168.051 205.904,167.635 L213.087,174.82 C213.181,174.914 213.308,174.966 213.441,174.966 L229.627,174.966 L241.317,186.657 C241.41,186.75 241.537,186.803 241.67,186.803 L284.088,186.803 L284.088,185.803 L241.877,185.803 L230.188,174.113 Z M201.45,164.928 C201.45,163.577 202.55,162.476 203.902,162.476 C205.255,162.476 206.355,163.577 206.355,164.928 C206.355,166.281 205.255,167.381 203.902,167.381 C202.55,167.381 201.45,166.281 201.45,164.928 Z" id="Fill-34"></path>
                    <path d="M225.862,150.005 C225.769,149.912 225.642,149.859 225.509,149.859 L70.563,149.859 L50.58,129.876 C50.486,129.783 50.36,129.73 50.227,129.73 L43.814,129.73 L36.935,122.852 C37.351,122.291 37.606,121.603 37.606,120.853 C37.606,118.991 36.091,117.475 34.229,117.475 C32.366,117.475 30.852,118.991 30.852,120.853 C30.852,122.715 32.366,124.23 34.229,124.23 C34.98,124.23 35.667,123.975 36.228,123.559 L43.253,130.584 C43.347,130.677 43.474,130.73 43.607,130.73 L50.02,130.73 L70.002,150.712 C70.096,150.806 70.223,150.859 70.356,150.859 L225.302,150.859 L240.835,166.392 C240.929,166.486 241.056,166.539 241.189,166.539 L284.088,166.539 L284.088,165.539 L241.396,165.539 L225.862,150.005 Z M31.777,120.853 C31.777,119.501 32.876,118.401 34.229,118.401 C35.581,118.401 36.681,119.501 36.681,120.853 C36.681,122.205 35.581,123.304 34.229,123.304 C32.876,123.304 31.777,122.205 31.777,120.853 Z" id="Fill-37"></path>
                    <path d="M228.043,144.184 C227.95,144.099 227.829,144.052 227.704,144.052 L72.415,144.052 L51.209,122.847 C51.623,122.288 51.876,121.601 51.876,120.853 C51.876,118.991 50.36,117.475 48.499,117.475 C46.636,117.475 45.122,118.991 45.122,120.853 C45.122,122.715 46.636,124.23 48.499,124.23 C49.251,124.23 49.941,123.973 50.503,123.555 L71.855,144.906 C71.948,144.999 72.075,145.052 72.208,145.052 L227.509,145.052 L241.518,157.961 C241.61,158.046 241.732,158.093 241.857,158.093 L284.088,158.093 L284.088,157.093 L242.052,157.093 L228.043,144.184 Z M46.047,120.853 C46.047,119.501 47.147,118.401 48.499,118.401 C49.851,118.401 50.95,119.501 50.95,120.853 C50.95,122.205 49.851,123.304 48.499,123.304 C47.147,123.304 46.047,122.205 46.047,120.853 Z" id="Fill-38"></path>
                    <path d="M208.267,114.813 C208.173,114.719 208.046,114.667 207.913,114.667 L56.856,114.667 L51.506,109.317 C51.412,109.223 51.285,109.17 51.153,109.17 L40.186,109.17 L34.452,103.438 C34.629,103.029 34.729,102.58 34.729,102.106 C34.729,100.245 33.214,98.729 31.352,98.729 C29.49,98.729 27.974,100.245 27.974,102.106 C27.974,103.968 29.49,105.484 31.352,105.484 C32.373,105.484 33.279,105.018 33.9,104.298 L39.625,110.024 C39.719,110.118 39.846,110.17 39.979,110.17 L50.946,110.17 L56.295,115.52 C56.389,115.614 56.516,115.667 56.649,115.667 L207.706,115.667 L240.835,148.796 C240.929,148.89 241.056,148.943 241.189,148.943 L284.088,148.943 L284.088,147.943 L241.396,147.943 L208.267,114.813 Z M31.352,104.558 C29.999,104.558 28.9,103.459 28.9,102.106 C28.9,100.754 29.999,99.655 31.352,99.655 C32.704,99.655 33.804,100.754 33.804,102.106 C33.804,103.459 32.704,104.558 31.352,104.558 Z" id="Fill-39"></path>
                    <path d="M210.643,108.529 C210.549,108.435 210.422,108.382 210.289,108.382 L59.927,108.382 L53.298,101.752 C53.204,101.659 53.077,101.606 52.945,101.606 L48.948,101.606 C48.704,99.982 47.312,98.729 45.622,98.729 C43.76,98.729 42.245,100.245 42.245,102.106 C42.245,103.968 43.76,105.484 45.622,105.484 C47.313,105.484 48.704,104.23 48.948,102.606 L52.738,102.606 L59.366,109.236 C59.46,109.33 59.587,109.382 59.72,109.382 L210.082,109.382 L240.833,140.132 C240.927,140.226 241.054,140.279 241.187,140.279 L284.088,140.279 L284.088,139.279 L241.394,139.279 L210.643,108.529 Z M45.622,104.558 C44.27,104.558 43.17,103.459 43.17,102.106 C43.17,100.754 44.27,99.655 45.622,99.655 C46.974,99.655 48.073,100.754 48.073,102.106 C48.073,103.459 46.974,104.558 45.622,104.558 Z" id="Fill-40"></path>
                    <path d="M69.341,123.73 C69.341,125.42 70.594,126.812 72.218,127.056 L72.218,128.114 C72.218,128.247 72.271,128.373 72.365,128.467 L76.855,132.958 C76.948,133.052 77.075,133.105 77.208,133.105 L90.452,133.105 C90.585,133.105 90.712,133.052 90.806,132.958 L96.31,127.457 L155.008,127.457 C155.122,129.217 156.575,130.619 158.362,130.619 C160.226,130.619 161.74,129.103 161.74,127.24 C161.74,125.378 160.226,123.864 158.362,123.864 C156.772,123.864 155.443,124.973 155.087,126.457 L96.103,126.457 C95.97,126.457 95.843,126.509 95.749,126.603 L90.245,132.105 L77.415,132.105 L73.218,127.907 L73.218,127.056 C74.842,126.812 76.095,125.42 76.095,123.73 C76.095,121.868 74.58,120.353 72.718,120.353 C70.857,120.353 69.341,121.868 69.341,123.73 Z M158.362,124.789 C159.715,124.789 160.816,125.888 160.816,127.24 C160.816,128.592 159.715,129.693 158.362,129.693 C157.011,129.693 155.911,128.592 155.911,127.24 C155.911,125.888 157.011,124.789 158.362,124.789 Z M75.17,123.73 C75.17,125.082 74.069,126.181 72.718,126.181 C71.366,126.181 70.267,125.082 70.267,123.73 C70.267,122.377 71.366,121.278 72.718,121.278 C74.069,121.278 75.17,122.377 75.17,123.73 Z" id="Fill-41"></path>
                    <path d="M204.442,92.291 C204.348,92.197 204.221,92.144 204.088,92.144 L19.188,92.144 C19.055,92.144 18.928,92.197 18.834,92.291 L14.156,96.967 C14.063,97.061 14.01,97.188 14.01,97.321 L14.01,115.01 C14.01,115.143 14.063,115.27 14.156,115.364 L17.48,118.687 C16.984,119.275 16.672,120.025 16.672,120.853 C16.672,122.715 18.187,124.23 20.049,124.23 C21.911,124.23 23.426,122.715 23.426,120.853 C23.426,118.991 21.911,117.475 20.049,117.475 C19.376,117.475 18.753,117.678 18.226,118.019 L15.01,114.803 L15.01,97.528 L19.395,93.144 L203.881,93.144 L240.206,129.468 C240.3,129.562 240.427,129.615 240.56,129.615 L284.088,129.615 L284.088,128.615 L240.767,128.615 L204.442,92.291 Z M22.501,120.853 C22.501,122.205 21.402,123.304 20.049,123.304 C18.697,123.304 17.597,122.205 17.597,120.853 C17.597,119.501 18.697,118.401 20.049,118.401 C21.402,118.401 22.501,119.501 22.501,120.853 Z" id="Fill-42"></path>
                    <path d="M206.596,85.551 C206.502,85.458 206.375,85.405 206.242,85.405 L17.197,85.405 C17.064,85.405 16.937,85.458 16.843,85.551 L8.728,93.667 C8.634,93.761 8.581,93.888 8.581,94.021 L8.581,116.377 L6.575,118.383 C5.972,117.825 5.172,117.475 4.287,117.475 C2.425,117.475 0.91,118.991 0.91,120.853 C0.91,122.715 2.425,124.23 4.287,124.23 C6.15,124.23 7.665,122.715 7.665,120.853 C7.665,120.239 7.487,119.669 7.199,119.172 L9.435,116.938 C9.528,116.844 9.581,116.717 9.581,116.584 L9.581,94.228 L17.403,86.405 L206.035,86.405 L240.835,121.207 C240.929,121.3 241.056,121.353 241.189,121.353 L284.088,121.353 L284.088,120.353 L241.396,120.353 L206.596,85.551 Z M6.74,120.853 C6.74,122.205 5.64,123.304 4.287,123.304 C2.935,123.304 1.835,122.205 1.835,120.853 C1.835,119.501 2.935,118.401 4.287,118.401 C5.64,118.401 6.74,119.501 6.74,120.853 Z" id="Fill-43"></path>
                    <path d="M202.587,0.371 C202.493,0.278 202.367,0.226 202.235,0.226 L43.96,0.226 C43.827,0.226 43.7,0.279 43.607,0.373 L19.251,24.729 C19.157,24.823 19.105,24.95 19.105,25.083 L19.105,29.165 C17.48,29.41 16.227,30.8 16.227,32.492 C16.227,34.353 17.741,35.869 19.605,35.869 C21.466,35.869 22.982,34.353 22.982,32.492 C22.982,30.8 21.728,29.41 20.105,29.165 L20.105,25.29 L44.167,1.226 L202.03,1.226 L240.837,39.59 C240.931,39.683 241.058,39.735 241.189,39.735 L284.088,39.735 L284.088,38.735 L241.395,38.735 L202.587,0.371 Z M22.056,32.492 C22.056,33.843 20.956,34.943 19.605,34.943 C18.252,34.943 17.152,33.843 17.152,32.492 C17.152,31.14 18.252,30.041 19.605,30.041 C20.956,30.041 22.056,31.14 22.056,32.492 Z" id="Fill-44"></path>
                    <path d="M202.432,7.105 C202.338,7.011 202.211,6.958 202.078,6.958 L46.648,6.958 C46.515,6.958 46.388,7.011 46.294,7.105 L27.07,26.329 C26.976,26.422 26.923,26.549 26.923,26.682 L26.923,29.291 C25.565,29.729 24.572,30.99 24.572,32.492 C24.572,34.353 26.087,35.869 27.949,35.869 C29.812,35.869 31.326,34.353 31.326,32.492 C31.326,30.629 29.812,29.115 27.949,29.115 C27.941,29.115 27.932,29.118 27.923,29.118 L27.923,26.889 L46.855,7.959 L201.871,7.959 L240.835,46.922 C240.929,47.016 241.056,47.069 241.189,47.069 L284.088,47.069 L284.088,46.069 L241.396,46.069 L202.432,7.105 Z M30.402,32.492 C30.402,33.843 29.302,34.943 27.949,34.943 C26.597,34.943 25.497,33.843 25.497,32.492 C25.497,31.14 26.597,30.041 27.949,30.041 C29.302,30.041 30.402,31.14 30.402,32.492 Z" id="Fill-45"></path>
                    <path d="M200.366,17.049 C200.273,16.956 200.146,16.903 200.013,16.903 L57.304,16.903 C57.171,16.903 57.044,16.956 56.95,17.049 L45.568,28.434 C45.474,28.528 45.421,28.655 45.421,28.788 L45.421,35.819 L34.413,46.827 C33.853,46.411 33.165,46.156 32.414,46.156 C30.552,46.156 29.036,47.67 29.036,49.533 C29.036,51.395 30.552,52.91 32.414,52.91 C34.277,52.91 35.791,51.395 35.791,49.533 C35.791,48.782 35.536,48.095 35.12,47.534 L46.275,36.379 C46.368,36.286 46.421,36.159 46.421,36.026 L46.421,28.995 L57.511,17.903 L199.806,17.903 L240.573,58.67 C240.666,58.764 240.793,58.817 240.926,58.817 L284.088,58.817 L284.088,57.817 L241.133,57.817 L200.366,17.049 Z M34.866,49.533 C34.866,50.885 33.767,51.985 32.414,51.985 C31.062,51.985 29.962,50.885 29.962,49.533 C29.962,48.181 31.062,47.081 32.414,47.081 C33.767,47.081 34.866,48.181 34.866,49.533 Z" id="Fill-46"></path>
                    <path d="M197.525,22.941 C197.431,22.847 197.304,22.794 197.171,22.794 L61.095,22.794 C60.962,22.794 60.835,22.847 60.741,22.941 L51.79,31.892 C51.697,31.986 51.644,32.113 51.644,32.246 L51.644,39.028 L44.222,46.449 C43.803,46.263 43.343,46.156 42.857,46.156 C40.995,46.156 39.48,47.67 39.48,49.533 C39.48,51.395 40.995,52.91 42.857,52.91 C44.719,52.91 46.234,51.395 46.234,49.533 C46.234,48.524 45.78,47.627 45.077,47.008 L52.497,39.588 C52.591,39.495 52.644,39.368 52.644,39.235 L52.644,32.453 L61.302,23.794 L196.964,23.794 L240.835,67.667 C240.929,67.761 241.056,67.814 241.189,67.814 L284.088,67.814 L284.088,66.814 L241.396,66.814 L197.525,22.941 Z M45.309,49.533 C45.309,50.885 44.208,51.985 42.857,51.985 C41.505,51.985 40.405,50.885 40.405,49.533 C40.405,48.181 41.505,47.081 42.857,47.081 C44.208,47.081 45.309,48.181 45.309,49.533 Z" id="Fill-47"></path>
                    <path d="M207.22,47.975 C207.126,47.881 206.999,47.829 206.866,47.829 L60.817,47.829 C60.684,47.829 60.557,47.881 60.463,47.975 L48.259,60.179 C47.741,59.856 47.136,59.662 46.484,59.662 C44.621,59.662 43.107,61.176 43.107,63.039 C43.107,64.901 44.621,66.416 46.484,66.416 C48.345,66.416 49.86,64.901 49.86,63.039 C49.86,62.192 49.536,61.426 49.019,60.832 L61.024,48.829 L206.659,48.829 L240.484,82.653 C240.577,82.747 240.704,82.799 240.837,82.799 L284.088,82.799 L284.088,81.799 L241.044,81.799 L207.22,47.975 Z M48.935,63.039 C48.935,64.391 47.835,65.491 46.484,65.491 C45.131,65.491 44.031,64.391 44.031,63.039 C44.031,61.687 45.131,60.586 46.484,60.586 C47.835,60.586 48.935,61.687 48.935,63.039 Z" id="Fill-48"></path>
                    <path d="M204.84,53.781 C204.746,53.687 204.619,53.634 204.487,53.634 L63.688,53.634 C63.555,53.634 63.428,53.687 63.334,53.781 L58.743,58.373 C58.646,58.47 58.597,58.598 58.597,58.726 C58.597,58.854 58.646,58.982 58.743,59.08 L60.293,60.629 C59.877,61.191 59.622,61.878 59.622,62.629 C59.622,64.492 61.138,66.006 63,66.006 C64.862,66.006 66.377,64.492 66.377,62.629 C66.377,60.767 64.862,59.252 63,59.252 C62.249,59.252 61.562,59.506 61,59.922 L59.804,58.726 L63.895,54.634 L204.279,54.634 L240.835,91.191 C240.929,91.285 241.056,91.337 241.189,91.337 L284.088,91.337 L284.088,90.337 L241.396,90.337 L204.84,53.781 Z M65.452,62.629 C65.452,63.982 64.353,65.082 63,65.082 C61.648,65.082 60.548,63.982 60.548,62.629 C60.548,61.278 61.648,60.177 63,60.177 C64.353,60.177 65.452,61.278 65.452,62.629 Z" id="Fill-49"></path>
                    <path d="M199.811,60.848 C199.717,60.754 199.59,60.702 199.457,60.702 L77.208,60.702 C77.075,60.702 76.948,60.754 76.855,60.848 L68.296,69.408 L53.685,69.408 C53.552,69.408 53.425,69.46 53.331,69.554 L48.572,74.314 C47.995,73.855 47.276,73.569 46.484,73.569 C44.621,73.569 43.107,75.084 43.107,76.946 C43.107,78.808 44.621,80.323 46.484,80.323 C48.345,80.323 49.86,78.808 49.86,76.946 C49.86,76.237 49.638,75.581 49.264,75.037 L53.892,70.408 L68.503,70.408 C68.636,70.408 68.763,70.355 68.857,70.261 L77.415,61.702 L199.25,61.702 L241.059,103.51 C241.153,103.604 241.279,103.657 241.412,103.657 L284.088,103.657 L284.088,102.657 L241.619,102.657 L199.811,60.848 Z M48.935,76.946 C48.935,78.297 47.835,79.397 46.484,79.397 C45.131,79.397 44.031,78.297 44.031,76.946 C44.031,75.594 45.131,74.494 46.484,74.494 C47.835,74.494 48.935,75.594 48.935,76.946 Z" id="Fill-50"></path>
                    <path d="M196.579,65.562 C196.485,65.468 196.359,65.416 196.226,65.416 L80.359,65.416 C80.226,65.416 80.099,65.468 80.005,65.562 L70.191,75.377 L64.615,75.377 C64.482,75.377 64.355,75.429 64.261,75.523 L63.578,76.205 C63.017,75.789 62.329,75.535 61.578,75.535 C59.716,75.535 58.201,77.049 58.201,78.911 C58.201,80.773 59.716,82.288 61.578,82.288 C63.441,82.288 64.956,80.773 64.956,78.911 C64.956,78.161 64.701,77.473 64.285,76.912 L64.822,76.376 L70.398,76.376 C70.53,76.376 70.657,76.324 70.751,76.23 L80.566,66.416 L196.019,66.416 L240.835,111.233 C240.929,111.327 241.056,111.379 241.189,111.379 L284.088,111.379 L284.088,110.379 L241.396,110.379 L196.579,65.562 Z M64.03,78.911 C64.03,80.263 62.931,81.363 61.578,81.363 C60.226,81.363 59.126,80.263 59.126,78.911 C59.126,77.559 60.226,76.459 61.578,76.459 C62.931,76.459 64.03,77.559 64.03,78.911 Z" id="Fill-51"></path>
                    <path d="M61.238,123.73 C61.238,125.42 62.49,126.812 64.115,127.056 L64.115,129.365 C64.115,129.498 64.167,129.624 64.261,129.718 L73.707,139.165 C73.801,139.258 73.928,139.311 74.061,139.311 L94.435,139.311 C94.568,139.311 94.694,139.258 94.788,139.165 L98.531,135.42 L163.154,135.42 C163.286,135.42 163.413,135.369 163.507,135.275 L169.13,129.652 C169.74,130.248 170.571,130.619 171.488,130.619 C173.351,130.619 174.865,129.103 174.865,127.24 C174.865,125.378 173.351,123.864 171.488,123.864 C169.626,123.864 168.11,125.378 168.11,127.24 C168.11,127.821 168.272,128.359 168.531,128.837 L162.946,134.421 L98.324,134.421 C98.192,134.421 98.065,134.474 97.971,134.568 L94.228,138.311 L74.268,138.311 L65.115,129.158 L65.115,127.056 C66.737,126.812 67.991,125.42 67.991,123.73 C67.991,121.868 66.476,120.353 64.615,120.353 C62.751,120.353 61.238,121.868 61.238,123.73 Z M169.036,127.24 C169.036,125.888 170.136,124.789 171.488,124.789 C172.841,124.789 173.941,125.888 173.941,127.24 C173.941,128.592 172.841,129.693 171.488,129.693 C170.136,129.693 169.036,128.592 169.036,127.24 Z M67.066,123.73 C67.066,125.082 65.966,126.181 64.615,126.181 C63.262,126.181 62.162,125.082 62.162,123.73 C62.162,122.377 63.262,121.278 64.615,121.278 C65.966,121.278 67.066,122.377 67.066,123.73 Z" id="Fill-146"></path>
                    <path d="M88.023,78.911 C88.023,77.049 86.507,75.535 84.646,75.535 C82.783,75.535 81.269,77.049 81.269,78.911 C81.269,80.773 82.783,82.288 84.646,82.288 C86.507,82.288 88.023,80.773 88.023,78.911 Z M82.194,78.911 C82.194,77.559 83.293,76.459 84.646,76.459 C85.997,76.459 87.097,77.559 87.097,78.911 C87.097,80.263 85.997,81.363 84.646,81.363 C83.293,81.363 82.194,80.263 82.194,78.911 Z" id="Fill-147"></path>
                    <path d="M234.077,168.371 C233.984,168.277 233.857,168.224 233.724,168.224 L225.503,168.224 L224.308,167.029 C224.772,166.45 225.062,165.726 225.062,164.928 C225.062,163.066 223.546,161.551 221.685,161.551 C219.821,161.551 218.307,163.066 218.307,164.928 C218.307,166.791 219.821,168.306 221.685,168.306 C222.388,168.306 223.042,168.088 223.583,167.718 L224.943,169.078 C225.036,169.171 225.163,169.224 225.296,169.224 L233.517,169.224 L241.874,177.58 C241.968,177.673 242.095,177.726 242.228,177.726 L284.088,177.726 L284.088,176.726 L242.435,176.726 L234.077,168.371 Z M219.232,164.928 C219.232,163.577 220.332,162.476 221.685,162.476 C223.036,162.476 224.136,163.577 224.136,164.928 C224.136,166.281 223.036,167.381 221.685,167.381 C220.332,167.381 219.232,166.281 219.232,164.928 Z" id="Fill-149"></path>
                    <path d="M66.319,35.369 C66.319,33.506 64.804,31.992 62.941,31.992 C61.079,31.992 59.564,33.506 59.564,35.369 C59.564,37.231 61.079,38.746 62.941,38.746 C64.804,38.746 66.319,37.231 66.319,35.369 Z M60.49,35.369 C60.49,34.016 61.589,32.917 62.941,32.917 C64.293,32.917 65.394,34.016 65.394,35.369 C65.394,36.72 64.293,37.821 62.941,37.821 C61.589,37.821 60.49,36.72 60.49,35.369 Z" id="Fill-150"></path>
                    <path d="M89.543,35.369 C89.543,33.506 88.029,31.992 86.166,31.992 C84.304,31.992 82.79,33.506 82.79,35.369 C82.79,37.231 84.304,38.746 86.166,38.746 C88.029,38.746 89.543,37.231 89.543,35.369 Z M83.715,35.369 C83.715,34.016 84.815,32.917 86.166,32.917 C87.519,32.917 88.618,34.016 88.618,35.369 C88.618,36.72 87.519,37.821 86.166,37.821 C84.815,37.821 83.715,36.72 83.715,35.369 Z" id="Fill-151"></path>
                    <path d="M136.318,35.369 C136.318,33.506 134.803,31.992 132.941,31.992 C131.079,31.992 129.564,33.506 129.564,35.369 C129.564,37.231 131.079,38.746 132.941,38.746 C134.803,38.746 136.318,37.231 136.318,35.369 Z M130.49,35.369 C130.49,34.016 131.589,32.917 132.941,32.917 C134.292,32.917 135.393,34.016 135.393,35.369 C135.393,36.72 134.292,37.821 132.941,37.821 C131.589,37.821 130.49,36.72 130.49,35.369 Z" id="Fill-152"></path>
                    <path d="M254.101,19.918 C252.239,19.918 250.724,21.433 250.724,23.294 C250.724,25.157 252.239,26.672 254.101,26.672 C255.792,26.672 257.185,25.418 257.428,23.794 L284.088,23.794 L284.088,22.794 L257.428,22.794 C257.185,21.17 255.792,19.918 254.101,19.918 Z M254.101,25.747 C252.749,25.747 251.65,24.647 251.65,23.294 C251.65,21.943 252.749,20.843 254.101,20.843 C255.453,20.843 256.554,21.943 256.554,23.294 C256.554,24.647 255.453,25.747 254.101,25.747 Z" id="Fill-240"></path>
                </g>
            </g>
        </g>
    </g>
</svg>