<?xml version="1.0" encoding="UTF-8"?>
<svg width="387px" height="49px" viewBox="0 0 387 49" version="1.1" xmlns="http://www.w3.org/2000/svg" xmlns:xlink="http://www.w3.org/1999/xlink">
    <!-- Generator: Sketch 48.1 (47250) - http://www.bohemiancoding.com/sketch -->
    <title>WLabs_Footer_logo</title>
    <desc>Created with Sketch.</desc>
    <defs></defs>
    <g id="Netduino.Foundation-Web-Site" stroke="none" stroke-width="1" fill="none" fill-rule="evenodd" transform="translate(-159.000000, -2154.000000)">
        <g id="WLabs_Footer_logo" transform="translate(159.000000, 2154.000000)">
            <g id="MountainLogo-Copy" transform="translate(0.626667, 0.480000)">
                <g id="MountainTree-Copy-2" transform="translate(-0.000000, 0.000000)">
                    <path d="M64.1163179,32.5622999 L62.8718539,35.6485205 L57.9229703,27.291708 L43.0923584,24.1487944 L38.8039038,27.840559 C38.8039038,27.840559 38.2885448,28.3410378 37.8075816,28.3332501 C37.3266185,28.3254623 36.6978272,27.8017129 36.6978272,27.8017129 L33.2183715,25.3295194 L27.7321794,35.6498648 L26.304657,32.7429015 L42.8443556,1.49784401 C42.8443556,1.49784401 43.2653461,0.367136808 44.2507399,0.365653427 C45.2361337,0.364170046 45.6928181,1.51365129 45.6928181,1.51365129 L64.1163179,32.5622999 Z" id="Path-3" fill="#EEEEEE"></path>
                    <path d="M44.3059031,4.40179418 L56.0672606,24.1840015 L42.9444838,21.4196978 C42.9444838,21.4196978 42.6230073,21.3925797 42.3993181,21.4312403 C42.1756289,21.469901 41.9512212,21.647165 41.9512212,21.647165 L37.7099566,25.3049972 L34.4647593,22.9604903 L44.3059031,4.40179418 Z" id="Path-4" fill="#EEEEEE"></path>
                    <path d="M29.5053065,43.4973678 C29.5053065,43.4973678 30.2570794,43.4920369 30.6166139,42.834505 C30.9761484,42.1769732 30.6931934,41.6361186 30.6931934,41.6361186 L15.4842962,10.7421588 C15.4842962,10.7421588 15.2271382,10.0856236 14.3212559,10.0856236 C13.4153737,10.0856236 13.1697814,10.7421588 13.1697814,10.7421588 L0.413747422,41.4594572 C0.413747422,41.4594572 0.13375925,42.2555229 0.520504501,42.861345 C0.907249753,43.467167 1.58837661,43.4938911 1.58837661,43.4938911 L13.9282063,43.4909475 L13.9282063,46.4574546 C13.9282063,46.4574546 13.9664729,47.761532 15.2801691,47.7694588 C16.5938652,47.7773856 16.5938652,46.4435248 16.5938652,46.4435248 L16.5938652,43.4960466 L29.5053065,43.4973678 Z" id="Path-5" fill="#EEEEEE"></path>
                    <polygon id="Path-2" fill="#555555" points="14.438698 14.6291502 27.3368816 40.8388244 3.54697267 40.8388244"></polygon>
                    <path d="M89.505103,43.4973678 C89.505103,43.4973678 90.2568758,43.4920369 90.6164103,42.834505 C90.9759448,42.1769732 90.6929899,41.6361186 90.6929899,41.6361186 L75.4840926,10.7421588 C75.4840926,10.7421588 75.2269346,10.0856236 74.3210524,10.0856236 C73.4151701,10.0856236 73.1695778,10.7421588 73.1695778,10.7421588 L60.4135439,41.4594572 C60.4135439,41.4594572 60.1335557,42.2555229 60.5203009,42.861345 C60.9070462,43.467167 61.588173,43.4938911 61.588173,43.4938911 L73.9280027,43.4909475 L73.9280027,46.4574546 C73.9280027,46.4574546 73.9662693,47.761532 75.2799655,47.7694588 C76.5936617,47.7773856 76.5936617,46.4435248 76.5936617,46.4435248 L76.5936617,43.4960466 L89.505103,43.4973678 Z" id="Path-5" fill="#EEEEEE"></path>
                    <polygon id="Path-2" fill="#555555" points="74.4384944 14.6291502 87.336678 40.8388244 63.5467691 40.8388244"></polygon>
                </g>
            </g>
            <path d="M106.588708,11.9672366 L110.597214,11.9672366 L112.691209,26.2662349 L113.030237,28.3801732 C113.18978,29.523567 113.309436,30.5672306 113.389208,31.5111952 L113.608579,34.1237039 C113.621874,34.1901803 113.635169,34.309836 113.648464,34.4826746 C113.66176,34.6555132 113.681702,34.874882 113.708293,35.1407875 L113.808007,34.1436467 C113.96755,32.4019655 114.137062,30.7999088 114.316549,29.3374284 C114.496035,27.874948 114.692137,26.5254976 114.904862,25.2890369 L117.118514,11.9672366 L120.309365,11.9672366 L122.383417,24.9101235 C122.689209,26.8246433 122.945139,28.599536 123.151216,30.234855 C123.357292,31.870174 123.526805,33.4323456 123.659757,34.9214165 C123.79271,33.3525739 123.94228,31.8369351 124.108471,30.3744547 C124.274662,28.9119743 124.450822,27.476106 124.636955,26.0668067 L124.936098,24.0126968 L126.711008,11.9672366 L130.679628,11.9672366 L125.23524,42.7589428 L122.004504,42.7589428 L119.830737,29.4570852 C119.817442,29.4039041 119.784204,29.1845354 119.731023,28.7989724 C119.677842,28.4134093 119.598071,27.8616636 119.491709,27.1437187 L119.07291,24.0725252 C119.04632,23.8332103 119.003111,23.4742432 118.943282,22.9956132 C118.883453,22.5169833 118.820301,21.9120573 118.753825,21.1808171 L118.654111,19.9044769 C118.62752,20.2102683 118.60093,20.4761698 118.57434,20.7021895 C118.547749,20.9282092 118.527807,21.1143403 118.514511,21.2605883 C118.448035,22.1380766 118.391531,22.8194493 118.344997,23.3047269 C118.298464,23.7900044 118.26855,24.0858199 118.255255,24.1921821 L117.836456,27.1437187 C117.743389,27.8217778 117.670266,28.3535809 117.617085,28.7391439 C117.563903,29.1247069 117.524018,29.3640183 117.497428,29.4570852 L115.24389,42.7589428 L111.91344,42.7589428 L106.588708,11.9672366 Z M136.431136,11.9672366 L140.579242,11.9672366 L140.579242,42.7589428 L136.431136,42.7589428 L136.431136,11.9672366 Z M148.644116,11.9672366 L152.792222,11.9672366 L152.792222,39.2490073 L159.572779,39.2490073 L159.572779,42.7589428 L148.644116,42.7589428 L148.644116,11.9672366 Z M165.483829,11.9672366 L170.58919,11.9672366 C172.144737,11.9672366 173.454302,12.1400726 174.517924,12.4857498 C175.501775,12.8181317 176.37925,13.4097626 177.150376,14.2606603 C178.307065,15.5370069 179.13136,17.1988915 179.623285,19.246364 C180.11521,21.2273602 180.361169,24.0658591 180.361169,27.761946 C180.361169,31.1522415 180.08862,33.9176175 179.543514,36.058157 C179.011702,38.1056295 178.134227,39.6678011 176.911062,40.7447185 C175.408696,42.0875414 172.716443,42.7589428 168.834222,42.7589428 L165.483829,42.7589428 L165.483829,11.9672366 Z M169.631935,39.1293505 C172.158037,39.1293505 173.846512,38.3648835 174.69741,36.8359267 C175.574898,35.30697 176.013635,32.3355203 176.013635,27.9214885 C176.013635,23.1750748 175.59484,19.9111334 174.757238,18.1295664 C173.919636,16.3479994 172.384054,15.4572292 170.150448,15.4572292 L169.631935,15.4572292 L169.631935,39.1293505 Z M187.807816,11.9672366 L198.836193,11.9672366 L198.836193,15.477172 L191.955922,15.477172 L191.955922,25.2292085 L198.058423,25.2292085 L198.058423,28.7391439 L191.955922,28.7391439 L191.955922,39.2490073 L198.836193,39.2490073 L198.836193,42.7589428 L187.807816,42.7589428 L187.807816,11.9672366 Z M205.963755,11.9672366 L211.428086,11.9672366 C213.688283,11.9672366 215.37011,12.5056872 216.473618,13.5826046 C217.869622,14.9786086 218.567614,17.1124685 218.567614,19.9842482 C218.567614,22.1912641 218.198675,23.9628331 217.460788,25.2990083 C216.7229,26.6351836 215.669265,27.4628022 214.299851,27.7818888 L219.963611,42.7589428 L215.755677,42.7589428 L210.11186,27.6821747 L210.11186,42.7589428 L205.963755,42.7589428 L205.963755,11.9672366 Z M210.11186,25.608122 C211.720589,25.608122 212.857318,25.2358598 213.522082,24.4913243 C214.186845,23.7467889 214.519222,22.4904041 214.519222,20.7221323 C214.519222,19.7648724 214.449423,18.9472252 214.309823,18.2691661 C214.170222,17.591107 213.950854,17.0393613 213.65171,16.6139125 C213.352566,16.1884636 212.967009,15.8760293 212.495027,15.6766002 C212.023044,15.477171 211.461327,15.377458 210.809859,15.377458 L210.11186,15.377458 L210.11186,25.608122 Z M226.492889,11.9672366 L230.361795,11.9672366 L234.489957,24.2520106 C235.686532,27.7220777 236.743491,31.4247566 237.660865,35.3601584 C237.328483,32.980304 237.082524,30.8265015 236.922981,28.8986864 C236.763437,26.9708714 236.683667,25.1560933 236.683667,23.454298 L236.683667,11.9672366 L240.851715,11.9672366 L240.851715,42.7589428 L236.962866,42.7589428 L232.31619,28.8986864 C231.890742,27.6090446 231.488566,26.2861845 231.10965,24.9300663 C230.730735,23.5739481 230.381739,22.1513748 230.062652,20.6623039 C230.036062,20.47617 229.992853,20.2501537 229.933024,19.9842482 C229.873195,19.7183427 229.803396,19.4125559 229.723625,19.0668787 C229.76351,19.4125559 229.796748,19.7083714 229.823339,19.954334 C229.849929,20.2002966 229.869872,20.409694 229.883167,20.5825326 L230.102538,23.7135546 L230.321909,27.5226322 C230.335204,27.7353566 230.345176,27.9946106 230.351823,28.300402 C230.358471,28.6061933 230.361795,28.9518653 230.361795,29.3374284 L230.581166,42.7589428 L226.492889,42.7589428 L226.492889,11.9672366 Z M248.91659,11.9672366 L259.944966,11.9672366 L259.944966,15.477172 L253.064695,15.477172 L253.064695,25.2292085 L259.167196,25.2292085 L259.167196,28.7391439 L253.064695,28.7391439 L253.064695,39.2490073 L259.944966,39.2490073 L259.944966,42.7589428 L248.91659,42.7589428 L248.91659,11.9672366 Z M277.343078,12.6054067 L277.343078,16.6537981 C276.080027,15.7497193 274.943298,15.2976867 273.932857,15.2976867 C272.842644,15.2976867 271.951874,15.6832439 271.260519,16.45437 C270.569165,17.1856102 270.223493,18.1627983 270.223493,19.3859637 C270.223493,20.4628811 270.469452,21.386889 270.961377,22.158015 C271.213988,22.5701686 271.629459,23.1019717 272.207803,23.7534402 C272.786148,24.4049087 273.533996,25.1893183 274.45137,26.1066923 C276.13987,27.821783 277.289894,29.3041841 277.901477,30.5539401 C278.51306,31.7638102 278.818846,33.2462113 278.818846,35.0011878 C278.818846,37.3810422 278.147445,39.3420661 276.804622,40.8843182 C275.461799,42.3866844 273.740087,43.1378562 271.639433,43.1378562 C269.871161,43.1378562 268.36217,42.6525859 267.112414,41.6820308 L267.112414,37.5738109 C268.58819,38.6507283 269.930992,39.1891789 271.140863,39.1891789 C272.270961,39.1891789 273.155084,38.813593 273.793257,38.0624099 C274.43143,37.3112267 274.750512,36.2908296 274.750512,35.0011878 C274.750512,33.8843846 274.504553,32.8806063 274.012628,31.9898227 C273.760018,31.5643739 273.407698,31.0757798 272.955659,30.5240258 C272.503619,29.9722719 271.938579,29.3573746 271.260519,28.6793155 C270.210193,27.6422839 269.339365,26.7249236 268.648011,25.927207 C267.956656,25.1294904 267.444796,24.4314989 267.112414,23.8332115 C266.474241,22.6632271 266.155159,21.1874736 266.155159,19.4059066 C266.155159,16.9994615 266.780028,15.091618 268.029783,13.6823187 C269.292835,12.2597241 270.987957,11.5484375 273.115201,11.5484375 C274.590977,11.5484375 276.000255,11.900757 277.343078,12.6054067 Z M295.897873,12.6054067 L295.897873,16.6537981 C294.634822,15.7497193 293.498093,15.2976867 292.487652,15.2976867 C291.397439,15.2976867 290.506669,15.6832439 289.815315,16.45437 C289.12396,17.1856102 288.778288,18.1627983 288.778288,19.3859637 C288.778288,20.4628811 289.024247,21.386889 289.516172,22.158015 C289.768783,22.5701686 290.184254,23.1019717 290.762598,23.7534402 C291.340943,24.4049087 292.088791,25.1893183 293.006165,26.1066923 C294.694665,27.821783 295.844689,29.3041841 296.456272,30.5539401 C297.067855,31.7638102 297.373641,33.2462113 297.373641,35.0011878 C297.373641,37.3810422 296.70224,39.3420661 295.359417,40.8843182 C294.016594,42.3866844 292.294882,43.1378562 290.194228,43.1378562 C288.425956,43.1378562 286.916965,42.6525859 285.667209,41.6820308 L285.667209,37.5738109 C287.142985,38.6507283 288.485787,39.1891789 289.695658,39.1891789 C290.825756,39.1891789 291.709879,38.813593 292.348052,38.0624099 C292.986225,37.3112267 293.305307,36.2908296 293.305307,35.0011878 C293.305307,33.8843846 293.059348,32.8806063 292.567423,31.9898227 C292.314813,31.5643739 291.962493,31.0757798 291.510454,30.5240258 C291.058414,29.9722719 290.493374,29.3573746 289.815315,28.6793155 C288.764988,27.6422839 287.89416,26.7249236 287.202806,25.927207 C286.511451,25.1294904 285.999591,24.4314989 285.667209,23.8332115 C285.029036,22.6632271 284.709954,21.1874736 284.709954,19.4059066 C284.709954,16.9994615 285.334823,15.091618 286.584579,13.6823187 C287.84763,12.2597241 289.542752,11.5484375 291.669996,11.5484375 C293.145772,11.5484375 294.55505,11.900757 295.897873,12.6054067 Z M315.956356,11.9672366 L320.104462,11.9672366 L320.104462,39.2490073 L326.885019,39.2490073 L326.885019,42.7589428 L315.956356,42.7589428 L315.956356,11.9672366 Z M338.818799,11.9672366 L342.049535,11.9672366 L348.650607,42.7589428 L344.542387,42.7589428 L343.385704,36.7561555 L337.283203,36.7561555 L336.106577,42.7589428 L332.118014,42.7589428 L338.818799,11.9672366 Z M342.78742,33.5453623 L341.87005,28.6394298 C341.258467,25.3023155 340.759902,21.7392348 340.374339,17.9500811 C340.188205,19.7981245 339.948894,21.6694066 339.656398,23.5639835 C339.363902,25.4585603 339.01823,27.4694407 338.619371,29.5966849 L337.861544,33.5453623 L342.78742,33.5453623 Z M354.402115,11.9672366 L360.025989,11.9672366 C364.426725,11.9672366 366.627061,14.6993749 366.627061,20.1637335 C366.627061,22.2510919 366.341216,23.7999684 365.76952,24.8104094 C365.197823,25.8208504 364.187397,26.5853173 362.738212,27.1038331 C364.400121,27.7685969 365.53685,28.6194818 366.148433,29.6565134 C366.773311,30.6802497 367.085745,32.2224786 367.085745,34.2832464 C367.085745,39.9337389 364.666041,42.7589428 359.826561,42.7589428 L354.402115,42.7589428 L354.402115,11.9672366 Z M358.310907,25.5283507 C359.919635,25.5283507 361.036422,25.1560886 361.6613,24.4115531 C362.286178,23.6271318 362.598612,22.2510913 362.598612,20.2833904 C362.598612,16.9595713 361.402055,15.2976867 359.008905,15.2976867 L358.510335,15.2976867 C358.403973,15.2976867 358.337497,15.3043342 358.310907,15.3176295 L358.310907,25.5283507 Z M358.310907,39.2091217 C360.012702,39.2091217 361.189316,38.8435071 361.840785,38.1122669 C362.492254,37.3810267 362.817983,36.0581665 362.817983,34.1436467 C362.817983,32.1759458 362.478958,30.7999054 361.800899,30.0154841 C361.136136,29.2177675 359.972816,28.8189152 358.310907,28.8189152 L358.310907,39.2091217 Z M384.802942,12.6054067 L384.802942,16.6537981 C383.539891,15.7497193 382.403162,15.2976867 381.392721,15.2976867 C380.302508,15.2976867 379.411738,15.6832439 378.720384,16.45437 C378.029029,17.1856102 377.683357,18.1627983 377.683357,19.3859637 C377.683357,20.4628811 377.929316,21.386889 378.421241,22.158015 C378.673852,22.5701686 379.089323,23.1019717 379.667667,23.7534402 C380.246012,24.4049087 380.99386,25.1893183 381.911234,26.1066923 C383.599734,27.821783 384.749758,29.3041841 385.361341,30.5539401 C385.972924,31.7638102 386.27871,33.2462113 386.27871,35.0011878 C386.27871,37.3810422 385.607309,39.3420661 384.264486,40.8843182 C382.921663,42.3866844 381.199951,43.1378562 379.099297,43.1378562 C377.331025,43.1378562 375.822034,42.6525859 374.572278,41.6820308 L374.572278,37.5738109 C376.048054,38.6507283 377.390857,39.1891789 378.600727,39.1891789 C379.730825,39.1891789 380.614948,38.813593 381.253121,38.0624099 C381.891294,37.3112267 382.210376,36.2908296 382.210376,35.0011878 C382.210376,33.8843846 381.964417,32.8806063 381.472492,31.9898227 C381.219882,31.5643739 380.867562,31.0757798 380.415523,30.5240258 C379.963483,29.9722719 379.398443,29.3573746 378.720384,28.6793155 C377.670057,27.6422839 376.799229,26.7249236 376.107875,25.927207 C375.41652,25.1294904 374.90466,24.4314989 374.572278,23.8332115 C373.934105,22.6632271 373.615023,21.1874736 373.615023,19.4059066 C373.615023,16.9994615 374.239892,15.091618 375.489648,13.6823187 C376.752699,12.2597241 378.447821,11.5484375 380.575065,11.5484375 C382.050841,11.5484375 383.460119,11.900757 384.802942,12.6054067 Z" id="WILDERNESS-LABS" fill="#EEEEEE"></path>
        </g>
    </g>
</svg>