<?xml version="1.0" encoding="UTF-8"?>
<svg width="865px" height="425px" viewBox="0 0 865 425" version="1.1" xmlns="http://www.w3.org/2000/svg" xmlns:xlink="http://www.w3.org/1999/xlink">
    <!-- Generator: Sketch 48.2 (47327) - http://www.bohemiancoding.com/sketch -->
    <title>NetduinoFoundation_BlogImage</title>
    <desc>Created with Sketch.</desc>
    <defs></defs>
    <g id="Page-1" stroke="none" stroke-width="1" fill="none" fill-rule="evenodd">
        <g id="NetduinoFoundation_BlogImage">
            <rect id="Rectangle" fill="#23ABE3" x="0" y="0" width="865" height="425"></rect>
            <g id="ByWLabs_Logo" transform="translate(305.000000, 231.000000)">
                <rect id="Rectangle-3" x="22" y="0" width="205" height="118.08"></rect>
                <g id="MountainLogo-Copy" transform="translate(58.626667, 11.480000)">
                    <g id="MountainTree-Copy-2" transform="translate(-0.000000, -0.000000)">
                        <path d="M92.2993148,46.8753988 L90.5078337,51.3181999 L83.3836165,39.2880632 L62.0340544,34.7636491 L55.8605648,40.0781673 C55.8605648,40.0781673 55.1186743,40.7986369 54.4262988,40.7874259 C53.7339233,40.776215 52.8287402,40.0222461 52.8287402,40.0222461 L47.8198535,36.463374 L39.9221484,51.3201351 L37.8671436,47.1353857 L61.6770394,2.15623698 C61.6770394,2.15623698 62.2830806,0.528515625 63.7016146,0.526380208 C65.1201485,0.524244792 65.7775732,2.17899251 65.7775732,2.17899251 L92.2993148,46.8753988 Z" id="Path-3" fill="#EEEEEE"></path>
                        <path d="M63.7810254,6.33664876 L80.7122103,34.8143319 L61.82118,30.8349495 C61.82118,30.8349495 61.3583952,30.7959115 61.036381,30.8515658 C60.7143669,30.9072201 60.3913184,31.1624023 60.3913184,31.1624023 L54.2857617,36.4280729 L49.614104,33.0530135 L63.7810254,6.33664876 Z" id="Path-4" fill="#EEEEEE"></path>
                        <path d="M42.474672,62.6170898 C42.474672,62.6170898 43.5568945,62.6094157 44.0744661,61.6628589 C44.5920378,60.7163021 44.184707,59.9377091 44.184707,59.9377091 L22.2905802,15.4639868 C22.2905802,15.4639868 21.9203857,14.5188647 20.6163135,14.5188647 C19.3122412,14.5188647 18.9586963,15.4639868 18.9586963,15.4639868 L0.595614421,59.6833944 C0.595614421,59.6833944 0.192554525,60.8293791 0.749297689,61.7014966 C1.30604085,62.5736141 2.28656413,62.612085 2.28656413,62.612085 L20.0504948,62.6078475 L20.0504948,66.8783138 C20.0504948,66.8783138 20.1055819,68.755612 21.9967269,68.7670231 C23.8878719,68.7784342 23.8878719,66.8582609 23.8878719,66.8582609 L23.8878719,62.615188 L42.474672,62.6170898 Z" id="Path-5" fill="#EEEEEE"></path>
                        <polygon id="Path-2" fill="#23ABE3" points="20.7853784 21.0595459 39.3530933 58.7899561 5.10608154 58.7899561"></polygon>
                        <path d="M128.848005,62.6170898 C128.848005,62.6170898 129.930228,62.6094157 130.447799,61.6628589 C130.965371,60.7163021 130.55804,59.9377091 130.55804,59.9377091 L108.663914,15.4639868 C108.663914,15.4639868 108.293719,14.5188647 106.989647,14.5188647 C105.685575,14.5188647 105.33203,15.4639868 105.33203,15.4639868 L86.9689478,59.6833944 C86.9689478,59.6833944 86.5658879,60.8293791 87.122631,61.7014966 C87.6793742,62.5736141 88.6598975,62.612085 88.6598975,62.612085 L106.423828,62.6078475 L106.423828,66.8783138 C106.423828,66.8783138 106.478915,68.755612 108.37006,68.7670231 C110.261205,68.7784342 110.261205,66.8582609 110.261205,66.8582609 L110.261205,62.615188 L128.848005,62.6170898 Z" id="Path-5" fill="#EEEEEE"></path>
                        <polygon id="Path-2" fill="#23ABE3" points="107.158712 21.0595459 125.726427 58.7899561 91.4794149 58.7899561"></polygon>
                    </g>
                </g>
                <path d="M34.588708,86.8175 L37.1640205,86.8175 L38.509333,96.0040625 L38.7271455,97.3621875 C38.829646,98.0967745 38.9065202,98.7672886 38.9577705,99.37375 L39.098708,101.052187 C39.1072497,101.094896 39.1157913,101.17177 39.124333,101.282812 C39.1328747,101.393855 39.145687,101.534791 39.1627705,101.705625 L39.226833,101.065 C39.3293335,99.9460361 39.4382386,98.9167755 39.5535517,97.9771875 C39.6688648,97.0375995 39.7948531,96.170629 39.9315205,95.37625 L41.353708,86.8175 L43.403708,86.8175 L44.736208,95.1328125 C44.9326673,96.3628186 45.0970927,97.5031197 45.2294892,98.55375 C45.3618857,99.6043803 45.4707909,100.608016 45.556208,101.564687 C45.6416251,100.556766 45.7377179,99.5830255 45.8444892,98.6434375 C45.9512606,97.7038495 46.0644365,96.7813587 46.1840205,95.8759375 L46.376208,94.55625 L47.5165205,86.8175 L50.066208,86.8175 L46.5683955,106.6 L44.4927705,106.6 L43.096208,98.0540625 C43.0876663,98.0198957 43.0663123,97.8789596 43.0321455,97.63125 C42.9979786,97.3835404 42.9467291,97.0290648 42.8783955,96.5678125 L42.609333,94.5946875 C42.5922495,94.4409367 42.5644894,94.210314 42.5260517,93.9028125 C42.487614,93.595311 42.4470415,93.206669 42.404333,92.736875 L42.3402705,91.916875 C42.323187,92.1133343 42.3061039,92.2841659 42.2890205,92.429375 C42.271937,92.5745841 42.2591247,92.6941662 42.250583,92.788125 C42.2078744,93.3518778 42.1715727,93.7896339 42.1416767,94.1014062 C42.1117807,94.4131786 42.0925622,94.6032288 42.0840205,94.6715625 L41.814958,96.5678125 C41.755166,97.0034397 41.7081873,97.3451029 41.6740205,97.5928125 C41.6398536,97.8405221 41.6142289,97.9942705 41.5971455,98.0540625 L40.149333,106.6 L38.0096455,106.6 L34.588708,86.8175 Z M53.761333,86.8175 L56.426333,86.8175 L56.426333,106.6 L53.761333,106.6 L53.761333,86.8175 Z M61.6077081,86.8175 L64.2727081,86.8175 L64.2727081,104.345 L68.6289581,104.345 L68.6289581,106.6 L61.6077081,106.6 L61.6077081,86.8175 Z M72.4265831,86.8175 L75.7065831,86.8175 C76.7059631,86.8175 77.5473089,86.9285406 78.2306456,87.150625 C78.8627321,87.3641677 79.4264765,87.7442681 79.9218956,88.2909375 C80.6650243,89.1109416 81.1946024,90.1786393 81.5106456,91.4940625 C81.8266889,92.7667772 81.9847081,94.5904048 81.9847081,96.965 C81.9847081,99.1431359 81.8096057,100.919785 81.4593956,102.295 C81.1177272,103.610423 80.5539829,104.614059 79.7681456,105.305937 C78.8029325,106.16865 77.0732623,106.6 74.5790831,106.6 L72.4265831,106.6 L72.4265831,86.8175 Z M75.0915831,104.268125 C76.7145079,104.268125 77.7992887,103.776984 78.3459581,102.794687 C78.9097109,101.812391 79.1915831,99.9033475 79.1915831,97.0675 C79.1915831,94.0181098 78.9225233,91.9211516 78.3843956,90.7765625 C77.8462679,89.6319734 76.8597153,89.0596875 75.4247081,89.0596875 L75.0915831,89.0596875 L75.0915831,104.268125 Z M86.7688957,86.8175 L93.8542082,86.8175 L93.8542082,89.0725 L89.4338957,89.0725 L89.4338957,95.3378125 L93.3545207,95.3378125 L93.3545207,97.5928125 L89.4338957,97.5928125 L89.4338957,104.345 L93.8542082,104.345 L93.8542082,106.6 L86.7688957,106.6 L86.7688957,86.8175 Z M98.4333957,86.8175 L101.944021,86.8175 C103.396111,86.8175 104.476621,87.163434 105.185583,87.8553125 C106.082463,88.752192 106.530896,90.1231158 106.530896,91.968125 C106.530896,93.3860488 106.293867,94.5242145 105.819802,95.3826562 C105.345737,96.241098 104.668817,96.7728115 103.789021,96.9778125 L107.427771,106.6 L104.724333,106.6 L101.098396,96.91375 L101.098396,106.6 L98.4333957,106.6 L98.4333957,86.8175 Z M101.098396,95.58125 C102.131943,95.58125 102.862248,95.3420857 103.289333,94.86375 C103.716419,94.3854143 103.929958,93.5782348 103.929958,92.4421875 C103.929958,91.8271844 103.885115,91.3018772 103.795427,90.86625 C103.705739,90.4306228 103.564803,90.0761472 103.372614,89.8028125 C103.180426,89.5294778 102.93272,89.3287506 102.629489,89.200625 C102.326259,89.0724994 101.965377,89.0084375 101.546833,89.0084375 L101.098396,89.0084375 L101.098396,95.58125 Z M111.622583,86.8175 L114.108208,86.8175 L116.760396,94.71 C117.52915,96.9393861 118.208205,99.3182165 118.797583,101.846562 C118.584041,100.317597 118.426021,98.9338604 118.323521,97.6953125 C118.22102,96.4567646 118.169771,95.2908388 118.169771,94.1975 L118.169771,86.8175 L120.847583,86.8175 L120.847583,106.6 L118.349146,106.6 L115.363833,97.6953125 C115.090499,96.8667667 114.832116,96.0168794 114.588677,95.145625 C114.345238,94.2743706 114.121022,93.3604214 113.916021,92.40375 C113.898937,92.2841661 113.871177,92.1389592 113.83274,91.968125 C113.794302,91.7972908 113.749459,91.6008344 113.698208,91.37875 C113.723833,91.6008344 113.745187,91.7908846 113.762271,91.9489062 C113.779354,92.1069279 113.792167,92.2414578 113.800708,92.3525 L113.941646,94.3640625 L114.082583,96.81125 C114.091125,96.9479173 114.097531,97.1144782 114.101802,97.3109375 C114.106073,97.5073968 114.108208,97.7294779 114.108208,97.9771875 L114.249146,106.6 L111.622583,106.6 L111.622583,86.8175 Z M126.028958,86.8175 L133.114271,86.8175 L133.114271,89.0725 L128.693958,89.0725 L128.693958,95.3378125 L132.614583,95.3378125 L132.614583,97.5928125 L128.693958,97.5928125 L128.693958,104.345 L133.114271,104.345 L133.114271,106.6 L126.028958,106.6 L126.028958,86.8175 Z M144.291896,87.2275 L144.291896,89.8284375 C143.480433,89.2476013 142.750128,88.9571875 142.100958,88.9571875 C141.400538,88.9571875 140.828252,89.2048934 140.384083,89.7003125 C139.939914,90.1701065 139.717833,90.7979127 139.717833,91.58375 C139.717833,92.2756285 139.875853,92.8692684 140.191896,93.3646875 C140.354188,93.6294805 140.621113,93.9711437 140.992677,94.3896875 C141.364241,94.8082313 141.844705,95.3121846 142.434083,95.9015625 C143.51888,97.003443 144.257727,97.9558293 144.650646,98.75875 C145.043565,99.5360456 145.240021,100.488432 145.240021,101.615937 C145.240021,103.144903 144.808671,104.404787 143.945958,105.395625 C143.083246,106.360838 141.977111,106.843437 140.627521,106.843437 C139.491474,106.843437 138.522004,106.53167 137.719083,105.908125 L137.719083,103.26875 C138.667213,103.960628 139.529913,104.306562 140.307208,104.306562 C141.033254,104.306562 141.601269,104.065263 142.011271,103.582656 C142.421273,103.10005 142.626271,102.444483 142.626271,101.615937 C142.626271,100.898434 142.468252,100.253545 142.152208,99.68125 C141.989916,99.4079153 141.763564,99.0940122 141.473146,98.7395312 C141.182728,98.3850503 140.819711,97.9900022 140.384083,97.554375 C139.709288,96.8881217 139.149815,96.2987526 138.705646,95.78625 C138.261477,95.2737474 137.932626,94.8253144 137.719083,94.4409375 C137.309081,93.6892671 137.104083,92.7411516 137.104083,91.5965625 C137.104083,90.0505131 137.505538,88.8247962 138.308458,87.919375 C139.119921,87.0054121 140.208972,86.5484375 141.575646,86.5484375 C142.523776,86.5484375 143.429183,86.7747894 144.291896,87.2275 Z M156.212646,87.2275 L156.212646,89.8284375 C155.401184,89.2476013 154.670878,88.9571875 154.021708,88.9571875 C153.321288,88.9571875 152.749002,89.2048934 152.304833,89.7003125 C151.860665,90.1701065 151.638583,90.7979127 151.638583,91.58375 C151.638583,92.2756285 151.796603,92.8692684 152.112646,93.3646875 C152.274938,93.6294805 152.541863,93.9711437 152.913427,94.3896875 C153.284992,94.8082313 153.765455,95.3121846 154.354833,95.9015625 C155.439631,97.003443 156.178477,97.9558293 156.571396,98.75875 C156.964315,99.5360456 157.160771,100.488432 157.160771,101.615937 C157.160771,103.144903 156.729421,104.404787 155.866708,105.395625 C155.003996,106.360838 153.897861,106.843437 152.548271,106.843437 C151.412224,106.843437 150.442754,106.53167 149.639833,105.908125 L149.639833,103.26875 C150.587963,103.960628 151.450663,104.306562 152.227958,104.306562 C152.954004,104.306562 153.522019,104.065263 153.932021,103.582656 C154.342023,103.10005 154.547021,102.444483 154.547021,101.615937 C154.547021,100.898434 154.389002,100.253545 154.072958,99.68125 C153.910666,99.4079153 153.684314,99.0940122 153.393896,98.7395312 C153.103478,98.3850503 152.740461,97.9900022 152.304833,97.554375 C151.630038,96.8881217 151.070565,96.2987526 150.626396,95.78625 C150.182227,95.2737474 149.853376,94.8253144 149.639833,94.4409375 C149.229831,93.6892671 149.024833,92.7411516 149.024833,91.5965625 C149.024833,90.0505131 149.426288,88.8247962 150.229208,87.919375 C151.040671,87.0054121 152.129722,86.5484375 153.496396,86.5484375 C154.444526,86.5484375 155.349933,86.7747894 156.212646,87.2275 Z M169.099459,86.8175 L171.764459,86.8175 L171.764459,104.345 L176.120709,104.345 L176.120709,106.6 L169.099459,106.6 L169.099459,86.8175 Z M183.787709,86.8175 L185.863334,86.8175 L190.104271,106.6 L187.464896,106.6 L186.721771,102.743437 L182.801146,102.743437 L182.045209,106.6 L179.482709,106.6 L183.787709,86.8175 Z M186.337396,100.680625 L185.748021,97.52875 C185.355102,95.3847809 185.034793,93.0956372 184.787084,90.66125 C184.6675,91.8485476 184.513751,93.0507752 184.325834,94.2679687 C184.137916,95.4851623 183.915835,96.7770765 183.659584,98.14375 L183.172709,100.680625 L186.337396,100.680625 Z M193.799396,86.8175 L197.412521,86.8175 C200.239827,86.8175 201.653459,88.5727949 201.653459,92.0834375 C201.653459,93.4244859 201.469815,94.4195801 201.102521,95.06875 C200.735228,95.7179199 200.086067,96.2090608 199.155021,96.5421875 C200.222735,96.969273 200.95304,97.5159342 201.345959,98.1821875 C201.747419,98.8398991 201.948146,99.8307225 201.948146,101.154687 C201.948146,104.784914 200.393578,106.6 197.284396,106.6 L193.799396,106.6 L193.799396,86.8175 Z M196.310646,95.53 C197.344193,95.53 198.061686,95.2908357 198.463146,94.8125 C198.864606,94.3085391 199.065334,93.4244855 199.065334,92.1603125 C199.065334,90.0248852 198.296591,88.9571875 196.759084,88.9571875 L196.438771,88.9571875 C196.370437,88.9571875 196.32773,88.9614583 196.310646,88.97 L196.310646,95.53 Z M196.310646,104.319375 C197.403985,104.319375 198.159915,104.084482 198.578459,103.614687 C198.997002,103.144893 199.206271,102.295006 199.206271,101.065 C199.206271,99.800827 198.988461,98.9167734 198.552834,98.4128125 C198.125748,97.9003099 197.37836,97.6440625 196.310646,97.6440625 L196.310646,104.319375 Z M213.330771,87.2275 L213.330771,89.8284375 C212.519309,89.2476013 211.789004,88.9571875 211.139834,88.9571875 C210.439414,88.9571875 209.867128,89.2048934 209.422959,89.7003125 C208.97879,90.1701065 208.756709,90.7979127 208.756709,91.58375 C208.756709,92.2756285 208.914728,92.8692684 209.230771,93.3646875 C209.393064,93.6294805 209.659988,93.9711437 210.031552,94.3896875 C210.403117,94.8082313 210.883581,95.3121846 211.472959,95.9015625 C212.557756,97.003443 213.296603,97.9558293 213.689521,98.75875 C214.08244,99.5360456 214.278896,100.488432 214.278896,101.615937 C214.278896,103.144903 213.847546,104.404787 212.984834,105.395625 C212.122121,106.360838 211.015986,106.843437 209.666396,106.843437 C208.530349,106.843437 207.560879,106.53167 206.757959,105.908125 L206.757959,103.26875 C207.706088,103.960628 208.568788,104.306562 209.346084,104.306562 C210.072129,104.306562 210.640144,104.065263 211.050146,103.582656 C211.460148,103.10005 211.665146,102.444483 211.665146,101.615937 C211.665146,100.898434 211.507127,100.253545 211.191084,99.68125 C211.028791,99.4079153 210.802439,99.0940122 210.512021,98.7395312 C210.221603,98.3850503 209.858586,97.9900022 209.422959,97.554375 C208.748164,96.8881217 208.18869,96.2987526 207.744521,95.78625 C207.300352,95.2737474 206.971501,94.8253144 206.757959,94.4409375 C206.347957,93.6892671 206.142959,92.7411516 206.142959,91.5965625 C206.142959,90.0505131 206.544413,88.8247962 207.347334,87.919375 C208.158796,87.0054121 209.247848,86.5484375 210.614521,86.5484375 C211.562651,86.5484375 212.468059,86.7747894 213.330771,87.2275 Z" id="WILDERNESS-LABS" fill="#EEEEEE"></path>
                <text id="by:" font-family="Roboto-Light, Roboto" font-size="20" font-weight="300" fill="#EEEEEE">
                    <tspan x="0.5" y="106">by:</tspan>
                </text>
            </g>
            <g id="Netduino_Foundation_Banner_Logo" transform="translate(89.000000, 96.000000)">
                <text id="beta" font-family="Roboto-Light, Roboto" font-size="31" font-weight="300" fill="#EEEEEE">
                    <tspan x="639.5" y="36">beta</tspan>
                </text>
                <path d="M15.2714844,69 L8.94335938,69 L8.94335938,25.4414062 C8.94335938,23.0742069 9.417964,21.2578188 10.3671875,19.9921875 C11.316411,18.7265562 12.6699131,18.09375 14.4277344,18.09375 C15.6699281,18.09375 16.7890575,18.5039021 17.7851562,19.3242188 C18.781255,20.1445354 19.7011677,21.4101477 20.5449219,23.1210938 L38.6855469,60.8085938 L38.6855469,18.65625 L45.0839844,18.65625 L45.0839844,62.390625 C45.0839844,64.6875115 44.6152391,66.4804623 43.6777344,67.7695312 C42.7402297,69.0586002 41.4394614,69.703125 39.7753906,69.703125 C38.4628841,69.703125 37.2851615,69.2871135 36.2421875,68.4550781 C35.1992135,67.6230427 34.2793009,66.3632897 33.4824219,64.6757812 L15.2714844,26.7421875 L15.2714844,69 Z M86.6386719,53.7421875 C85.77148,58.6640871 83.7793125,62.5546732 80.6621094,65.4140625 C77.5449063,68.2734518 73.7480693,69.703125 69.2714844,69.703125 C67.7480393,69.703125 66.2421949,69.4980489 64.7539062,69.0878906 C63.2656176,68.6777323 61.8652409,68.0742227 60.5527344,67.2773438 C57.7870955,65.5898353 55.6425857,63.3867323 54.1191406,60.6679688 C52.5956955,57.9492052 51.8339844,54.9609538 51.8339844,51.703125 C51.8339844,49.312488 52.2734331,47.0390733 53.1523438,44.8828125 C54.0312544,42.7265517 55.3027261,40.7812587 56.9667969,39.046875 C58.6308677,37.3359289 60.5234269,36.0351607 62.6445313,35.1445312 C64.7656356,34.2539018 66.9980352,33.8085938 69.3417969,33.8085938 C72.8340018,33.8085938 75.9570175,34.7285064 78.7109375,36.5683594 C81.4648575,38.4082123 83.6972571,41.0859199 85.4082031,44.6015625 L62.8027344,57.1171875 L60.2011719,52.4414062 L76.9707031,43.0898438 C75.939448,41.9414005 74.7793033,41.0742217 73.4902344,40.4882812 C72.2011654,39.9023408 70.7949295,39.609375 69.2714844,39.609375 C66.1777189,39.609375 63.5703231,40.7636603 61.4492188,43.0722656 C59.3281144,45.3808709 58.2675781,48.234358 58.2675781,51.6328125 C58.2675781,55.0078294 59.3339737,57.8554571 61.4667969,60.1757812 C63.59962,62.4961054 66.2011565,63.65625 69.2714844,63.65625 C72.2011865,63.65625 74.6562401,62.6894628 76.6367188,60.7558594 C78.6171974,58.822256 79.8535132,56.1679856 80.3457031,52.7929688 L86.6386719,53.7421875 Z M92.5449219,25.3710938 L98.7324219,25.3710938 L98.7324219,34.5117188 L109.173828,34.5117188 L109.173828,40.3476562 L98.7324219,40.3476562 L98.7324219,55.1132812 C98.7324219,57.8789201 99.4062433,59.9003842 100.753906,61.1777344 C102.101569,62.4550845 104.251938,63.09375 107.205078,63.09375 L109.173828,63.09375 L109.173828,69 L107.134766,69 C102.259741,69 98.6093871,67.9336044 96.1835938,65.8007812 C93.7578004,63.6679581 92.5449219,60.4570527 92.5449219,56.1679688 L92.5449219,25.3710938 Z M148.337891,18.65625 L148.337891,48.9960938 C148.337891,52.0898592 148.191408,54.4101485 147.898438,55.9570312 C147.605467,57.503914 147.119144,58.9218686 146.439453,60.2109375 C144.986321,63.1640773 142.888686,65.4726479 140.146484,67.1367188 C137.404283,68.8007896 134.369157,69.6328125 131.041016,69.6328125 C126.025366,69.6328125 121.882829,67.9394701 118.613281,64.5527344 C115.343734,61.1659987 113.708984,56.8828384 113.708984,51.703125 C113.708984,49.3828009 114.107418,47.1679793 114.904297,45.0585938 C115.701176,42.9492082 116.861321,41.0625083 118.384766,39.3984375 C119.931648,37.6640538 121.783192,36.3222704 123.939453,35.3730469 C126.095714,34.4238234 128.345691,33.9492188 130.689453,33.9492188 C132.400399,33.9492188 134.035148,34.1425762 135.59375,34.5292969 C137.152352,34.9160176 138.634759,35.5078085 140.041016,36.3046875 L140.041016,42.9492188 C138.611321,41.8710884 137.187507,41.0742213 135.769531,40.5585938 C134.351555,40.0429662 132.892586,39.7851562 131.392578,39.7851562 C128.087874,39.7851562 125.369151,40.9218636 123.236328,43.1953125 C121.103505,45.4687614 120.037109,48.3867009 120.037109,51.9492188 C120.037109,55.4414237 121.074208,58.2949108 123.148438,60.5097656 C125.222667,62.7246204 127.876937,63.8320312 131.111328,63.8320312 C134.369157,63.8320312 137.017568,62.7129018 139.056641,60.4746094 C141.095713,58.2363169 142.115234,55.312518 142.115234,51.703125 L142.115234,18.65625 L148.337891,18.65625 Z M184.900391,34.5117188 L184.900391,53.3203125 C184.900391,58.3359626 183.570326,62.3085791 180.910156,65.2382812 C178.249987,68.1679834 174.681663,69.6328125 170.205078,69.6328125 C165.751931,69.6328125 162.201185,68.1679834 159.552734,65.2382812 C156.904284,62.3085791 155.580078,58.3359626 155.580078,53.3203125 L155.580078,34.5117188 L161.732422,34.5117188 L161.732422,54.4453125 C161.732422,57.1640761 162.535148,59.3788977 164.140625,61.0898438 C165.746102,62.8007898 167.791003,63.65625 170.275391,63.65625 C172.783216,63.65625 174.828117,62.8007898 176.410156,61.0898438 C177.992195,59.3788977 178.783203,57.1640761 178.783203,54.4453125 L178.783203,34.5117188 L184.900391,34.5117188 Z M192.986328,69 L192.986328,34.5117188 L199.173828,34.5117188 L199.173828,69 L192.986328,69 Z M192.318359,24.703125 C192.318359,23.6718698 192.681637,22.7929724 193.408203,22.0664062 C194.134769,21.3398401 195.025385,20.9765625 196.080078,20.9765625 C197.134771,20.9765625 198.019528,21.3339808 198.734375,22.0488281 C199.449222,22.7636754 199.806641,23.6484322 199.806641,24.703125 C199.806641,25.7812554 199.449222,26.6894494 198.734375,27.4277344 C198.019528,28.1660193 197.134771,28.5351562 196.080078,28.5351562 C195.048823,28.5351562 194.164066,28.16016 193.425781,27.4101562 C192.687496,26.6601525 192.318359,25.7578178 192.318359,24.703125 Z M207.154297,69 L207.154297,50.1914062 C207.154297,45.1757562 208.490221,41.2031396 211.162109,38.2734375 C213.833998,35.3437354 217.396462,33.8789062 221.849609,33.8789062 C226.302757,33.8789062 229.853502,35.3437354 232.501953,38.2734375 C235.150404,41.2031396 236.474609,45.1757562 236.474609,50.1914062 L236.474609,69 L230.357422,69 L230.357422,49.0664062 C230.357422,46.3476427 229.566414,44.1328211 227.984375,42.421875 C226.402336,40.7109289 224.357434,39.8554688 221.849609,39.8554688 C219.365222,39.8554688 217.320321,40.7109289 215.714844,42.421875 C214.109367,44.1328211 213.306641,46.3476427 213.306641,49.0664062 L213.306641,69 L207.154297,69 Z M248.884766,51.6328125 C248.884766,54.9843918 249.957021,57.8261602 252.101563,60.1582031 C254.246104,62.490246 256.841782,63.65625 259.888672,63.65625 C262.935562,63.65625 265.531239,62.490246 267.675781,60.1582031 C269.820323,57.8261602 270.892578,54.9843918 270.892578,51.6328125 C270.892578,48.3046709 269.826183,45.4804804 267.693359,43.1601562 C265.560536,40.8398321 262.959,39.6796875 259.888672,39.6796875 C256.841782,39.6796875 254.246104,40.8398321 252.101563,43.1601562 C249.957021,45.4804804 248.884766,48.3046709 248.884766,51.6328125 Z M242.451172,51.703125 C242.451172,49.312488 242.89648,47.0390733 243.787109,44.8828125 C244.677739,42.7265517 245.966788,40.7812587 247.654297,39.046875 C249.318368,37.3593666 251.18749,36.0761763 253.261719,35.1972656 C255.335948,34.318355 257.54491,33.8789062 259.888672,33.8789062 C262.232434,33.8789062 264.458974,34.318355 266.568359,35.1972656 C268.677745,36.0761763 270.552726,37.3593666 272.193359,39.046875 C273.85743,40.7343834 275.128902,42.6679579 276.007812,44.8476562 C276.886723,47.0273546 277.326172,49.312488 277.326172,51.703125 C277.326172,54.1406372 276.886723,56.4550672 276.007812,58.6464844 C275.128902,60.8379016 273.85743,62.7773353 272.193359,64.4648438 C270.552726,66.1523522 268.677745,67.4355425 266.568359,68.3144531 C264.458974,69.1933638 262.232434,69.6328125 259.888672,69.6328125 C257.54491,69.6328125 255.335948,69.1933638 253.261719,68.3144531 C251.18749,67.4355425 249.318368,66.1523522 247.654297,64.4648438 C245.966788,62.7538977 244.677739,60.8086046 243.787109,58.6289062 C242.89648,56.4492079 242.451172,54.1406372 242.451172,51.703125 Z M285.095703,65.4140625 C285.095703,64.2421816 285.494137,63.2519572 286.291016,62.4433594 C287.087895,61.6347616 288.083978,61.2304688 289.279297,61.2304688 C290.451178,61.2304688 291.435543,61.6347616 292.232422,62.4433594 C293.029301,63.2519572 293.427734,64.2421816 293.427734,65.4140625 C293.427734,66.5390681 293.023442,67.499996 292.214844,68.296875 C291.406246,69.093754 290.42774,69.4921875 289.279297,69.4921875 C288.107416,69.4921875 287.117192,69.093754 286.308594,68.296875 C285.499996,67.499996 285.095703,66.5390681 285.095703,65.4140625 Z M303.166016,69 L303.166016,36.1640625 C303.166016,30.257783 304.630845,25.8632957 307.560547,22.9804688 C310.490249,20.0976418 314.955048,18.65625 320.955078,18.65625 L328.126953,18.65625 L328.126953,24.8789062 L319.794922,24.8789062 C316.583968,24.8789062 314.111337,25.763663 312.376953,27.5332031 C310.642569,29.3027432 309.775391,31.8398272 309.775391,35.1445312 L309.775391,40.7695312 L328.126953,40.7695312 L328.126953,46.9570312 L309.775391,46.9570312 L309.775391,69 L303.166016,69 Z M339.974609,51.6328125 C339.974609,54.9843918 341.046864,57.8261602 343.191406,60.1582031 C345.335948,62.490246 347.931625,63.65625 350.978516,63.65625 C354.025406,63.65625 356.621083,62.490246 358.765625,60.1582031 C360.910167,57.8261602 361.982422,54.9843918 361.982422,51.6328125 C361.982422,48.3046709 360.916026,45.4804804 358.783203,43.1601562 C356.65038,40.8398321 354.048843,39.6796875 350.978516,39.6796875 C347.931625,39.6796875 345.335948,40.8398321 343.191406,43.1601562 C341.046864,45.4804804 339.974609,48.3046709 339.974609,51.6328125 Z M333.541016,51.703125 C333.541016,49.312488 333.986324,47.0390733 334.876953,44.8828125 C335.767583,42.7265517 337.056632,40.7812587 338.744141,39.046875 C340.408211,37.3593666 342.277333,36.0761763 344.351563,35.1972656 C346.425792,34.318355 348.634754,33.8789062 350.978516,33.8789062 C353.322277,33.8789062 355.548818,34.318355 357.658203,35.1972656 C359.767589,36.0761763 361.64257,37.3593666 363.283203,39.046875 C364.947274,40.7343834 366.218746,42.6679579 367.097656,44.8476562 C367.976567,47.0273546 368.416016,49.312488 368.416016,51.703125 C368.416016,54.1406372 367.976567,56.4550672 367.097656,58.6464844 C366.218746,60.8379016 364.947274,62.7773353 363.283203,64.4648438 C361.64257,66.1523522 359.767589,67.4355425 357.658203,68.3144531 C355.548818,69.1933638 353.322277,69.6328125 350.978516,69.6328125 C348.634754,69.6328125 346.425792,69.1933638 344.351563,68.3144531 C342.277333,67.4355425 340.408211,66.1523522 338.744141,64.4648438 C337.056632,62.7538977 335.767583,60.8086046 334.876953,58.6289062 C333.986324,56.4492079 333.541016,54.1406372 333.541016,51.703125 Z M403.607422,34.5117188 L403.607422,53.3203125 C403.607422,58.3359626 402.277357,62.3085791 399.617188,65.2382812 C396.957018,68.1679834 393.388694,69.6328125 388.912109,69.6328125 C384.458962,69.6328125 380.908216,68.1679834 378.259766,65.2382812 C375.611315,62.3085791 374.287109,58.3359626 374.287109,53.3203125 L374.287109,34.5117188 L380.439453,34.5117188 L380.439453,54.4453125 C380.439453,57.1640761 381.242179,59.3788977 382.847656,61.0898438 C384.453133,62.8007898 386.498034,63.65625 388.982422,63.65625 C391.490247,63.65625 393.535148,62.8007898 395.117188,61.0898438 C396.699227,59.3788977 397.490234,57.1640761 397.490234,54.4453125 L397.490234,34.5117188 L403.607422,34.5117188 Z M411.166016,69 L411.166016,50.1914062 C411.166016,45.1757562 412.50194,41.2031396 415.173828,38.2734375 C417.845716,35.3437354 421.408181,33.8789062 425.861328,33.8789062 C430.314475,33.8789062 433.865221,35.3437354 436.513672,38.2734375 C439.162123,41.2031396 440.486328,45.1757562 440.486328,50.1914062 L440.486328,69 L434.369141,69 L434.369141,49.0664062 C434.369141,46.3476427 433.578133,44.1328211 431.996094,42.421875 C430.414055,40.7109289 428.369153,39.8554688 425.861328,39.8554688 C423.376941,39.8554688 421.332039,40.7109289 419.726563,42.421875 C418.121086,44.1328211 417.318359,46.3476427 417.318359,49.0664062 L417.318359,69 L411.166016,69 Z M481.267578,18.65625 L481.267578,48.9960938 C481.267578,52.0898592 481.121095,54.4101485 480.828125,55.9570312 C480.535155,57.503914 480.048832,58.9218686 479.369141,60.2109375 C477.916008,63.1640773 475.818373,65.4726479 473.076172,67.1367188 C470.333971,68.8007896 467.298845,69.6328125 463.970703,69.6328125 C458.955053,69.6328125 454.812516,67.9394701 451.542969,64.5527344 C448.273421,61.1659987 446.638672,56.8828384 446.638672,51.703125 C446.638672,49.3828009 447.037105,47.1679793 447.833984,45.0585938 C448.630863,42.9492082 449.791008,41.0625083 451.314453,39.3984375 C452.861336,37.6640538 454.71288,36.3222704 456.869141,35.3730469 C459.025401,34.4238234 461.275379,33.9492188 463.619141,33.9492188 C465.330087,33.9492188 466.964836,34.1425762 468.523438,34.5292969 C470.082039,34.9160176 471.564446,35.5078085 472.970703,36.3046875 L472.970703,42.9492188 C471.541008,41.8710884 470.117195,41.0742213 468.699219,40.5585938 C467.281243,40.0429662 465.822273,39.7851562 464.322266,39.7851562 C461.017562,39.7851562 458.298839,40.9218636 456.166016,43.1953125 C454.033192,45.4687614 452.966797,48.3867009 452.966797,51.9492188 C452.966797,55.4414237 454.003896,58.2949108 456.078125,60.5097656 C458.152354,62.7246204 460.806624,63.8320312 464.041016,63.8320312 C467.298844,63.8320312 469.947255,62.7129018 471.986328,60.4746094 C474.025401,58.2363169 475.044922,55.312518 475.044922,51.703125 L475.044922,18.65625 L481.267578,18.65625 Z M515.369141,69 L515.369141,51.8085938 C515.369141,48.1992007 514.34962,45.2754018 512.310547,43.0371094 C510.271474,40.7988169 507.623063,39.6796875 504.365234,39.6796875 C501.130843,39.6796875 498.476573,40.7870983 496.402344,43.0019531 C494.328115,45.2168079 493.291016,48.070295 493.291016,51.5625 C493.291016,55.1250178 494.357411,58.0429574 496.490234,60.3164062 C498.623058,62.5898551 501.34178,63.7265625 504.646484,63.7265625 C506.146492,63.7265625 507.605462,63.4687526 509.023438,62.953125 C510.441413,62.4374974 511.865227,61.6406304 513.294922,60.5625 L513.294922,67.2070312 C511.888665,68.0039102 510.406258,68.5957012 508.847656,68.9824219 C507.289055,69.3691426 505.654305,69.5625 503.943359,69.5625 C502.302726,69.5625 500.673836,69.3105494 499.056641,68.8066406 C497.439445,68.3027319 495.974616,67.5937546 494.662109,66.6796875 C492.177722,64.9687414 490.279303,62.830091 488.966797,60.2636719 C487.65429,57.6972528 486.998047,54.8437657 486.998047,51.703125 C486.998047,46.5468492 488.626937,42.2871262 491.884766,38.9238281 C495.142594,35.5605301 499.279272,33.8789062 504.294922,33.8789062 C507.599626,33.8789062 510.623033,34.7109292 513.365234,36.375 C516.107436,38.0390708 518.216789,40.3242042 519.693359,43.2304688 C520.37305,44.5429753 520.859374,45.9785078 521.152344,47.5371094 C521.445314,49.0957109 521.591797,51.4218595 521.591797,54.515625 L521.591797,69 L515.369141,69 Z M529.080078,25.3710938 L535.267578,25.3710938 L535.267578,34.5117188 L545.708984,34.5117188 L545.708984,40.3476562 L535.267578,40.3476562 L535.267578,55.1132812 C535.267578,57.8789201 535.9414,59.9003842 537.289062,61.1777344 C538.636725,62.4550845 540.787095,63.09375 543.740234,63.09375 L545.708984,63.09375 L545.708984,69 L543.669922,69 C538.794898,69 535.144543,67.9336044 532.71875,65.8007812 C530.292957,63.6679581 529.080078,60.4570527 529.080078,56.1679688 L529.080078,25.3710938 Z M552.177734,69 L552.177734,34.5117188 L558.365234,34.5117188 L558.365234,69 L552.177734,69 Z M551.509766,24.703125 C551.509766,23.6718698 551.873043,22.7929724 552.599609,22.0664062 C553.326176,21.3398401 554.216792,20.9765625 555.271484,20.9765625 C556.326177,20.9765625 557.210934,21.3339808 557.925781,22.0488281 C558.640629,22.7636754 558.998047,23.6484322 558.998047,24.703125 C558.998047,25.7812554 558.640629,26.6894494 557.925781,27.4277344 C557.210934,28.1660193 556.326177,28.5351562 555.271484,28.5351562 C554.240229,28.5351562 553.355472,28.16016 552.617188,27.4101562 C551.878903,26.6601525 551.509766,25.7578178 551.509766,24.703125 Z M571.197266,51.6328125 C571.197266,54.9843918 572.269521,57.8261602 574.414062,60.1582031 C576.558604,62.490246 579.154282,63.65625 582.201172,63.65625 C585.248062,63.65625 587.843739,62.490246 589.988281,60.1582031 C592.132823,57.8261602 593.205078,54.9843918 593.205078,51.6328125 C593.205078,48.3046709 592.138683,45.4804804 590.005859,43.1601562 C587.873036,40.8398321 585.2715,39.6796875 582.201172,39.6796875 C579.154282,39.6796875 576.558604,40.8398321 574.414062,43.1601562 C572.269521,45.4804804 571.197266,48.3046709 571.197266,51.6328125 Z M564.763672,51.703125 C564.763672,49.312488 565.20898,47.0390733 566.099609,44.8828125 C566.990239,42.7265517 568.279288,40.7812587 569.966797,39.046875 C571.630868,37.3593666 573.49999,36.0761763 575.574219,35.1972656 C577.648448,34.318355 579.85741,33.8789062 582.201172,33.8789062 C584.544934,33.8789062 586.771474,34.318355 588.880859,35.1972656 C590.990245,36.0761763 592.865226,37.3593666 594.505859,39.046875 C596.16993,40.7343834 597.441402,42.6679579 598.320312,44.8476562 C599.199223,47.0273546 599.638672,49.312488 599.638672,51.703125 C599.638672,54.1406372 599.199223,56.4550672 598.320312,58.6464844 C597.441402,60.8379016 596.16993,62.7773353 594.505859,64.4648438 C592.865226,66.1523522 590.990245,67.4355425 588.880859,68.3144531 C586.771474,69.1933638 584.544934,69.6328125 582.201172,69.6328125 C579.85741,69.6328125 577.648448,69.1933638 575.574219,68.3144531 C573.49999,67.4355425 571.630868,66.1523522 569.966797,64.4648438 C568.279288,62.7538977 566.990239,60.8086046 566.099609,58.6289062 C565.20898,56.4492079 564.763672,54.1406372 564.763672,51.703125 Z M605.509766,69 L605.509766,50.1914062 C605.509766,45.1757562 606.84569,41.2031396 609.517578,38.2734375 C612.189466,35.3437354 615.751931,33.8789062 620.205078,33.8789062 C624.658225,33.8789062 628.208971,35.3437354 630.857422,38.2734375 C633.505873,41.2031396 634.830078,45.1757562 634.830078,50.1914062 L634.830078,69 L628.712891,69 L628.712891,49.0664062 C628.712891,46.3476427 627.921883,44.1328211 626.339844,42.421875 C624.757805,40.7109289 622.712903,39.8554688 620.205078,39.8554688 C617.720691,39.8554688 615.675789,40.7109289 614.070312,42.421875 C612.464836,44.1328211 611.662109,46.3476427 611.662109,49.0664062 L611.662109,69 L605.509766,69 Z" id="Netduino.Foundation-Copy" fill="#EEEEEE"></path>
                <path d="M12.0234375,67.7773438 C12.1747857,70.8518845 12.9278277,73.2633001 14.2825634,75.0115903 C15.6372992,76.7598806 17.8673301,77.6974234 20.9726562,77.8242188 L640.933884,77.8242188" id="Path-2" stroke="#EEEEEE" stroke-width="6.5"></path>
                <path d="M41.8546134,18.8571739 C41.7625615,16.3720296 40.7444701,14.0153819 38.8003391,11.7872308 C36.8562082,9.5590797 34.344099,8.34642249 31.2640116,8.14925918 L11.9837052,8.14925918 C8.87367398,8.51633299 6.10432989,9.99935369 3.6756729,12.5983213 C1.24701591,15.1972889 0.0971592259,17.2416379 0.226102857,18.7313684 L0.226102857,70.2194775 C0.306536537,77.5116897 1.33242225,82.5907808 3.30375998,85.4567508 C5.27509772,88.3227207 8.16841279,90.2747747 11.9837052,91.312913 L567.979303,90.0800195 C573.237222,90.3369258 576.673573,91.3173037 578.288355,93.0211533 C579.903136,94.725003 580.574874,96.6912128 580.303568,98.9197829" id="Path-3" stroke="#EEEEEE" stroke-width="6.5"></path>
                <circle id="Oval" stroke="#EEEEEE" stroke-width="6.5" cx="652" cy="78" r="11"></circle>
                <circle id="Oval-Copy" stroke="#EEEEEE" stroke-width="6.5" cx="580" cy="113" r="11"></circle>
            </g>
        </g>
    </g>
</svg>