<?xml version="1.0" encoding="UTF-8"?>
<svg width="490px" height="216px" viewBox="0 0 490 216" version="1.1" xmlns="http://www.w3.org/2000/svg" xmlns:xlink="http://www.w3.org/1999/xlink">
    <!-- Generator: Sketch 48.1 (47250) - http://www.bohemiancoding.com/sketch -->
    <title>Library_Icons_Illustration</title>
    <desc>Created with Sketch.</desc>
    <defs></defs>
    <g id="Netduino.Foundation-Web-Site" stroke="none" stroke-width="1" fill="none" fill-rule="evenodd" transform="translate(-830.000000, -1251.000000)">
        <g id="Supported-Peripherals" transform="translate(0.000000, 1224.000000)">
            <g id="Library_Icons_Illustration" transform="translate(830.000000, 27.000000)">
                <rect id="Rectangle-9" fill="#555555" x="0" y="0" width="490" height="216" rx="15"></rect>
                <g id="Icons" transform="translate(15.000000, 14.000000)" fill="#EEEEEE">
                    <path d="M445.140658,143.778446 C440.028537,141.151308 435.041488,141.007931 434.489337,141 L413,141 L413,151.243157 L434.361214,151.243157 C434.591225,151.252919 437.574669,151.406667 440.458055,152.889237 C444.226712,154.82573 446.058266,158.17036 446.058266,163.116531 C446.058266,167.999251 444.373138,171.163288 440.754569,173.075987 C437.697302,174.690951 434.416124,174.756233 434.418564,174.756843 L413.00061,174.756843 L413.00061,185 L434.418564,185 C434.970715,185 439.966305,184.926177 445.089409,182.36493 C452.320447,178.749411 456.302033,171.913725 456.302033,163.116531 C456.302033,154.344962 452.33814,147.476941 445.140658,143.778446 L445.140658,143.778446 Z M420.974764,148.68313 L415.85227,148.68313 L415.85227,143.561247 L420.974764,143.561247 L420.974764,148.68313 L420.974764,148.68313 Z M420.974764,182.439973 L415.85227,182.439973 L415.85227,177.31809 L420.974764,177.31809 L420.974764,182.439973 L420.974764,182.439973 Z" id="Shape"></path>
                    <g id="Group" transform="translate(338.000000, 140.000000)">
                        <path d="M45.6609589,14.6554795 C45.6719178,14.4753425 45.6876712,14.2965753 45.6876712,14.1143836 C45.6876712,9.13561644 41.6520548,5.1 36.6739726,5.1 C35.0315068,5.1 33.4958904,5.54383562 32.1726027,6.3130137 C30.3534247,2.59246575 26.5438356,0.0239726027 22.1232877,0.0239726027 C17.6671233,0.0239726027 13.8308219,2.63493151 12.0308219,6.40479452 C11.1589041,5.72808219 10.0650685,5.32123288 8.87534247,5.32123288 C6.02465753,5.32123288 3.7130137,7.63287671 3.7130137,10.4835616 C3.7130137,11.0184932 3.79452055,11.5349315 3.94657534,12.0205479 C1.72465753,13.3424658 0.230136986,15.7609589 0.230136986,18.5342466 C0.230136986,22.6815068 3.55958904,26.0445205 7.69246575,26.1075342 L7.69246575,26.1130137 L7.78013699,26.1130137 C7.79041096,26.1130137 7.8,26.1143836 7.8109589,26.1143836 C7.82054795,26.1143836 7.83013699,26.1130137 7.84041096,26.1130137 L43.0445205,26.1171233 C43.1527397,26.1226027 43.259589,26.1328767 43.3712329,26.1328767 C46.6671233,26.1328767 49.3383562,23.4616438 49.3383562,20.1664384 C49.3369863,17.6815068 47.8191781,15.5541096 45.6609589,14.6554795 L45.6609589,14.6554795 Z" id="Shape"></path>
                        <path d="M11.5883562,30.35 C10.7739726,29.5342466 9.45,29.5342466 8.63493151,30.35 C7.81849315,31.1657534 7.81849315,32.4883562 8.63493151,33.3047945 L12.6328767,37.3027397 C13.040411,37.710274 13.5753425,37.9150685 14.109589,37.9150685 C14.6445205,37.9150685 15.1794521,37.710274 15.5869863,37.3027397 C16.4020548,36.4863014 16.4020548,35.1636986 15.5869863,34.3472603 L11.5883562,30.35 L11.5883562,30.35 Z" id="Shape"></path>
                        <path d="M27.259589,30.35 C26.4452055,29.5342466 25.1205479,29.5342466 24.3061644,30.35 C23.490411,31.1657534 23.490411,32.4883562 24.3061644,33.3047945 L28.3041096,37.3027397 C28.7109589,37.710274 29.2465753,37.9150685 29.7808219,37.9150685 C30.3150685,37.9150685 30.8506849,37.710274 31.2575342,37.3027397 C32.0732877,36.4863014 32.0732877,35.1636986 31.2575342,34.3472603 L27.259589,30.35 L27.259589,30.35 Z" id="Shape"></path>
                        <path d="M24.1260274,39.7520548 C23.3116438,38.9369863 21.9869863,38.9369863 21.1719178,39.7520548 C20.3554795,40.5684932 20.3554795,41.8910959 21.1719178,42.7068493 L25.1691781,46.7047945 C25.5767123,47.1130137 26.1123288,47.3171233 26.6472603,47.3171233 C27.1808219,47.3171233 27.7164384,47.1130137 28.1246575,46.7047945 C28.939726,45.8890411 28.939726,44.5657534 28.1246575,43.75 L24.1260274,39.7520548 L24.1260274,39.7520548 Z" id="Shape"></path>
                        <path d="M39.7972603,39.7520548 C38.9821918,38.9369863 37.6575342,38.9369863 36.8431507,39.7520548 C36.0267123,40.5684932 36.0267123,41.8910959 36.8431507,42.7068493 L40.840411,46.7047945 C41.2486301,47.1130137 41.7835616,47.3171233 42.3178082,47.3171233 C42.8520548,47.3171233 43.3876712,47.1130137 43.7952055,46.7047945 C44.6109589,45.8890411 44.6109589,44.5657534 43.7952055,43.75 L39.7972603,39.7520548 L39.7972603,39.7520548 Z" id="Shape"></path>
                        <path d="M42.9308219,30.35 C42.1164384,29.5342466 40.7917808,29.5342466 39.9767123,30.35 C39.1609589,31.1657534 39.1609589,32.4883562 39.9767123,33.3047945 L43.9746575,37.3027397 C44.3821918,37.710274 44.9178082,37.9150685 45.4520548,37.9150685 C45.9869863,37.9150685 46.5219178,37.710274 46.9287671,37.3027397 C47.7452055,36.4863014 47.7452055,35.1636986 46.9287671,34.3472603 L42.9308219,30.35 L42.9308219,30.35 Z" id="Shape"></path>
                    </g>
                    <path d="M313.372574,150.001391 L313.349622,150.001391 L313.293981,150 L313.273811,150 C313.254337,150 313.232776,150 313.21191,150.001391 L313.188262,150.002087 C310.086258,150.002087 307.562228,152.526117 307.562228,155.628817 L307.562228,166.552602 C307.562228,167.601441 306.707438,168.45484 305.659294,168.45484 C305.626605,168.45484 305.567486,168.456231 305.53897,168.456927 C305.520886,168.456231 305.491675,168.455536 305.473591,168.455536 C304.424057,168.455536 303.570658,167.601441 303.570658,166.552602 L303.576917,155.628817 C303.576917,152.525421 301.052887,150.001391 297.949492,150.001391 L297.925844,150.001391 L297.870898,150 L297.850728,150 C297.831254,150 297.810388,150 297.788827,150.001391 L297.76518,150.002087 C294.663175,150.002087 292.139145,152.526117 292.139145,155.628817 L292.139145,166.552602 C292.139145,167.601441 291.285051,168.45484 290.236211,168.45484 C290.203522,168.45484 290.144403,168.456231 290.115887,168.456927 C290.097108,168.456231 290.067896,168.455536 290.050508,168.455536 C289.000974,168.455536 288.146879,167.601441 288.146879,166.552602 L288.153139,155.628121 C288.153139,152.525421 285.628413,150.001391 282.525713,150.001391 L282.50137,150.001391 L282.445729,150 L282.426254,150 C282.407475,150 282.385219,150 282.364353,150.001391 L282.340706,150.002087 C279.238701,150.002087 276.714671,152.526117 276.714671,155.628817 L276.714671,166.552602 C276.714671,167.601441 275.861272,168.45484 274.811738,168.45484 C274.779744,168.45484 274.719929,168.456231 274.691413,168.456927 C274.672634,168.456231 274.644118,168.455536 274.62673,168.455536 C273.5765,168.455536 272.723101,167.601441 272.723101,166.552602 L272.723101,160.875099 C272.723101,160.540556 272.451849,160.269304 272.118001,160.269304 L269.6051,160.269304 C269.271252,160.269304 269,160.540556 269,160.875099 L269,166.552602 C269,169.655302 271.52403,172.179332 274.627426,172.179332 L274.65316,172.180723 L274.702541,172.180723 L274.731753,172.180723 L274.739404,172.180723 C274.754705,172.180723 274.772093,172.180723 274.790177,172.179332 L274.812433,172.179332 C277.913742,172.179332 280.437772,169.654606 280.437772,166.552602 L280.437772,155.628817 C280.437772,154.579282 281.292562,153.725883 282.340706,153.725883 C282.374091,153.725883 282.435992,153.725187 282.462421,153.724492 C282.479114,153.724492 282.508325,153.725187 282.526409,153.725187 C283.575943,153.725187 284.429342,154.579282 284.429342,155.628121 L284.423778,166.552602 C284.423778,169.655302 286.947808,172.179332 290.051204,172.179332 L290.076938,172.180723 L290.12632,172.180723 L290.156227,172.180723 L290.164573,172.180723 C290.179179,172.180723 290.197262,172.180723 290.213955,172.179332 L290.236211,172.179332 C293.338216,172.179332 295.862246,169.654606 295.862246,166.552602 L295.862246,155.628817 C295.862246,154.579282 296.71634,153.725883 297.76518,153.725883 C297.798564,153.725883 297.85977,153.725187 297.886895,153.724492 C297.904283,153.724492 297.932799,153.725187 297.950187,153.725187 C299.000417,153.725187 299.854512,154.579282 299.854512,155.628121 L299.846861,166.552602 C299.846861,169.655302 302.371587,172.179332 305.474287,172.179332 L305.500716,172.180723 L305.550098,172.180723 L305.580005,172.180723 L305.587656,172.180723 C305.602262,172.180723 305.620345,172.180723 305.637733,172.179332 L305.659294,172.179332 C308.761299,172.179332 311.285329,169.654606 311.285329,166.552602 L311.285329,155.628817 C311.285329,154.579282 312.139423,153.725883 313.188262,153.725883 C313.221647,153.725883 313.282853,153.725187 313.309978,153.724492 C313.327366,153.724492 313.355882,153.725187 313.37327,153.725187 C314.4235,153.725187 315.277595,154.579282 315.277595,155.628121 L315.277595,160.885532 C315.277595,161.220075 315.548846,161.491327 315.882694,161.491327 L318.3949,161.491327 C318.728748,161.491327 319,161.220075 319,160.885532 L319,155.628121 C319,152.525421 316.47597,150.001391 313.372574,150.001391 L313.372574,150.001391 Z" id="Shape"></path>
                    <path d="M229.285615,163.003819 L229.255754,162.974652 L239.642703,152.589786 L225.049445,138 L225.049445,158.768344 L217.453506,151.171016 L215,153.623828 L224.379991,163.003125 L215,172.383811 L217.453506,174.837317 L225.049445,167.240684 L225.049445,188 L239.642703,173.406047 L229.262004,163.028125 L229.285615,163.003819 L229.285615,163.003819 Z M228.518938,146.371644 L234.73708,152.589786 L228.518938,158.807928 L228.518938,146.371644 L228.518938,146.371644 Z M228.518938,179.6228 L228.518938,167.187211 L234.73708,173.405353 L228.518938,179.6228 L228.518938,179.6228 Z" id="Shape"></path>
                    <g id="Group" transform="translate(144.000000, 140.000000)">
                        <path d="M39.7260274,17.9794521 C39.7260274,13.7308219 36.2815068,10.2869863 32.0328767,10.2869863 C29.0431507,10.2869863 26.4575342,11.9958904 25.1835616,14.4869863 C23.7417808,13.7376712 22.1068493,13.3082192 20.3691781,13.3082192 C16.2945205,13.309589 12.7719178,15.6376712 11.0356164,19.0321918 C10.2383562,18.4835616 9.27328767,18.160274 8.23424658,18.160274 C5.49041096,18.1616438 3.26575342,20.3849315 3.26575342,23.1287671 C3.26575342,23.5780822 3.3260274,24.0136986 3.43835616,24.4287671 C1.42260274,25.6986301 0.0753424658,27.9410959 0.0753424658,30.5027397 C0.0753424658,34.3520548 3.10616438,37.4890411 6.91027397,37.6705479 L6.91027397,37.6835616 L7.23013699,37.6835616 C7.23013699,37.6821918 7.23013699,37.6835616 7.25821918,37.6849315 C7.28561644,37.6835616 7.28561644,37.6821918 7.28561644,37.6835616 L27.6116438,37.6835616 C27.7143836,37.6890411 27.8410959,37.7020548 27.9815068,37.7020548 C30.1130137,37.7020548 32.019863,36.7479452 33.3075342,35.2486301 L33.5575342,35.2486301 L33.5575342,34.9369863 C34.4616438,33.7541096 35.0047945,32.2815068 35.0054795,30.6780822 C35.0047945,28.6910959 34.1664384,26.9082192 32.840411,25.6315068 C36.709589,25.2273973 39.7260274,21.9575342 39.7260274,17.9794521 L39.7260274,17.9794521 Z M27.8746575,35.3020548 L27.7246575,35.2924658 L27.6739726,35.289726 L27.6109589,35.289726 L7.28493151,35.289726 L7.22945205,35.289726 L7.18219178,35.289726 L7.18219178,35.2856164 C4.58356164,35.2465753 2.46643836,33.0972603 2.46780822,30.5027397 C2.46780822,28.7993151 3.34315068,27.2657534 4.81917808,26.3869863 L6.28082192,25.5178082 L5.7739726,23.8952055 C5.69657534,23.6493151 5.65821918,23.390411 5.65821918,23.1280822 C5.66027397,21.7089041 6.81369863,20.5554795 8.23424658,20.5527397 C8.80684932,20.5527397 9.34589041,20.7376712 9.80479452,21.0945205 L11.9157534,22.7308219 L13.0678082,20.3191781 C14.4054795,17.5157534 17.2746575,15.6993151 20.3691781,15.7006849 C24.8321918,15.709589 28.4561644,19.3328767 28.4650685,23.7965753 C28.4650685,23.8931507 28.4554795,23.9952055 28.4493151,24.1047945 L28.4376712,24.2849315 L28.3458904,25.8109589 L29.7582192,26.4 C31.4931507,27.1212329 32.6116438,28.7986301 32.6130137,30.6773973 C32.6082192,33.2294521 30.5342466,35.3041096 27.9808219,35.3089041 C27.9561644,35.309589 27.919863,35.3061644 27.8746575,35.3020548 L27.8746575,35.3020548 Z" id="Shape"></path>
                        <rect id="Rectangle" x="30.5506876" y="0.636981285" width="3.00753411" height="5.27808209"></rect>
                        <rect id="Rectangle" x="44.0404605" y="16.3965931" width="5.27808209" height="3.00753411"></rect>
                        <rect id="Rectangle" transform="translate(42.382927, 7.600816) rotate(-315.008103) translate(-42.382927, -7.600816) " x="40.8795164" y="4.96180051" width="3.00682042" height="5.27803153"></rect>
                        <rect id="Rectangle" transform="translate(42.420949, 28.297474) rotate(-135.000000) translate(-42.420949, -28.297474) " x="39.7819329" y="26.7940636" width="5.27803147" height="3.00682039"></rect>
                        <rect id="Rectangle" transform="translate(21.592523, 7.570916) rotate(-314.991897) translate(-21.592523, -7.570916) " x="18.9531647" y="6.06750602" width="5.2787164" height="3.00682042"></rect>
                    </g>
                    <g id="Group" transform="translate(87.000000, 137.000000)">
                        <path d="M20.7356164,28.6787671 L20.7356164,8.48082192 C20.7356164,3.88356164 16.9952055,0.143835616 12.3972603,0.143835616 C7.80068493,0.143835616 4.0609589,3.88356164 4.0609589,8.48082192 L4.0609589,28.6787671 C1.71369863,30.9267123 0.334931507,34.0664384 0.334931507,37.3952055 C0.334931507,44.0472603 5.74589041,49.4589041 12.3986301,49.4589041 C19.05,49.4589041 24.4623288,44.0472603 24.4623288,37.3952055 C24.4630137,34.0664384 23.0835616,30.9267123 20.7356164,28.6787671 L20.7356164,28.6787671 Z M12.3993151,46.8342466 C7.19520548,46.8335616 2.9609589,42.5986301 2.96027397,37.3952055 C2.96027397,34.4342466 4.34383562,31.6630137 6.6869863,29.8821918 L6.6869863,8.48013699 C6.68767123,5.33150685 9.25,2.76917808 12.3979452,2.76780822 L12.3979452,2.76780822 L12.3986301,2.76780822 C15.5472603,2.76917808 18.110274,5.33150685 18.1116438,8.48082192 L18.1116438,29.8821918 C20.4541096,31.6630137 21.8369863,34.4342466 21.8369863,37.3952055 C21.8369863,42.5986301 17.6027397,46.8335616 12.3993151,46.8342466 L12.3993151,46.8342466 Z" id="Shape"></path>
                        <path d="M12.3979452,15.1767123 C11.089726,15.1794521 10.0294521,16.2383562 10.0273973,17.5479452 L10.0273973,31.7328767 L9.41780822,32.0753425 C7.55547945,33.1232877 6.29931507,35.1089041 6.3,37.3952055 C6.30616438,40.7630137 9.03013699,43.4869863 12.3986301,43.4931507 C15.7657534,43.4863014 18.490411,40.7630137 18.4958904,37.3952055 C18.4972603,35.109589 17.239726,33.1239726 15.3787671,32.0753425 L14.7684932,31.7328767 L14.7684932,17.5479452 C14.7684932,16.2390411 13.7075342,15.1794521 12.3979452,15.1767123 L12.3979452,15.1767123 Z" id="Shape"></path>
                    </g>
                    <g id="Group" transform="translate(1.000000, 146.000000)">
                        <path d="M46.8842466,0.632876712 L2.85821918,0.632876712 C1.37739726,0.632876712 0.17739726,1.83356164 0.17739726,3.3130137 L0.17739726,28.3417808 C0.17739726,29.8226027 1.37739726,31.0219178 2.85821918,31.0219178 L46.8842466,31.0219178 C48.3643836,31.0219178 49.5643836,29.8226027 49.5643836,28.3417808 L49.5643836,3.3130137 C49.5643836,1.83356164 48.3643836,0.632876712 46.8842466,0.632876712 L46.8842466,0.632876712 Z M46.9630137,28.3417808 C46.9630137,28.3863014 46.9273973,28.4205479 46.8842466,28.4205479 L2.85821918,28.4205479 C2.81438356,28.4205479 2.77945205,28.3863014 2.77945205,28.3417808 L2.77945205,3.3130137 C2.77945205,3.26986301 2.81438356,3.23424658 2.85821918,3.23424658 L46.8842466,3.23424658 C46.9273973,3.23424658 46.9630137,3.26986301 46.9630137,3.3130137 L46.9630137,28.3417808 L46.9630137,28.3417808 Z" id="Shape"></path>
                        <rect id="Rectangle" x="7.34863281" y="6.4410902" width="4.15890413" height="4.15958901"></rect>
                        <rect id="Rectangle" x="15.0732589" y="6.4410902" width="4.16027389" height="4.15958901"></rect>
                        <rect id="Rectangle" x="22.8582513" y="6.4410902" width="4.15958901" height="4.15958901"></rect>
                        <rect id="Rectangle" x="30.5828774" y="6.4410902" width="4.16027389" height="4.15958901"></rect>
                        <rect id="Rectangle" x="38.3089248" y="6.4410902" width="4.15958901" height="4.15958901"></rect>
                        <rect id="Rectangle" x="11.3595623" y="13.8116288" width="4.15890413" height="4.16027389"></rect>
                        <rect id="Rectangle" x="19.0836031" y="13.8116288" width="4.16027389" height="4.16027389"></rect>
                        <rect id="Rectangle" x="26.8691808" y="13.8116288" width="4.15958901" height="4.16027389"></rect>
                        <rect id="Rectangle" x="34.5938069" y="13.8116288" width="4.16027389" height="4.16027389"></rect>
                        <rect id="Rectangle" x="15.0835429" y="21.1822092" width="19.6595884" height="4.16027389"></rect>
                    </g>
                    <g id="Group" transform="translate(408.000000, 69.000000)">
                        <rect id="Rectangle" x="8.84930336" y="8.7054527" width="32.9246573" height="8.40753399"></rect>
                        <rect id="Rectangle" x="8.84930336" y="21.6582834" width="8.39999996" height="19.9732872"></rect>
                        <rect id="Rectangle" x="22.4719322" y="21.6582834" width="19.3047942" height="19.9732872"></rect>
                        <path d="M0.565068493,0.56369863 L0.565068493,49.8465753 L49.9212329,49.8465753 L49.9212329,0.56369863 L0.565068493,0.56369863 L0.565068493,0.56369863 Z M47.1815068,47.1068493 L3.30479452,47.1068493 L3.30479452,3.30342466 L47.1815068,3.30342466 L47.1815068,47.1068493 L47.1815068,47.1068493 Z" id="Shape"></path>
                    </g>
                    <g id="Group" transform="translate(345.000000, 69.000000)">
                        <path d="M0.424657534,39.3287671 C0.424657534,44.6369863 2.12876712,47.3410959 2.47054795,47.8287671 L3.52191781,49.3321918 L5.35684932,49.3321918 L31.25,49.3321918 L33.0746575,49.3321918 L34.1273973,47.8417808 C34.4705479,47.3561644 36.1821918,44.659589 36.1821918,39.2678082 C36.1821918,33.7520548 31.3075342,28.3054795 27.2924658,24.7541096 C31.930137,20.6691781 36.1821918,15.1623288 36.1821918,10.019863 C36.1821918,4.85410959 34.5150685,2.09315068 34.1815068,1.59109589 L33.1356164,0.0226027397 L31.2506849,0.0226027397 L5.35753425,0.0226027397 L3.45684932,0.0226027397 L2.4130137,1.6109589 C2.08082192,2.11575342 0.425342466,4.89931507 0.425342466,10.0780822 C0.425342466,15.5835616 5.46164384,21.1267123 9.3260274,24.5691781 C4.68356164,28.660274 0.424657534,34.1767123 0.424657534,39.3287671 L0.424657534,39.3287671 Z M3.94794521,10.0794521 C3.94794521,5.69178082 5.35684932,3.54657534 5.35684932,3.54657534 L31.25,3.54657534 C31.25,3.54657534 32.6589041,5.66027397 32.6589041,10.0205479 C32.6589041,14.3808219 27.6013699,20.530137 21.6623288,24.7226027 C27.4,28.9808219 32.6589041,34.7246575 32.6589041,39.2684932 C32.6589041,43.8143836 31.25,45.809589 31.25,45.809589 L5.35684932,45.809589 C5.35684932,45.809589 3.94794521,43.7958904 3.94794521,39.3287671 C3.94794521,34.8616438 9.00547945,28.8075342 14.9445205,24.610274 C9.20616438,20.3568493 3.94794521,14.4671233 3.94794521,10.0794521 L3.94794521,10.0794521 Z" id="Shape"></path>
                        <path d="M27.4438356,10.7650685 C27.4438356,7.81849315 26.739726,7.86232877 26.739726,7.86232877 L9.86780822,7.86232877 C9.86780822,7.86232877 9.1630137,7.81917808 9.1630137,10.7986301 C9.1630137,14.3671233 18.3041096,20.9047945 18.3041096,20.9047945 C18.3041096,20.9047945 27.4438356,14.240411 27.4438356,10.7650685 L27.4438356,10.7650685 Z" id="Shape"></path>
                    </g>
                    <g id="Group" transform="translate(270.000000, 69.000000)">
                        <circle id="Oval" cx="44.5222219" cy="44.5284526" r="5.38402763"></circle>
                        <circle id="Oval" cx="44.5576562" cy="5.46391805" r="5.38402763"></circle>
                        <circle id="Oval" cx="5.49235874" cy="5.51876492" r="5.38402763"></circle>
                        <circle id="Oval" cx="5.45764499" cy="44.5832994" r="5.38402763"></circle>
                        <path d="M36.4701389,36.4833333 C42.8006944,30.1520833 42.8006944,19.8888889 36.4701389,13.5583333 C33.3041667,10.3923611 29.15625,8.80972222 25.0076389,8.80972222 C20.8590278,8.80972222 16.7104167,10.3923611 13.5444444,13.5583333 C7.21388889,19.8881944 7.21388889,30.1520833 13.5444444,36.4833333 C16.7104167,39.6486111 20.8590278,41.2305556 25.0076389,41.2305556 C29.15625,41.2305556 33.3041667,39.6486111 36.4701389,36.4833333 L36.4701389,36.4833333 Z M16.4909722,16.5048611 C18.7659722,14.2298611 21.7909722,12.9770833 25.0076389,12.9770833 C28.2243056,12.9770833 31.2493056,14.2298611 33.5243056,16.5048611 C38.2201389,21.2006944 38.2194444,28.8416667 33.5243056,33.5368056 C31.2493056,35.8118056 28.2243056,37.0638889 25.0076389,37.0638889 C21.7902778,37.0638889 18.7659722,35.8111111 16.4909722,33.5375 C11.7951389,28.8409722 11.7951389,21.2 16.4909722,16.5048611 L16.4909722,16.5048611 Z" id="Shape"></path>
                    </g>
                    <g id="Group" transform="translate(201.000000, 74.000000)">
                        <path d="M38.4876712,0.25 L12.1164384,0.25 C12.1164384,0.25 0.604109589,5.52671233 0.604109589,20.9986301 C0.604109589,36.4712329 12.1164384,41.6273973 12.1164384,41.6273973 L38.4876712,41.6273973 C38.4876712,41.6273973 50,36.5294521 50,20.9979452 C50,5.46712329 38.4876712,0.25 38.4876712,0.25 L38.4876712,0.25 Z M37.6486301,38.1835616 L12.960274,38.1835616 C10.9184932,37.0041096 4.04863014,32.2 4.04863014,20.9986301 C4.04863014,9.81643836 10.8760274,4.93287671 12.9794521,3.69452055 L37.6356164,3.69452055 C39.6863014,4.89178082 46.5554795,9.74657534 46.5554795,20.9979452 C46.5561644,32.2273973 39.7253425,36.9938356 37.6486301,38.1835616 L37.6486301,38.1835616 Z" id="Shape"></path>
                        <rect id="Rectangle" x="14.9623087" y="10.0883588" width="4.09041104" height="12.0479453"></rect>
                        <rect id="Rectangle" x="31.5986529" y="10.0883588" width="4.09041104" height="12.0479453"></rect>
                        <path d="M25.2952055,25.9417808 C21.4184932,25.9417808 21.1760274,29.669863 21.1616438,30.1363014 C21.160274,30.1678082 21.160274,34.8958904 21.160274,34.8958904 L29.4917808,34.8958904 C29.4917808,34.8958904 29.4910959,30.1712329 29.489726,30.1458904 C29.4712329,29.7328767 29.2034247,25.9417808 25.2952055,25.9417808 L25.2952055,25.9417808 Z" id="Shape"></path>
                    </g>
                    <g id="Group" transform="translate(148.000000, 70.000000)">
                        <path d="M15.4347222,0.0263888889 C15.3166667,0.0263888889 15.2534722,0.0298611111 15.2534722,0.0298611111 C15.2534722,0.0298611111 15.1902778,0.0263888889 15.0722222,0.0263888889 C13.3888889,0.0263888889 0.534027778,0.553472222 0.534027778,16.6111111 C0.534027778,23.6694444 9.14652778,36.5409722 9.14652778,39.9875 L21.4166667,39.9875 C21.4166667,36.5409722 29.9708333,23.6694444 29.9708333,16.6111111 C29.9715278,0.552083333 17.1166667,0.0263888889 15.4347222,0.0263888889 L15.4347222,0.0263888889 Z M18.7347222,36.5243056 L17.3819444,36.5243056 L17.3819444,27.5861111 L13.2409722,27.5861111 L13.2409722,36.5243056 L11.825,36.5243056 C11.2361111,34.9631944 10.3201389,33.0409722 9.09166667,30.5020833 C6.94097222,26.0583333 3.99791667,19.9736111 3.99791667,16.6111111 C3.99791667,11.1381944 5.68333333,7.31041667 9.00694444,5.23472222 C11.7215278,3.53888889 14.7381944,3.49027778 15.0722222,3.49027778 L15.1111111,3.49027778 L15.2291667,3.49444444 L15.3722222,3.49027778 L15.4347222,3.49027778 C15.76875,3.49027778 18.7854167,3.53819444 21.5,5.23472222 C24.8243056,7.31041667 26.5090278,11.1381944 26.5090278,16.6111111 C26.5090278,19.9777778 23.5833333,26.0645833 21.4465278,30.5111111 C20.2291667,33.0444444 19.3194444,34.9666667 18.7347222,36.5243056 L18.7347222,36.5243056 Z" id="Shape"></path>
                        <rect id="Rectangle" x="9.1410319" y="41.7409261" width="12.2715274" height="3.22986113"></rect>
                        <rect id="Rectangle" x="12.2395833" y="46.6944377" width="6.10208313" height="3.22986113"></rect>
                    </g>
                    <g id="Group" transform="translate(73.000000, 73.000000)">
                        <path d="M8.15890411,0.560958904 L3.23972603,0.560958904 L3.23972603,10.3239726 L0.0636986301,10.3239726 L0.0636986301,23.0472603 L3.23972603,23.0472603 L3.23972603,44.160274 L8.15890411,44.160274 L8.15890411,23.0472603 L11.2417808,23.0472603 L11.2417808,10.3239726 L8.15890411,10.3239726 L8.15890411,0.560958904 L8.15890411,0.560958904 Z M9.55479452,12.0123288 L9.55479452,21.359589 L1.75136986,21.359589 L1.75136986,12.0123288 L9.55479452,12.0123288 L9.55479452,12.0123288 Z" id="Shape"></path>
                        <path d="M20.8815068,0.560958904 L15.9636986,0.560958904 L15.9636986,25.7061644 L12.7280822,25.7061644 L12.7280822,38.4294521 L15.9636986,38.4294521 L15.9636986,44.160274 L20.8815068,44.160274 L20.8815068,38.4294521 L23.9054795,38.4294521 L23.9054795,25.7061644 L20.8815068,25.7061644 L20.8815068,0.560958904 L20.8815068,0.560958904 Z M22.2178082,27.3945205 L22.2178082,36.7417808 L14.4150685,36.7417808 L14.4150685,27.3945205 L22.2178082,27.3945205 L22.2178082,27.3945205 Z" id="Shape"></path>
                        <path d="M33.5363014,0.560958904 L28.6178082,0.560958904 L28.6178082,5.66575342 L25.4472603,5.66575342 L25.4472603,18.3883562 L28.6178082,18.3883562 L28.6178082,44.160274 L33.5363014,44.160274 L33.5363014,18.3883562 L36.6253425,18.3883562 L36.6253425,5.66575342 L33.5363014,5.66575342 L33.5363014,0.560958904 L33.5363014,0.560958904 Z M34.9376712,7.35342466 L34.9376712,16.7006849 L27.1356164,16.7006849 L27.1356164,7.35342466 L34.9376712,7.35342466 L34.9376712,7.35342466 Z" id="Shape"></path>
                        <path d="M46.1910959,20.660274 L46.1910959,0.560958904 L41.2719178,0.560958904 L41.2719178,20.660274 L38.209589,20.660274 L38.209589,33.3828767 L41.2719178,33.3828767 L41.2719178,44.160274 L46.1910959,44.160274 L46.1910959,33.3828767 L49.3876712,33.3828767 L49.3876712,20.660274 L46.1910959,20.660274 L46.1910959,20.660274 Z M47.7006849,31.6958904 L39.8972603,31.6958904 L39.8972603,22.3479452 L47.7006849,22.3479452 L47.7006849,31.6958904 L47.7006849,31.6958904 Z" id="Shape"></path>
                    </g>
                    <g id="Group" transform="translate(1.000000, 71.000000)">
                        <path d="M24.7034247,17.2972603 C20.3369863,17.2972603 16.7972603,20.8369863 16.7972603,25.2027397 C16.7972603,29.569863 20.3369863,33.1089041 24.7034247,33.1089041 C29.069863,33.1089041 32.6089041,29.569863 32.6089041,25.2027397 C32.6089041,20.8369863 29.069863,17.2972603 24.7034247,17.2972603 L24.7034247,17.2972603 Z M24.7034247,30.3684932 C21.8547945,30.3684932 19.5369863,28.0513699 19.5369863,25.2027397 C19.5369863,22.3541096 21.8547945,20.0369863 24.7034247,20.0369863 C27.5520548,20.0369863 29.8691781,22.3541096 29.8691781,25.2027397 C29.8691781,28.0513699 27.5527397,30.3684932 24.7034247,30.3684932 L24.7034247,30.3684932 Z" id="Shape"></path>
                        <rect id="Rectangle" x="23.1808179" y="0.531507518" width="3.08972613" height="12.2732881"></rect>
                        <rect id="Rectangle" x="23.1808179" y="37.5225746" width="3.08972613" height="12.2732881"></rect>
                        <rect id="Rectangle" x="37.0418183" y="23.5760414" width="12.2732881" height="3.08972613"></rect>
                        <rect id="Rectangle" x="0.0506675407" y="23.5760414" width="12.2732881" height="3.08972613"></rect>
                        <rect id="Rectangle" transform="translate(37.787739, 12.095878) rotate(-315.000000) translate(-37.787739, -12.095878) " x="36.2428912" y="5.95929302" width="3.0896965" height="12.2731704"></rect>
                        <rect id="Rectangle" transform="translate(11.638654, 38.292067) rotate(-135.000000) translate(-11.638654, -38.292067) " x="10.0938056" y="32.1554818" width="3.0896965" height="12.2731704"></rect>
                        <rect id="Rectangle" transform="translate(37.714375, 38.246060) rotate(-135.000000) translate(-37.714375, -38.246060) " x="31.5777895" y="36.7012122" width="12.2731704" height="3.0896965"></rect>
                        <rect id="Rectangle" transform="translate(11.552550, 12.051102) rotate(-315.000000) translate(-11.552550, -12.051102) " x="5.41596442" y="10.5062533" width="12.2731704" height="3.0896965"></rect>
                    </g>
                    <g id="Group" transform="translate(409.000000, 1.000000)">
                        <path d="M24.7465753,0.4 C11.1287671,0.4 0.0890410959,11.4390411 0.0890410959,25.0575342 C0.0890410959,29.2589041 1.14246575,33.2123288 2.99520548,36.6739726 C5.33082192,41.039726 8.94383562,44.6164384 13.3328767,46.9130137 C16.7458904,48.6986301 20.6267123,49.7150685 24.7465753,49.7150685 C29.0041096,49.7150685 33.0089041,48.6363014 36.5041096,46.7363014 C40.8527397,44.3732877 44.4041096,40.7363014 46.6739726,36.3308219 C48.4150685,32.9506849 49.4041096,29.1212329 49.4041096,25.0575342 C49.4041096,11.4390411 38.3643836,0.4 24.7465753,0.4 L24.7465753,0.4 Z M42.6212329,29.7979452 C42.4808219,30.3273973 42.309589,30.8438356 42.1232877,31.3534247 C41.3034247,31.1143836 40.4369863,30.9828767 39.539726,30.9828767 C34.4178082,30.9828767 30.2671233,35.1349315 30.2671233,40.2561644 C30.2671233,41.0657534 30.3767123,41.8472603 30.5719178,42.5952055 C30.3431507,42.6712329 30.1164384,42.7520548 29.8835616,42.8191781 C28.2513699,43.2910959 26.5294521,43.55 24.7465753,43.55 C23.0684932,43.55 21.4424658,43.3212329 19.8952055,42.9 C19.6452055,42.8315068 19.4,42.75 19.1541096,42.6719178 C19.3287671,41.9609589 19.4246575,41.2191781 19.4246575,40.4547945 C19.4246575,35.3328767 15.2732877,31.1815068 10.1513699,31.1815068 C9.21369863,31.1815068 8.31027397,31.3246575 7.45821918,31.5842466 C7.27123288,31.090411 7.09726027,30.590411 6.95205479,30.0780822 C6.50068493,28.480137 6.25342466,26.7979452 6.25342466,25.0575342 C6.25342466,14.860274 14.5493151,6.56438356 24.7465753,6.56438356 C34.9438356,6.56438356 43.239726,14.860274 43.239726,25.0575342 C43.239726,26.6958904 43.0226027,28.2842466 42.6212329,29.7979452 L42.6212329,29.7979452 Z" id="Shape"></path>
                        <path d="M27.1205479,22.0993151 L19.1732877,9.56369863 L17.9273973,10.0842466 L21.2342466,24.5164384 C21.2054795,24.7020548 21.190411,24.890411 21.190411,25.0767123 C21.1890411,26.530137 22.0513699,27.9089041 23.4773973,28.5027397 C23.9431507,28.6979452 24.4280822,28.7890411 24.9054795,28.7890411 C26.3582192,28.7890411 27.7369863,27.9287671 28.3315068,26.5061644 C28.5253425,26.0383562 28.6191781,25.5527397 28.6191781,25.0787671 C28.6171233,23.9136986 28.069863,22.8034247 27.1205479,22.0993151 L27.1205479,22.0993151 Z" id="Shape"></path>
                        <rect id="Rectangle" x="23.6273779" y="8.4095576" width="2.28972598" height="5.64657564"></rect>
                        <rect id="Rectangle" transform="translate(33.796741, 15.529969) rotate(-45.008103) translate(-33.796741, -15.529969) " x="30.9734807" y="14.3854599" width="5.64652155" height="2.28901917"></rect>
                        <rect id="Rectangle" x="34.8650371" y="21.7959051" width="5.64657564" height="2.2890411"></rect>
                        <rect id="Rectangle" x="9.04039357" y="21.7959051" width="5.64657564" height="2.2890411"></rect>
                        <rect id="Rectangle" transform="translate(14.961805, 15.648317) rotate(-135.000000) translate(-14.961805, -15.648317) " x="12.138202" y="14.5038073" width="5.64720604" height="2.28901915"></rect>
                    </g>
                    <g id="Group" transform="translate(340.000000, 12.000000)">
                        <path d="M46.2,7.02534247 L46.2,0.62739726 L0.609589041,0.62739726 L0.609589041,26.6554795 L46.2,26.6554795 L46.2,20.2575342 L49.8513699,18.8260274 L49.8513699,8.45616438 L46.2,7.02534247 L46.2,7.02534247 Z M41.8547945,22.310274 L4.95410959,22.310274 L4.95410959,4.97260274 L41.8547945,4.97260274 L41.8547945,22.310274 L41.8547945,22.310274 Z" id="Shape"></path>
                        <polygon id="Shape" points="25.3335616 18.6369863 38.919863 8.44520548 26.4732877 13.5452055 21.3815068 8.44520548 7.80410959 18.6369863 20.25 13.5369863"></polygon>
                    </g>
                    <path d="M320,7 L270,7 L270,41.3546257 L291.420032,41.3546257 L285.632863,47.1417947 L304.335859,47.1417947 L298.536874,41.3546257 L320,41.3546257 L320,7 L320,7 Z M314.439424,35.7940502 L275.560576,35.7940502 L275.560576,12.5605755 L314.439424,12.5605755 L314.439424,35.7940502 L314.439424,35.7940502 Z" id="Shape"></path>
                    <g id="Group" transform="translate(204.000000, 0.000000)">
                        <polygon id="Shape" points="6.26917808 19.0239726 0 19.0239726 0 31.5363014 6.31232877 31.5363014 18.7643836 44.0082192 18.7643836 6.4869863 6.26917808 19.0013699"></polygon>
                        <path d="M23.5684932,17.3513699 L21.6808219,21.0534247 L21.6808219,21.1431507 C22.8650685,22.1054795 23.6383562,23.5547945 23.6383562,25.1958904 C23.6383562,26.8363014 22.8650685,28.2856164 21.6808219,29.2465753 L21.6808219,29.2609589 L23.5972603,33.0191781 C26.1287671,31.3369863 27.8020548,28.4650685 27.8020548,25.1958904 C27.8020548,21.9130137 26.1171233,19.0308219 23.5684932,17.3513699 L23.5684932,17.3513699 Z" id="Shape"></path>
                        <path d="M37.3664384,25.1958904 C37.3664384,18.2150685 33.5294521,12.1410959 27.8554795,8.93767123 L25.9945205,12.590411 L25.9945205,12.6780822 C30.2979452,15.1986301 33.2034247,19.8582192 33.2034247,25.1958904 C33.2034247,30.5328767 30.2979452,35.1938356 25.9945205,37.7130137 L25.9945205,37.7239726 L27.8863014,41.4369863 C33.5431507,38.2273973 37.3664384,32.1630137 37.3664384,25.1958904 L37.3664384,25.1958904 Z" id="Shape"></path>
                        <path d="M32.1431507,0.526712329 L30.25,4.24041096 C37.5828767,8.35753425 42.5534247,16.2054795 42.5534247,25.1965753 C42.5534247,34.1753425 37.5965753,42.0116438 30.280137,46.1335616 L32.1739726,49.8472603 C40.8417808,45.040411 46.7164384,35.809589 46.7164384,25.1965753 C46.7164384,14.5671233 40.8280822,5.32739726 32.1431507,0.526712329 L32.1431507,0.526712329 Z" id="Shape"></path>
                    </g>
                    <path d="M184.069853,33.7752341 C183.372663,32.3461672 182.230797,31.0218522 180.673391,29.8397503 C179.298435,28.7950052 177.632115,27.8848422 175.721605,27.1342352 C173.928334,26.4308012 171.962327,25.8862296 169.881855,25.5171696 C168.424345,25.2591051 166.918969,25.0953867 165.391394,25.0156087 L165.796527,17.1016302 C169.519732,16.117239 172.270339,12.7339577 172.270339,8.70065904 C172.270339,3.89594173 168.375091,0 163.56968,0 C158.764269,0 154.869715,3.89594173 154.869715,8.70065904 C154.869715,12.7013528 157.573842,16.0617412 161.249874,17.0780437 L161.655008,25.002428 C160.051123,25.0752688 158.472212,25.2466181 156.94533,25.5171696 C154.864859,25.8855359 152.898851,26.4308012 151.104193,27.1342352 C149.194377,27.8848422 147.529444,28.7956989 146.1531,29.8397503 C144.597776,31.0232397 143.454522,32.3461672 142.756638,33.7752341 C142.020599,35.2806105 141.822195,36.8269164 142.15865,38.3725286 C142.156569,38.3759972 142.152406,38.3759972 142.152406,38.3773847 C142.152406,38.3808533 142.152406,38.3822407 142.1531,38.3850156 L142.264096,38.8949011 L142.373704,39.3909122 C142.433364,39.6670135 142.514529,39.9493583 142.620669,40.2532085 L142.631074,40.2851197 L142.644949,40.3246618 C142.738601,40.5855012 142.852372,40.8505029 142.992503,41.1377038 L143.009847,41.1758585 L143.04037,41.2382934 C143.17079,41.4984391 143.324796,41.7669095 143.49892,42.0381547 L143.527363,42.0825529 L143.570374,42.1491502 C143.736867,42.4037461 143.926947,42.6631981 144.133676,42.9205689 L144.161425,42.9552549 L144.220391,43.0287895 C144.428508,43.2826916 144.659517,43.538675 144.906482,43.7925772 C144.946024,43.8335068 144.984179,43.8716615 145.025108,43.9118973 C145.278317,44.1644121 145.546094,44.4127645 145.820114,44.6444676 L145.889486,44.7013528 L145.935271,44.7408949 C146.240509,44.9954908 146.558234,45.2403746 146.876652,45.4672216 L146.949493,45.5185571 L146.984179,45.5407562 C147.345608,45.7960458 147.697325,46.0235865 148.057366,46.2414152 C148.162118,46.3038502 148.268952,46.364204 148.374397,46.4252515 L148.413246,46.4474506 L148.499961,46.4973985 C148.555459,46.5293097 148.61165,46.5626084 148.669923,46.5945196 C149.11113,46.838016 149.584248,47.0787374 150.074016,47.3048907 L150.108702,47.3208463 L150.180849,47.3534513 C150.65813,47.5712799 151.14651,47.7773153 151.632115,47.962539 L151.671657,47.9771072 L151.738948,48.0020812 C152.249527,48.1956296 152.786468,48.3801596 153.335202,48.5501214 L153.391394,48.5653833 L153.448279,48.5827263 C154.001869,48.7513007 154.574189,48.9066944 155.147897,49.0454388 L155.231144,49.0662504 C155.863124,49.2160943 156.487474,49.3458203 157.106968,49.4554284 L157.136104,49.4602844 C157.458685,49.5171696 157.779878,49.5546306 158.101071,49.6018037 C158.120495,49.6045786 158.137838,49.6066597 158.157262,49.6101283 C158.477762,49.6573014 158.800343,49.7134929 159.122923,49.7516476 C159.156222,49.7565036 159.18952,49.7585848 159.223513,49.7627471 C159.877693,49.8383628 160.542972,49.895248 161.203395,49.9334027 L161.308841,49.9396462 C162.021293,49.9798821 162.728889,50 163.412205,50 C163.766003,50 164.119108,49.9798821 164.472906,49.9694762 C164.48678,49.9687825 164.502042,49.9687825 164.515917,49.9687825 C164.862778,49.957683 165.211026,49.957683 165.554418,49.9382588 L165.591185,49.9361776 C166.262708,49.8973292 166.941168,49.8397503 167.606447,49.7627471 L167.691081,49.753035 C168.320287,49.6788068 168.96198,49.5865418 169.598123,49.4755463 L169.756985,49.4477974 C170.37856,49.3368019 170.979323,49.2112383 171.560662,49.0738814 L171.611997,49.0607007 L171.665414,49.0489074 C172.21831,48.9171002 172.781612,48.7617066 173.340058,48.5924384 C173.419836,48.5681582 173.49892,48.5424905 173.575924,48.5168228 L173.752823,48.4592438 C174.178768,48.3239681 174.55199,48.1942421 174.899545,48.067291 C175.072282,48.0020812 175.240856,47.9368713 175.410124,47.870274 C175.747273,47.7384669 176.087197,47.5955602 176.418796,47.4471037 L176.520079,47.4033992 C176.633849,47.3534513 176.749007,47.3021159 176.858615,47.2507804 C177.292885,47.0475199 177.704956,46.8373222 178.080953,46.6319806 C178.238428,46.5459591 178.39174,46.4585501 178.542278,46.3725286 L178.627606,46.3218869 L178.750395,46.2497399 C178.981404,46.1116892 179.20617,45.9708637 179.423998,45.8286507 L179.448972,45.8126951 C179.673738,45.6628512 179.891567,45.5095387 180.103846,45.3534513 L180.168362,45.3069719 L180.207904,45.2764481 C180.452094,45.0953867 180.694897,44.9039195 180.929375,44.7062088 L180.971692,44.6729102 L181.04037,44.616025 C181.269298,44.4210891 181.497533,44.2101977 181.720911,43.9930628 L181.811095,43.9014915 L181.848556,43.8647242 C182.05806,43.6531391 182.240509,43.4575095 182.40839,43.2653486 L182.434751,43.2362123 L182.4625,43.2043011 C182.633156,43.0038155 182.80173,42.7908429 182.976548,42.5501214 C183.020252,42.4897676 183.066038,42.4294138 183.108355,42.3676726 C183.154141,42.3003815 183.199926,42.2365591 183.242937,42.1678807 C183.298435,42.0867152 183.351158,42.0034686 183.401799,41.920222 C183.442035,41.8563996 183.482271,41.7911897 183.519732,41.728061 C183.571761,41.6406521 183.620322,41.5497745 183.669576,41.4609781 C183.710506,41.3853625 183.738948,41.3305584 183.768084,41.2771419 C183.818032,41.1786334 183.863124,41.0828998 183.908216,40.985085 L183.93319,40.9330558 C183.948452,40.8969823 183.966489,40.8616025 183.981751,40.825529 C184.043492,40.688172 184.09899,40.5494277 184.151019,40.4092959 L184.174605,40.3385362 L184.192642,40.2878946 C184.232184,40.1775928 184.268258,40.0686785 184.30225,39.9583767 L184.314737,39.9146722 L184.33763,39.8362817 C184.379947,39.6899063 184.419489,39.5428373 184.450707,39.3929934 L184.558234,38.9011446 L184.665761,38.4086022 L184.65813,38.4079084 C184.660211,38.4030524 184.660211,38.3995838 184.661598,38.3947277 C184.663679,38.3905654 184.670617,38.3905654 184.670617,38.3864031 C184.67131,38.3829344 184.672004,38.3801596 184.672004,38.3780784 C184.672004,38.3739161 184.667148,38.3739161 184.665761,38.3725286 C185.003603,36.8144294 184.804505,35.2771419 184.069853,33.7752341 L184.069853,33.7752341 Z M159.204089,8.5119667 C157.987301,8.06243496 157.41498,6.578564 157.924866,5.1987513 C158.435445,3.81616372 159.835376,3.0620881 161.052164,3.51092612 C162.269645,3.96045786 162.841966,5.44432882 162.331387,6.82622268 C161.820807,8.20603538 160.420877,8.96219216 159.204089,8.5119667 L159.204089,8.5119667 Z M161.791671,44.109608 L161.78959,44.109608 L161.802077,43.7100243 L161.791671,44.109608 L161.791671,44.109608 Z M179.002216,36.7221644 C178.914807,37.0537634 178.798955,37.3707943 178.656742,37.6690947 C178.151019,38.7291016 177.293579,39.7162678 176.107314,40.6042317 C174.850291,41.543531 173.292191,42.3232744 171.478109,42.9191814 C169.551643,43.5532431 167.442035,43.945196 165.207557,44.0853278 L165.041064,39.1252168 L165.04037,39.0974679 L165.011928,39.0974679 L161.94429,39.0974679 L161.916541,39.0974679 L161.915154,39.1252168 L161.761841,44.0936524 C159.512101,43.9632327 157.383763,43.5775234 155.435792,42.9469303 C153.603672,42.3544918 152.029618,41.5747485 150.758026,40.6319806 C149.55858,39.740548 148.690735,38.7492196 148.17738,37.685744 C148.030311,37.3784253 147.910991,37.0516823 147.823582,36.7152272 C147.822195,36.7089837 147.822195,36.7041276 147.820114,36.6999653 L147.822195,36.6978841 L147.81942,36.6396115 C147.817339,36.5737079 147.815951,36.5084981 147.815951,36.4425945 C147.815951,36.4425945 147.817339,36.4259452 147.817339,36.4099896 L147.817339,36.3773847 C147.817339,36.3773847 147.818032,36.3683663 147.818032,36.3600416 C147.818726,36.3496358 147.81942,36.3413111 147.81942,36.3413111 L147.820114,36.3031564 C147.820807,36.271939 147.822195,36.2434964 147.822195,36.2129726 C147.826357,36.1380506 147.831907,36.0617412 147.839538,35.9847381 C147.839538,35.9847381 147.840925,35.9736386 147.841619,35.9618453 C147.843006,35.9514395 147.844394,35.9389525 147.844394,35.9389525 C147.854106,35.8661117 147.859656,35.8106139 147.867287,35.7565036 C147.877693,35.6878252 147.888792,35.6191467 147.901279,35.5518557 L154.638705,35.5518557 L154.670617,35.5518557 L154.668535,35.5213319 L154.884977,33.0933056 L154.892608,33.0593132 L154.856534,33.0593132 L149.046614,33.0593132 L149.084768,33.0072841 C149.12986,32.9503989 149.174259,32.89282 149.220044,32.8359348 C149.263055,32.7839057 149.307453,32.7297954 149.351158,32.6777662 C149.408043,32.6132501 149.45591,32.5577523 149.505164,32.5015609 C149.55858,32.4453694 149.611997,32.3864031 149.667495,32.3281304 C149.720911,32.2726327 149.777797,32.2150538 149.833988,32.1588623 C149.870755,32.1241762 149.908216,32.0867152 149.944984,32.0506417 L149.945677,32.0506417 L149.976895,32.0215054 L150.006031,31.9923691 C150.064997,31.9389525 150.123964,31.8834547 150.185011,31.8293444 C150.252996,31.7696844 150.320981,31.7093306 150.389659,31.6489768 C150.460419,31.5900104 150.531178,31.5303503 150.604019,31.4720777 C150.604019,31.4720777 150.615119,31.4644468 150.625525,31.4568158 C150.638012,31.4471037 150.64703,31.4373916 150.64703,31.4373916 C150.705996,31.3929934 150.762882,31.346514 150.823235,31.3021159 C150.89677,31.2452307 150.971692,31.1890392 151.047308,31.1328477 C151.141654,31.0641693 151.236694,30.997572 151.334508,30.9316684 C151.334508,30.9316684 151.346995,30.9219563 151.360176,30.9143254 C151.373357,30.9066944 151.385844,30.8969823 151.385844,30.8969823 C151.480884,30.8331599 151.553724,30.7845994 151.627953,30.7367326 C151.727849,30.6722164 151.827745,30.608394 151.931109,30.5466528 L152.096909,30.4495317 L152.130207,30.4294138 L152.17738,30.4002775 L152.210679,30.381547 L152.241203,30.3648977 C152.425733,30.2587582 152.614425,30.1526188 152.807973,30.0541103 L152.871796,30.0228928 L152.932843,29.9930628 C152.984179,29.9653139 153.034821,29.9417274 153.086156,29.9160597 L153.132635,29.8938606 L153.216576,29.8508498 C153.274848,29.8217135 153.335202,29.7918835 153.395556,29.7627471 C153.503776,29.7134929 153.614078,29.6649324 153.72438,29.6156781 L153.811789,29.5775234 L153.863818,29.5539369 L153.915847,29.5303503 L153.981057,29.501214 C154.209985,29.4033992 154.418796,29.3201526 154.631768,29.2396809 L154.746926,29.1966701 L154.783693,29.182102 C154.828091,29.1668401 154.871796,29.1488033 154.9155,29.1349289 L154.98071,29.1099549 L155.106968,29.0641693 C155.26583,29.0072841 155.428855,28.9531738 155.591185,28.8990635 L155.692469,28.8685397 L155.762535,28.8456469 L155.885323,28.8074922 L155.981751,28.7769684 L156.085115,28.7443635 C156.250221,28.6951093 156.417408,28.6472425 156.585289,28.6007631 L156.683797,28.5764828 L156.748313,28.5598335 C156.822542,28.5404093 156.899545,28.5202914 156.97516,28.5015609 L157.0702,28.4765869 C157.140266,28.4578564 157.210332,28.4398196 157.280398,28.4245578 C157.410124,28.3919528 157.53985,28.3628165 157.67027,28.3350676 L157.740336,28.319112 L157.814564,28.3031564 L157.886711,28.2865071 L157.920703,28.2788762 L157.921397,28.2788762 L157.990075,28.2636143 C158.228022,28.2136663 158.469437,28.1678807 158.711546,28.1241762 L158.785774,28.1123829 L158.86139,28.0998959 L159.087543,28.062435 L159.185358,28.0464794 C159.27138,28.0326049 159.357401,28.0180368 159.445504,28.0041623 C159.578005,27.9854318 159.711893,27.9653139 159.845088,27.9493583 L159.934578,27.9361776 L160.019906,27.9257718 L160.053898,27.9216094 L160.08789,27.9174471 L160.140613,27.9112036 L160.249527,27.8966354 C160.384803,27.8820673 160.52216,27.8668054 160.657436,27.852931 C160.793405,27.8397503 160.93215,27.8265695 161.068813,27.8147763 L161.122229,27.8106139 L161.174952,27.8064516 L161.383069,27.7891086 C161.487821,27.7821713 161.593267,27.7745404 161.698712,27.7682969 C161.731317,27.7669095 161.764616,27.7648283 161.798608,27.7627471 L162.151713,34.6694416 L164.901626,34.6694416 L165.25473,27.7766216 L165.440648,27.7891086 L165.727155,27.8106139 C165.821501,27.820326 165.916541,27.827957 166.010887,27.8362817 L166.300863,27.865418 C166.397984,27.8758238 166.493024,27.8862296 166.589451,27.8980229 L166.846128,27.9299341 C166.844741,27.9299341 166.876652,27.9340964 166.876652,27.9340964 L166.876652,27.9340964 C166.971692,27.9465834 167.066038,27.9590704 167.161078,27.9715574 C167.262361,27.9861256 167.363645,28.0006937 167.464928,28.0159556 C167.566211,28.0305238 167.666107,28.0471731 167.767391,28.0631287 L167.880467,28.0811655 L167.933884,28.0908776 L167.972732,28.0985085 L168.019906,28.1061394 L168.065691,28.1137704 C168.166281,28.1311134 168.264096,28.1491502 168.363298,28.1685744 C168.474987,28.1879986 168.585289,28.2115852 168.695591,28.2323968 C168.805199,28.2552896 168.9155,28.2781824 169.025108,28.3024627 C169.134023,28.326743 169.243631,28.351717 169.352545,28.3753035 C169.460766,28.4002775 169.568293,28.4259452 169.677207,28.4523066 C169.802771,28.4842178 169.926947,28.516129 170.051817,28.5501214 C170.209985,28.591051 170.342486,28.6271245 170.472906,28.6652792 C170.604713,28.7027402 170.734439,28.7402012 170.864165,28.780437 L170.952961,28.8081859 L171.031352,28.8338536 L171.060488,28.8414846 L171.093787,28.8525841 L171.166628,28.8761707 L171.249874,28.9032258 C171.296354,28.917794 171.342833,28.935137 171.388619,28.9517863 C171.42608,28.9663545 171.463541,28.9802289 171.503083,28.9947971 C171.758372,29.0815123 172.010193,29.1710024 172.257158,29.2681235 C172.384109,29.316684 172.506204,29.3673257 172.630381,29.4172737 L172.758719,29.4679154 C172.824623,29.4949705 172.890526,29.5192508 172.954349,29.5476934 C173.026496,29.5796046 173.095174,29.6129032 173.163853,29.6455082 L173.307453,29.7127992 C173.343527,29.7301422 173.380294,29.7440166 173.416368,29.760666 C173.457991,29.778009 173.497533,29.7960458 173.537075,29.8133888 C173.559274,29.8237947 173.580086,29.8362817 173.600204,29.8480749 C173.622403,29.857787 173.643215,29.8695803 173.666801,29.8806798 C173.892261,29.9916753 174.125351,30.1151578 174.381335,30.2573708 L174.487474,30.3149497 C174.537422,30.3399237 174.588757,30.3676726 174.63593,30.3954214 C174.950186,30.578564 175.249874,30.7665626 175.524588,30.9559487 L175.552337,30.9732917 C175.572455,30.9878599 175.591879,31.0038155 175.609916,31.0190773 C175.62934,31.0336455 175.648764,31.0482137 175.668189,31.0627818 C175.852719,31.194589 176.036555,31.3250087 176.207904,31.4616719 C176.231491,31.4804024 176.251609,31.4991328 176.273114,31.5185571 C176.293232,31.5359001 176.31335,31.5553243 176.334161,31.5719736 C176.406309,31.6316337 176.474987,31.6940687 176.543665,31.7551162 L176.597776,31.802983 C176.767044,31.9521332 176.925906,32.1033646 177.071588,32.2511273 C177.092399,32.2726327 177.115986,32.2934443 177.14096,32.3163371 C177.16524,32.3399237 177.18952,32.3614291 177.213801,32.3864031 C177.265136,32.4419008 177.315084,32.5001734 177.365032,32.5570586 L177.419836,32.6194936 L177.457991,32.6625043 L177.509326,32.720777 C177.603672,32.8331599 177.693163,32.9483177 177.779878,33.0641693 L172.085809,33.0641693 L172.050429,33.0641693 L172.056673,33.0981616 L172.276583,35.5254943 L172.274501,35.5567118 L172.305719,35.5567118 L178.929375,35.5567118 C178.954349,35.6892126 178.973079,35.8244884 178.987647,35.9562955 C179.002216,36.0978148 179.009847,36.2400277 179.013315,36.381547 C179.011928,36.4918488 179.007072,36.6070066 179.002216,36.7221644 L179.002216,36.7221644 Z M153.900585,35.5213319 L154.638705,35.5199445 L154.638705,35.5213319 L153.900585,35.5213319 L153.900585,35.5213319 Z M154.802424,33.3569199 L154.854453,33.0863684 L154.857228,33.0863684 L154.802424,33.3569199 L154.802424,33.3569199 Z M172.083034,33.0884495 L172.083034,33.0863684 L172.864859,33.0863684 L172.083034,33.0884495 L172.083034,33.0884495 Z M172.3078,35.4699965 L172.303638,35.5213319 L172.302944,35.5213319 L172.3078,35.4699965 L172.3078,35.4699965 Z" id="Shape"></path>
                    <path d="M100.589386,50.9883084 C100.650499,50.9966421 100.711613,51.000809 100.772032,51.000809 C101.392197,51.000809 101.947776,50.5848194 102.112366,49.9715994 L109.245302,23.3538237 L110.661333,35.9821276 C110.730086,36.5953476 111.194689,37.0898127 111.802353,37.1953726 C112.414184,37.3037105 113.014903,36.9946698 113.287831,36.4411745 L117.749823,27.3894085 L122,27.3894085 L122,24.611515 L116.885898,24.611515 C116.356709,24.611515 115.87405,24.9122219 115.640013,25.3865473 L112.894065,30.9576127 L111.187049,15.7389231 C111.113435,15.0750065 110.576607,14.5590128 109.911302,14.5090107 C109.238357,14.4617865 108.638332,14.8895821 108.465408,15.5347479 L102.160979,39.0628116 L102.160979,2.38836678 C102.160979,1.6862542 101.637346,1.09525735 100.940095,1.00983712 C100.246316,0.927194791 99.5935108,1.3730467 99.4233649,2.05432509 L92.9987916,27.9713772 L91.6265122,15.7396175 C91.5584538,15.1347312 91.1056572,14.6451275 90.5084101,14.5305394 C89.9125519,14.4152568 89.3083601,14.7034632 89.0215426,15.2395967 L84.0116116,24.611515 L72,24.611515 L72,27.3894085 L84.8442852,27.3894085 C85.3568065,27.3894085 85.8276595,27.1074523 86.0693362,26.6546557 L89.3639179,20.4905099 L91.1014903,35.9821276 C91.175799,36.6509055 91.7195716,37.1696771 92.3904329,37.2134289 C93.0446269,37.2544029 93.6675695,36.8141067 93.8293818,36.1613018 L99.3816965,13.7631463 L99.3816965,49.6118622 C99.3816965,50.308419 99.8983847,50.8973324 100.589386,50.9883084 L100.589386,50.9883084 Z" id="Shape"></path>
                    <g id="Group" transform="translate(0.000000, 1.000000)">
                        <path d="M5.47860274,49.0613014 L46.8556301,49.0613014 C49.8650137,49.0613014 52.3051918,46.6211233 52.3051918,43.6102877 L52.3051918,6.05289041 C52.3051918,3.04278082 49.8650137,0.601876712 46.8556301,0.601876712 L5.47860274,0.601876712 C2.46776712,0.601876712 0.0275890411,3.04205479 0.0275890411,6.05289041 L0.0275890411,43.6102877 C0.0275890411,46.6211233 2.4670411,49.0613014 5.47860274,49.0613014 L5.47860274,49.0613014 Z M2.93169863,6.05289041 C2.93169863,4.64875342 4.07373973,3.5059863 5.47860274,3.5059863 L46.8556301,3.5059863 C48.2597671,3.5059863 49.4010822,4.64875342 49.4010822,6.05289041 L49.4010822,43.6102877 C49.4010822,45.0144247 48.2597671,46.1571918 46.8556301,46.1571918 L5.47860274,46.1571918 C4.07373973,46.1571918 2.93169863,45.0144247 2.93169863,43.6102877 L2.93169863,6.05289041 L2.93169863,6.05289041 Z" id="Shape"></path>
                        <path d="M22.3863288,11.581589 L9.49934247,11.581589 L9.49934247,38.081589 L22.3863288,38.081589 L22.3863288,11.581589 L22.3863288,11.581589 Z M19.4822192,23.7425479 L12.4034521,23.7425479 L12.4034521,14.5053014 L19.4822192,14.5053014 L19.4822192,23.7425479 L19.4822192,23.7425479 Z" id="Shape"></path>
                        <path d="M42.8370685,11.581589 L29.9500822,11.581589 L29.9500822,38.081589 L42.8370685,38.081589 L42.8370685,11.581589 L42.8370685,11.581589 Z M39.9329589,35.1578767 L32.8541918,35.1578767 L32.8541918,25.9206301 L39.9329589,25.9206301 L39.9329589,35.1578767 L39.9329589,35.1578767 Z" id="Shape"></path>
                    </g>
                </g>
            </g>
        </g>
    </g>
</svg>